<svg width="20" height="20" viewBox="0 0 20 20" fill="none" xmlns="http://www.w3.org/2000/svg">
<path fill-rule="evenodd" clip-rule="evenodd" d="M10 20C4.47715 20 0 15.5228 0 10C0 4.47715 4.47715 0 10 0C15.5228 0 20 4.47715 20 10C20 15.5228 15.5228 20 10 20ZM3.782 11.0049L3.14671 8.35806H2.50449L3.59454 12.4966H4.11874L4.84774 9.94538L5.00395 9.20714H5.01434L5.1775 9.94538L5.92037 12.4966H6.44113L7.53118 8.35806H6.8924L6.28487 11.0049L6.16685 11.6321H6.15646L6.03495 11.0049L5.27815 8.35806H4.75743L4.00068 11.0049L3.8861 11.5824L3.87571 11.5786L3.782 11.0049ZM9.16284 11.0049L8.52747 8.35806H7.88525L8.97529 12.4966H9.4995L10.2285 9.94538L10.3848 9.20714H10.3951L10.5583 9.94538L11.3012 12.4966H11.822L12.912 8.35806H12.2733L11.6658 11.0049L11.5477 11.6321H11.5373L11.4158 11.0049L10.659 8.35806H10.1383L9.38152 11.0049L9.26694 11.5824L9.25655 11.5786L9.16284 11.0049ZM14.5437 11.0049L13.9084 8.35806H13.2662L14.3563 12.4966H14.8804L15.6095 9.94538L15.7657 9.20714H15.7761L15.9393 9.94538L16.6822 12.4966H17.2029L18.2929 8.35806H17.6542L17.0466 11.0049L16.9286 11.6321H16.9182L16.7967 11.0049L16.0399 8.35806H15.5192L14.7624 11.0049L14.6478 11.5824L14.6374 11.5786L14.5437 11.0049Z" fill="#43C8F1"/>
</svg>
