<svg width="121" height="12" viewBox="0 0 121 12" fill="none" xmlns="http://www.w3.org/2000/svg">
<path d="M10.282 1.032H7.16L6.67 2.824C6.208 4.504 5.76 6.212 5.522 7.948C5.312 6.212 4.864 4.49 4.388 2.81L3.884 1.032H0.79L3.772 11H7.216L10.282 1.032ZM13.9421 1.032H10.8901V11H13.9421V1.032ZM23.3782 4.056C23.3502 1.998 21.8802 0.821999 19.3322 0.821999C16.9242 0.821999 15.3002 2.068 15.3002 3.944C15.3002 5.652 16.3362 6.212 17.7642 6.702C18.4502 6.94 20.1722 7.36 20.5782 7.696C20.7042 7.808 20.7742 7.934 20.7742 8.102C20.7742 8.606 20.2982 8.928 19.5282 8.928C18.6322 8.928 18.0302 8.606 17.9742 7.64H14.9082C14.9362 9.866 16.6442 11.224 19.4302 11.224C22.0902 11.224 23.7842 9.908 23.7842 7.836C23.7842 5.764 22.0202 5.12 20.3542 4.686C19.9342 4.574 18.2262 4.336 18.2262 3.72C18.2262 3.328 18.5902 3.104 19.2342 3.104C20.0182 3.104 20.4942 3.454 20.5082 4.056H23.3782ZM27.9421 1.032H24.8901V11H27.9421V1.032ZM37.7282 1.032H29.0902V3.594H31.8762V11H34.9282V3.594H37.7282V1.032ZM56.3056 1.032H53.2956L52.9036 2.824C52.5256 4.56 52.1896 6.31 52.0496 8.074C51.9236 6.352 51.5876 4.7 51.2516 3.02L50.8456 1.032H48.1436L47.6816 3.356C47.3736 4.924 47.0656 6.478 46.9396 8.074C46.8276 6.464 46.5616 4.868 46.2116 3.286L45.7076 1.032H42.6976L45.4276 11H48.4376L48.8716 8.536C49.1096 7.192 49.3756 5.876 49.4736 4.518C49.6276 5.876 49.8796 7.22 50.1316 8.564L50.5936 11H53.5756L56.3056 1.032ZM65.334 1.032H57.074V11H65.474V8.466H60.084V7.01H64.844V4.7H60.084V3.454H65.334V1.032ZM66.9315 1.032V11H72.1675C74.1135 11 75.9895 10.314 75.9895 7.976C75.9895 6.688 75.3735 5.918 74.2535 5.526C75.0095 5.078 75.4995 4.504 75.4995 3.524C75.4995 1.466 73.6095 1.032 71.9575 1.032H66.9315ZM69.8995 3.3H71.4815C72.1955 3.3 72.5455 3.566 72.5455 4.084C72.5455 4.56 72.1955 4.84 71.6215 4.84H69.8995V3.3ZM69.8995 6.758H71.7895C72.5455 6.758 72.9515 7.094 72.9515 7.71C72.9515 8.326 72.5595 8.634 71.7895 8.634H69.8995V6.758ZM81.9702 1.032V11H85.0082V7.92H86.9122C89.0542 7.92 90.6642 6.87 90.6642 4.574C90.6642 1.662 88.4942 1.032 86.3102 1.032H81.9702ZM85.0082 3.482H86.4222C87.3182 3.482 87.7382 3.832 87.7382 4.546C87.7382 5.358 87.2202 5.596 86.4782 5.596H85.0082V3.482ZM96.5426 1.032H93.5186L89.8366 11H92.9306L93.4206 9.586H96.6266L97.1166 11H100.211L96.5426 1.032ZM95.9546 7.444H94.0786C94.4146 6.436 94.6246 5.75 94.6246 5.75C94.8206 5.134 94.8766 4.91 95.0446 4.224C95.1846 4.882 95.2126 5.05 95.4226 5.736C95.4226 5.736 95.7726 6.87 95.9546 7.444ZM110.272 5.512H106.17V7.654H107.486C107.29 8.396 106.674 8.816 105.778 8.816C104.406 8.816 103.678 7.906 103.678 6.17C103.678 4.868 104 3.356 105.624 3.356C106.45 3.356 106.982 3.762 107.178 4.518H110.118C109.852 2.264 107.906 0.794 105.68 0.794C102.698 0.794 100.598 2.95 100.598 6.016C100.598 9.11 102.53 11.224 105.344 11.224C106.562 11.224 107.472 10.874 108.228 9.978L108.326 11H110.272V5.512ZM120.063 1.032H111.803V11H120.203V8.466H114.813V7.01H119.573V4.7H114.813V3.454H120.063V1.032Z" fill="#43C8F1"/>
</svg>
