<?xml version="1.0" encoding="UTF-8"?>
<svg width="119px" height="37px" viewBox="0 0 119 37" version="1.1" xmlns="http://www.w3.org/2000/svg" xmlns:xlink="http://www.w3.org/1999/xlink">
    <!-- Generator: sketchtool 47.1 (45422) - http://www.bohemiancoding.com/sketch -->
    <title>77C9971A-D19B-42B3-9B00-47DF38D38C5C</title>
    <desc>Created with sketchtool.</desc>
    <defs></defs>
    <g id="ver-3" stroke="none" stroke-width="1" fill="none" fill-rule="evenodd">
        <g id="neuron_web_products" transform="translate(-211.000000, -573.000000)">
            <g id="post_preview_medium_dark" transform="translate(130.000000, 452.000000)">
                <g id="image">
                    <g id="Group-2" transform="translate(81.000000, 121.000000)">
                        <path d="M28.1162197,36.7389397 L14.336739,36.7389397 C4.76202639,36.7389397 0,33.8159514 0,27.9699747 L0,25.2989681 C0,19.4529914 4.76202639,16.5300031 14.336739,16.5300031 L36.0191571,16.5300031 C36.0191571,14.514149 33.6381439,13.355033 27.9135802,13.355033 L10.113525,13.355033 C8.54306944,13.355033 8.23911031,11.683659 8.23911031,10.8352154 C8.23911031,9.98677181 8.54306944,8.26500153 10.113525,8.26500153 L28.1162197,8.26500153 C33.4891343,8.26500153 37.3465489,9.18544148 39.6974155,11.0263214 C41.5358715,12.4659507 42.4529587,14.4684991 42.4529587,17.0339666 L42.4529587,27.9699747 C42.4529587,33.8159514 37.6909323,36.7389397 28.1162197,36.7389397 Z M14.5393785,31.6489083 L27.9135802,31.6489083 C33.587484,31.6489083 36.0191571,29.9858287 36.0191571,27.9699747 L36.0191571,21.4184491 L14.5393785,21.4184491 C8.86547467,21.4184491 6.43380162,23.0311323 6.43380162,25.0973827 L6.43380162,27.9699747 C6.43380162,29.9858287 8.86547467,31.6489083 14.5393785,31.6489083 Z" id="Combined-Shape" fill="#FFFFFF"></path>
                        <path d="M68.6402973,8.26500153 L56.1311196,8.26500153 L56.1311196,2.36862849 C56.1311196,0.403170806 55.0672627,0 52.8888889,0 C50.7105151,0 49.697318,0.403170806 49.697318,2.36862849 L49.697318,8.26500153 L46.8097063,8.26500153 C45.2392507,8.26500153 44.9859515,9.17213584 44.9859515,10.8352154 C44.9859515,12.498295 45.2392507,13.355033 46.8097063,13.355033 L49.697318,13.355033 L49.697318,34.5718966 C49.697318,36.5373543 50.7105151,36.9405251 52.8888889,36.9405251 C55.0672627,36.9405251 56.1311196,36.5373543 56.1311196,34.5718966 L56.1311196,13.355033 L68.7227992,13.355033 C68.610385,12.8586189 68.5548746,12.285154 68.5548746,11.623717 L68.5548746,9.55135665 C68.5548746,9.07903961 68.5831797,8.65158009 68.6402973,8.26500153 Z" id="Combined-Shape" fill="#FFFFFF"></path>
                        <path d="M78.066837,16.0184768 L78.066837,34.5060793 C78.066837,36.5261514 77.00298,36.9405251 74.8246062,36.9405251 C72.6462324,36.9405251 71.6330353,36.5261514 71.6330353,34.5060793 L71.6330353,16.0368032 C72.4945278,16.2396474 73.5479385,16.310659 74.8010264,16.310659 C76.0911376,16.310659 77.1788003,16.2353892 78.066837,16.0184768 Z" id="Combined-Shape" fill="#FFFFFF"></path>
                        <path d="M78.066837,10.0580283 C78.066837,8.03795628 77.00298,7.62358253 74.8246062,7.62358253 C72.6462324,7.62358253 71.6330353,8.03795628 71.6330353,10.0580283 L71.6330353,11.1170454 C71.6330353,13.1371174 72.6462324,13.5514911 74.8246062,13.5514911 C77.00298,13.5514911 78.066837,13.1371174 78.066837,11.1170454 L78.066837,10.0580283 Z" id="Path" fill="#72EFDF"></path>
                        <path d="M82.1702852,17.2859483 C82.1702852,21.9224126 86.3243934,24.7446082 94.4806301,24.7446082 L105.828438,24.7446082 C111.097063,24.7446082 112.515539,25.7525352 112.515539,27.3148221 L112.515539,29.1290907 C112.515539,30.6913776 111.097063,31.6489083 105.625798,31.6489083 L84.1460196,31.6489083 C82.5755641,31.6489083 82.2716049,32.5056462 82.2716049,34.1687258 C82.2716049,35.9325981 82.5755641,36.7389397 84.1460196,36.7389397 L104.663261,36.7389397 C114.845892,36.7389397 119,33.8663477 119,29.028298 L119,27.4156148 C119,22.5775651 115.099191,19.7553695 105.625798,19.7553695 L94.4299702,19.7553695 C90.3771818,19.7553695 88.553427,18.7474425 88.553427,17.1851556 L88.553427,15.8748505 C88.553427,14.3125636 90.3265219,13.355033 94.1766709,13.355033 L111.161698,13.355033 C112.732153,13.355033 113.036112,12.498295 113.036112,10.8352154 C113.036112,9.07134314 112.732153,8.26500153 111.161698,8.26500153 L94.2273308,8.26500153 C86.2737335,8.26500153 82.1702852,11.1375935 82.1702852,15.8244541 L82.1702852,17.2859483 Z" id="Path" fill="#FFFFFF"></path>
                    </g>
                </g>
            </g>
        </g>
    </g>
</svg>