<?xml version="1.0" encoding="UTF-8"?>
<svg width="199px" height="75px" viewBox="0 0 199 75" version="1.1" xmlns="http://www.w3.org/2000/svg" xmlns:xlink="http://www.w3.org/1999/xlink">
    <!-- Generator: sketchtool 47.1 (45422) - http://www.bohemiancoding.com/sketch -->
    <title>A62FF019-0DBC-4EE3-A64E-781D47677F19</title>
    <desc>Created with sketchtool.</desc>
    <defs></defs>
    <g id="ver-3" stroke="none" stroke-width="1" fill="none" fill-rule="evenodd">
        <g id="neuron_web_products" transform="translate(-771.000000, -255.000000)" fill="#FFFFFF">
            <g id="post_preview_medium_dark" transform="translate(730.000000, 152.000000)">
                <g id="image">
                    <g id="Group" transform="translate(41.000000, 103.000000)">
                        <g id="Group-6">
                            <path d="M52.9027274,24.1825744 C52.7028038,24.2235352 52.3839013,24.0275084 52.218111,23.8500116 C49.9955456,21.4606308 47.7866335,19.0605222 45.5835729,16.6535868 C42.8138995,13.6293134 40.0588546,10.5913864 37.2745526,7.58174193 C37.1126633,7.40717084 36.7147665,7.32232344 36.4660811,7.37693786 C29.2590788,8.95295391 22.0550022,10.5465246 14.8577523,12.169353 C14.580785,12.2307942 14.2443282,12.5692086 14.1555816,12.8481322 C12.026639,19.5237695 9.9562106,26.2179367 7.79313468,32.8818709 C7.44692551,33.946852 7.5912606,34.6207549 8.34901984,35.4185155 C11.039699,38.2477374 13.6611364,41.1442521 16.2991528,44.0232121 C18.3920116,46.3072651 20.4604896,48.6127737 22.564076,50.8860988 C22.8966319,51.2459688 22.9697747,51.5336698 22.8166624,52.0017933 C22.1047393,54.1756422 21.4376771,56.36412 20.7062493,58.7008368 C19.7212598,57.6417072 18.7996608,56.6625487 17.891715,55.6707119 C15.0264684,52.5411107 12.1690236,49.4046827 9.3018265,46.2760568 C6.28736858,42.9855381 3.2582821,39.7086731 0.261378447,36.4005998 C0.0604796011,36.1792164 -0.0584993268,35.704266 0.0292720135,35.4233918 C1.65986847,30.1716304 3.33142488,24.9315721 4.9873775,19.6876127 C6.26396289,15.6461458 7.53957303,11.6046789 8.79177749,7.55540998 C9.00047823,6.88248233 9.30670268,6.50408244 10.0634867,6.33828867 C19.5281629,4.27366863 28.9850372,2.17588984 38.4370353,0.0537296133 C39.085568,-0.0915837479 39.4912666,0.0566553857 39.9057424,0.513075876 C44.8287393,5.91892796 49.7556372,11.3199038 54.690337,16.715028 C56.3462897,18.5260811 59.8376385,22.4134573 59.9497908,22.6436181 C57.5663113,23.1712324 55.2393955,23.6988467 52.9027274,24.1825744 Z" id="Fill-37"></path>
                            <path d="M44.5888081,26.0656178 L33.5587707,14.1028531 C32.9488099,13.3887909 32.0506086,12.9242581 31.0378435,12.906472 C29.4020395,12.8756077 28.0168112,14.0113066 27.6684117,15.5451017 L25.3666728,24.6939907 L16.1084512,25.8370133 C14.3512829,25.9327447 12.9393753,27.3681928 12.9064186,29.1577947 C12.8891555,30.1130164 13.2715581,30.9834922 13.8961663,31.6117623 L24.8388422,43.4923968 L27.6214233,37.6689847 L27.6214233,37.6689847 C27.6941682,37.5167435 27.6678296,37.3356496 27.5547314,37.2104377 L22.3545336,31.4532562 L30.4859493,30.448861 L32.5088639,22.3169222 L37.8470107,28.1071628 L37.8470107,28.1071628 C37.9588073,28.2284277 38.131652,28.2722592 38.2877255,28.2189233 L44.5888081,26.0656178 Z" id="Fill-1"></path>
                            <path d="M57.4518828,36.7068909 L55.3853233,38.2428002 C54.2637539,36.7755619 52.9122433,35.668121 51.3307916,34.9166087 C49.7483697,34.1660636 48.0116835,33.7898238 46.1197628,33.7898238 C44.0415606,33.7898238 42.1205334,34.2850289 40.3576514,35.2754389 C38.5947694,36.2639145 37.2257949,37.5938108 36.2507281,39.2651278 C35.2756612,40.9345104 34.7886129,42.8166763 34.7886129,44.9125929 C34.7886129,48.0666233 35.8742844,50.6074506 38.0465975,52.5331405 C40.2179403,54.4597975 42.9558892,55.4240932 46.2604441,55.4240932 C49.9036042,55.4240932 52.9442604,54.0032804 55.3853233,51.1626219 L57.4518828,52.7178752 C56.1556746,54.3582418 54.5383249,55.6272047 52.6008041,56.5228294 C50.662313,57.4194213 48.5016425,57.8682008 46.1197628,57.8682008 C41.5665402,57.8682008 37.9757717,56.3603402 35.3484274,53.3455862 C33.1537994,50.7960541 32.0564854,47.9099373 32.0564854,44.6853015 C32.0564854,40.9025928 33.3895618,37.7137433 36.0576551,35.1168185 C38.7257485,32.5218282 42.0623205,31.2238494 46.0673711,31.2238494 C48.4958212,31.2238494 50.6885088,31.7045464 52.6444638,32.6640062 C54.6004187,33.6244331 56.2022449,34.9717389 57.4518828,36.7068909" id="Fill-41"></path>
                            <path d="M71.1556029,39.9016058 C69.1213438,39.9016058 67.3720355,40.6653937 65.906712,42.1939461 C64.4423546,43.7215217 63.7101758,45.5675051 63.7101758,47.7299428 C63.7101758,49.1285927 64.0849586,50.4745001 64.8345242,51.7666885 C65.5840897,53.0608303 66.8542943,54.1537697 68.6441719,55.0474601 C73.1319059,56.0583557 76.3233552,53.9955425 78.2175538,48.8580438 C78.3218748,47.2122861 78.1480065,45.6378283 77.694983,44.132717 C77.3694629,43.4519496 76.921269,42.805367 76.3513674,42.1939461 C74.9217835,40.6653937 73.1898621,39.9016058 71.1556029,39.9016058 M71.1556029,37.4686192 C74.0959091,37.4686192 76.5377928,38.5430011 78.4793222,40.694695 C80.2691998,42.6578837 81.1646215,44.9912458 81.1646215,47.6947812 C81.187804,54.3705995 81.187804,57.7617394 81.1646215,57.8682008 L78.5662563,57.8682008 L78.5662563,53.4769091 C77.2062198,56.0397982 74.736324,57.4745864 71.1556029,57.7802969 C68.225922,57.7802969 65.8342669,56.7713546 63.9806376,54.7564003 C62.1260424,52.7404692 61.1987448,50.3856195 61.1987448,47.6947812 C61.1987448,45.0137101 62.0767797,42.687185 63.8318836,40.7122758 C65.773413,38.5498381 68.2143308,37.4686192 71.1556029,37.4686192" id="Fill-43"></path>
                            <path d="M85.3451883,48.9875157 L85.3451883,46.6426212 C85.5290159,45.470666 85.7942256,44.5171608 86.1408173,43.7830898 C86.9469781,41.7461903 88.0298378,40.2534479 89.3893964,39.3058469 C90.748955,38.3582458 91.8787291,37.8849372 92.7768037,37.8849372 C93.4450938,37.8849372 94.1602982,38.1102754 94.9205021,38.5599677 L93.6586019,40.6559078 C92.5872314,40.2534479 91.5244779,40.5791551 90.4703413,41.6330292 C89.4152472,42.6878873 88.6866387,43.8362263 88.2835583,45.0790302 C87.9838809,46.1801368 87.8345209,48.2475406 87.8345209,51.2782897 L87.8345209,57.8682008 L85.3451883,57.8682008 L85.3451883,48.9875157 Z" id="Fill-45"></path>
                            <polygon id="Fill-49" points="120.732218 57.4518828 124.410723 31.6401674 124.827813 31.6401674 135.338105 52.8055619 145.725779 31.6401674 146.143835 31.6401674 149.874477 57.4518828 147.311109 57.4518828 144.78443 38.9861559 135.651888 57.4518828 134.989564 57.4518828 125.735371 38.8637067 123.225105 57.4518828"></polygon>
                            <path d="M170.88126,45.7202677 C170.551128,44.3861923 170.068175,43.3208939 169.431422,42.5233915 C168.794669,41.727851 167.952196,41.0833749 166.902044,40.592906 C165.852871,40.1034181 164.750799,39.8581836 163.595827,39.8581836 C161.697324,39.8581836 160.064298,40.4722507 158.696749,41.7003847 C157.707333,42.5969618 156.957924,43.9379038 156.45146,45.7202677 L170.88126,45.7202677 Z M170.88126,50.9437612 L172.96785,52.0600684 C172.295831,53.4176862 171.506257,54.50947 170.598149,55.3354195 C169.690042,56.1623501 168.670258,56.7901502 167.538797,57.2217629 C166.407336,57.6523945 165.127953,57.8682008 163.701626,57.8682008 C160.541373,57.8682008 158.071752,56.8313496 156.291782,54.76059 C154.511813,52.6888495 153.621339,50.348332 153.621339,47.7390376 C153.621339,45.2719791 154.375646,43.0766404 155.88524,41.1520405 C157.795499,38.6967533 160.359164,37.4686192 163.578194,37.4686192 C166.866778,37.4686192 169.501955,38.7252005 171.482746,41.2403249 C172.885562,43.0109176 173.592847,45.2180275 173.604603,47.8636167 L156.185983,47.8636167 C156.233005,50.1295829 156.952046,51.986498 158.343106,53.4314194 C159.734166,54.8783026 161.44948,55.6012537 163.489049,55.6012537 C164.479444,55.6012537 165.440451,55.4276277 166.37109,55.0784139 C167.303688,54.7311619 168.096201,54.273064 168.750587,53.7070629 C169.404973,53.1390999 170.115197,52.2189803 170.88126,50.9437612 L170.88126,50.9437612 Z" id="Fill-51"></path>
                            <path d="M113.845695,45.7202677 C113.515563,44.3861923 113.03261,43.3208939 112.395857,42.5233915 C111.759105,41.727851 110.916632,41.0833749 109.866479,40.592906 C108.817306,40.1034181 107.715234,39.8581836 106.560263,39.8581836 C104.661759,39.8581836 103.028733,40.4722507 101.661184,41.7003847 C100.671768,42.5969618 99.922359,43.9379038 99.4158956,45.7202677 L113.845695,45.7202677 Z M113.845695,50.9437612 L115.932285,52.0600684 C115.260266,53.4176862 114.470692,54.50947 113.562585,55.3354195 C112.654477,56.1623501 111.634693,56.7901502 110.503232,57.2217629 C109.371771,57.6523945 108.092388,57.8682008 106.666061,57.8682008 C103.505808,57.8682008 101.036187,56.8313496 99.2562175,54.76059 C97.4762484,52.6888495 96.5857741,50.348332 96.5857741,47.7390376 C96.5857741,45.2719791 97.3400813,43.0766404 98.8496753,41.1520405 C100.759934,38.6967533 103.323599,37.4686192 106.542629,37.4686192 C109.831213,37.4686192 112.46639,38.7252005 114.447181,41.2403249 C115.849997,43.0109176 116.557282,45.2180275 116.569038,47.8636167 L99.1504186,47.8636167 C99.1974404,50.1295829 99.9164813,51.986498 101.307541,53.4314194 C102.698601,54.8783026 104.413916,55.6012537 106.453484,55.6012537 C107.44388,55.6012537 108.404887,55.4276277 109.335525,55.0784139 C110.268123,54.7311619 111.060636,54.273064 111.715022,53.7070629 C112.369408,53.1390999 113.079632,52.2189803 113.845695,50.9437612 L113.845695,50.9437612 Z" id="Fill-51"></path>
                            <path d="M193.68722,53.2702886 C195.157661,51.7789692 195.892397,49.9196618 195.892397,47.6933349 C195.892397,46.2484981 195.564771,44.9402042 194.912426,43.7684532 C194.259112,42.5976706 193.325668,41.6709221 192.113063,40.9891761 C190.899489,40.30743 189.616125,39.9675254 188.26297,39.9675254 C186.933079,39.9675254 185.681702,40.30743 184.509808,40.9891761 C183.336944,41.6709221 182.4035,42.633501 181.710445,43.8740077 C181.01642,45.1154827 180.668438,46.4121559 180.668438,47.7630589 C180.668438,49.1391401 181.013512,50.4329081 181.701721,51.6443631 C182.38993,52.8567864 183.31465,53.8038711 184.474912,54.4856172 C185.635175,55.1673632 186.909815,55.5082362 188.297865,55.5082362 C190.42162,55.5082362 192.217749,54.7625765 193.68722,53.2702886 M192.489155,56.9675988 C191.118553,57.5680002 189.65102,57.8682008 188.088494,57.8682008 C185.357952,57.8682008 183.025796,56.8891593 181.089118,54.9310762 C179.15244,52.9729931 178.1841,50.6130285 178.1841,47.8511823 C178.1841,45.0428535 179.146624,42.6538372 181.07167,40.6841334 C182.996717,38.7144297 185.311426,37.7295778 188.017735,37.7295778 C189.546334,37.7295778 190.951832,38.0413991 192.235196,38.6650418 C193.518561,39.2886845 194.678823,40.2357692 195.717921,41.5062959 L195.717921,30.8075314 L198.167364,30.8075314 L198.167364,48.9706403 C197.957024,50.6604796 197.326974,52.3784021 196.277212,54.1273131 C195.121797,55.4210812 193.859757,56.3671975 192.489155,56.9675988" id="Fill-53"></path>
                            <path d="M36.2954697,64.2561511 C37.5254403,64.2561511 38.554976,64.6679654 39.384108,65.4916064 C40.2132399,66.3152474 40.6277996,67.3292257 40.6277996,68.5335719 C40.6277996,69.7232755 40.214155,70.7006482 39.3868534,71.4657191 C38.5595518,72.2307901 37.5510643,72.6133198 36.3613607,72.6133198 C35.1533539,72.6133198 34.1338847,72.2005903 33.3029225,71.3751191 C32.4719602,70.5496478 32.0564854,69.6152868 32.0564854,68.5720083 C32.0564854,67.7922948 32.2450048,67.0675016 32.6220493,66.397607 C32.9990939,65.7277123 33.5152345,65.2033354 34.1704866,64.8244605 C34.8257388,64.4455857 35.5340594,64.2561511 36.2954697,64.2561511 Z M36.3284152,65.0578243 C35.7280725,65.0578243 35.1579384,65.2143138 34.617996,65.5272973 C34.0780536,65.8402809 33.658003,66.2630769 33.3578316,66.7956981 C33.0576602,67.3283193 32.9075768,67.9204167 32.9075768,68.5720083 C32.9075768,69.5384137 33.2416039,70.321776 33.9096683,70.9221188 C34.5777326,71.5224615 35.3839736,71.8226284 36.3284152,71.8226284 C36.958043,71.8226284 37.5419042,71.6688844 38.0800163,71.3613918 C38.6181284,71.0538991 39.0372638,70.6356788 39.3374352,70.1067183 C39.6376066,69.5777577 39.78769,69.0533809 39.78769,68.5335719 C39.78769,67.8893016 39.6376066,67.3054404 39.3374352,66.7819708 C39.0372638,66.2585012 38.6144678,65.8402809 38.0690344,65.5272973 C37.5236011,65.2143138 36.9434005,65.0578243 36.3284152,65.0578243 Z M42.91267,70.2687002 L42.9016881,69.6262635 C42.8907063,69.3114496 42.9035183,69.0442278 42.9401245,68.8245902 C43.0206583,68.1327318 43.1963657,67.6257426 43.4672521,67.3036075 C43.7308172,67.0217393 43.9998692,66.8039352 44.2744162,66.6501889 C44.7283339,66.4561757 45.2463048,66.3646614 45.8283444,66.3756433 C46.2822621,66.3756433 46.7023127,66.4900362 47.0885088,66.7188253 C47.474705,66.9476145 47.750163,67.2551025 47.9148912,67.6412986 C48.0796194,68.0274947 48.1619822,68.6324042 48.1619822,69.4560452 L48.1619822,72.5529198 L47.3932545,72.5529198 L47.3932545,69.6811726 C47.3932545,68.9856535 47.3639699,68.5207609 47.3053999,68.2864808 C47.2138842,67.8874725 47.0326859,67.6046934 46.7617996,67.4381349 C46.4909132,67.2715763 46.0900806,67.1882983 45.5592897,67.1882983 C45.0907295,67.1882983 44.6734244,67.3237395 44.3073617,67.5946259 C43.9412991,67.8655122 43.7710825,68.23523 43.7967069,68.7037902 C43.727155,69.0039615 43.6923795,69.551217 43.6923795,70.345573 L43.6923795,72.5529198 L42.91267,72.5529198 L42.91267,70.2687002 Z M50.4852889,64.201242 L51.2649985,64.201242 L51.2649985,72.5529198 L50.4852889,72.5529198 L50.4852889,64.201242 Z M53.9287418,64.0529874 C54.1044519,64.0529874 54.2554504,64.1152171 54.3817421,64.2396784 C54.5080337,64.3641397 54.5711785,64.5142231 54.5711785,64.6899332 C54.5711785,64.8656433 54.5080337,65.0166418 54.3817421,65.1429335 C54.2554504,65.2692251 54.1044519,65.3323699 53.9287418,65.3323699 C53.7530317,65.3323699 53.6029483,65.2692251 53.478487,65.1429335 C53.3540257,65.0166418 53.2917959,64.8656433 53.2917959,64.6899332 C53.2917959,64.5142231 53.3540257,64.3641397 53.478487,64.2396784 C53.6029483,64.1152171 53.7530317,64.0529874 53.9287418,64.0529874 Z M53.5443779,66.5293889 L54.3185966,66.5293889 L54.3185966,72.5529198 L53.5443779,72.5529198 L53.5443779,66.5293889 Z M56.7077942,70.2687002 L56.6968124,69.6262635 C56.6858305,69.3114496 56.6986425,69.0442278 56.7352488,68.8245902 C56.8157826,68.1327318 56.99149,67.6257426 57.2623764,67.3036075 C57.5259415,67.0217393 57.7949935,66.8039352 58.0695405,66.6501889 C58.5234582,66.4561757 59.0414291,66.3646614 59.6234687,66.3756433 C60.0773864,66.3756433 60.497437,66.4900362 60.8836331,66.7188253 C61.2698292,66.9476145 61.5452872,67.2551025 61.7100154,67.6412986 C61.8747436,68.0274947 61.9571065,68.6324042 61.9571065,69.4560452 L61.9571065,72.5529198 L61.1883788,72.5529198 L61.1883788,69.6811726 C61.1883788,68.9856535 61.1590942,68.5207609 61.1005242,68.2864808 C61.0090085,67.8874725 60.8278102,67.6046934 60.5569238,67.4381349 C60.2860375,67.2715763 59.8852049,67.1882983 59.354414,67.1882983 C58.8858538,67.1882983 58.4685486,67.3237395 58.102486,67.5946259 C57.7364233,67.8655122 57.5662067,68.23523 57.5918311,68.7037902 C57.5222792,69.0039615 57.4875038,69.551217 57.4875038,70.345573 L57.4875038,72.5529198 L56.7077942,72.5529198 L56.7077942,70.2687002 Z M69.4693254,70.4114639 L70.1172531,70.7573914 C69.9085974,71.1783635 69.6633391,71.5169663 69.3814708,71.7732102 C69.0996026,72.0294541 68.7829631,72.2243795 68.431543,72.3579924 C68.0801228,72.4916052 67.6829508,72.5584107 67.240015,72.5584107 C66.2589671,72.5584107 65.4920773,72.2371955 64.9393227,71.5947556 C64.3865681,70.9523156 64.1101949,70.2266073 64.1101949,69.4176088 C64.1101949,68.6525378 64.3444715,67.9716715 64.8130317,67.3749894 C65.4060532,66.613579 66.2022276,66.2328796 67.2015786,66.2328796 C68.2228934,66.2328796 69.0410312,66.6227305 69.6560165,67.4024439 C70.091631,67.9515379 70.3112653,68.6360648 70.314926,69.4560452 L64.9063772,69.4560452 C64.9210197,70.1588855 65.1443146,70.7345104 65.5762685,71.1829371 C66.0082225,71.6313639 66.5408357,71.8555739 67.1741241,71.8555739 C67.4816167,71.8555739 67.7799533,71.8015805 68.0691428,71.693592 C68.3583323,71.5856035 68.6045057,71.4437563 68.8076705,71.2680463 C69.0108353,71.0923362 69.2313847,70.8068116 69.4693254,70.4114639 Z M69.4693254,68.7916448 C69.3668279,68.377994 69.2167445,68.0476274 69.0190706,67.8005351 C68.8213968,67.5534428 68.5596659,67.3539416 68.2338701,67.2020256 C67.9080744,67.0501096 67.5658109,66.9741528 67.2070695,66.9741528 C66.6177086,66.9741528 66.1107195,67.1645025 65.6860868,67.5452076 C65.3785942,67.8234153 65.1461479,68.2388902 64.9887409,68.7916448 L69.4693254,68.7916448 Z M76.3562311,64.2122238 L77.1359407,64.2122238 L77.1359407,67.6220804 C77.447094,67.2084296 77.7902725,66.8991113 78.1654868,66.6941162 C78.540701,66.4891211 78.9479396,66.3866251 79.3872148,66.3866251 C79.8411325,66.3866251 80.2419651,66.501018 80.5897246,66.7298072 C80.9374841,66.9585963 81.1937241,67.2651692 81.3584523,67.649535 C81.5231805,68.0339008 81.6055434,68.6397254 81.6055434,69.467027 L81.6055434,72.5639016 L80.8368157,72.5639016 L80.8368157,69.6921544 C80.8368157,68.9966353 80.8075311,68.5317427 80.7489611,68.2974626 C80.6537848,67.8984544 80.4799076,67.5992026 80.2273244,67.3996985 C79.9747412,67.2001943 79.6434594,67.1004437 79.2334692,67.1004437 C78.764909,67.1004437 78.3448584,67.2551029 77.9733048,67.5644258 C77.6017512,67.8737488 77.3574081,68.2571937 77.240268,68.714772 C77.1707161,69.0076221 77.1359407,69.5548776 77.1359407,70.3565548 L77.1359407,72.5639016 L76.3562311,72.5639016 L76.3562311,64.2122238 Z M89.1177623,70.4114639 L89.76569,70.7573914 C89.5570343,71.1783635 89.311776,71.5169663 89.0299077,71.7732102 C88.7480395,72.0294541 88.4314,72.2243795 88.0799799,72.3579924 C87.7285597,72.4916052 87.3313877,72.5584107 86.8884519,72.5584107 C85.907404,72.5584107 85.1405142,72.2371955 84.5877596,71.5947556 C84.035005,70.9523156 83.7586318,70.2266073 83.7586318,69.4176088 C83.7586318,68.6525378 83.9929084,67.9716715 84.4614686,67.3749894 C85.0544901,66.613579 85.8506645,66.2328796 86.8500155,66.2328796 C87.8713303,66.2328796 88.6894681,66.6227305 89.3044534,67.4024439 C89.7400679,67.9515379 89.9597022,68.6360648 89.9633629,69.4560452 L84.5548141,69.4560452 C84.5694566,70.1588855 84.7927515,70.7345104 85.2247054,71.1829371 C85.6566594,71.6313639 86.1892726,71.8555739 86.822561,71.8555739 C87.1300536,71.8555739 87.4283902,71.8015805 87.7175797,71.693592 C88.0067692,71.5856035 88.2529426,71.4437563 88.4561074,71.2680463 C88.6592722,71.0923362 88.8798216,70.8068116 89.1177623,70.4114639 Z M89.1177623,68.7916448 C89.0152648,68.377994 88.8651814,68.0476274 88.6675075,67.8005351 C88.4698337,67.5534428 88.2081028,67.3539416 87.8823071,67.2020256 C87.5565113,67.0501096 87.2142478,66.9741528 86.8555064,66.9741528 C86.2661456,66.9741528 85.7591564,67.1645025 85.3345237,67.5452076 C85.0270311,67.8234153 84.7945848,68.2388902 84.6371778,68.7916448 L89.1177623,68.7916448 Z M95.0431076,66.2328796 C95.9692461,66.2328796 96.7379662,66.5678219 97.3492908,67.2377166 C97.9130273,67.8490412 98.1948913,68.5756647 98.1948913,69.4176088 C98.2022126,71.4968447 98.2022126,72.5529196 98.1948913,72.5858652 L97.3767454,72.5858652 L97.3767454,71.2186281 C96.9484521,72.0166446 96.1705806,72.4632344 95.0431076,72.5584107 C94.1206297,72.5584107 93.3674671,72.2445167 92.7835971,71.6167192 C92.1997272,70.9889217 91.9077966,70.2558923 91.9077966,69.4176088 C91.9077966,68.5829859 92.1841698,67.8581927 92.7369244,67.2432075 C93.348249,66.5696522 94.1169691,66.2328796 95.0431076,66.2328796 Z M95.0431076,66.9906255 C94.4024979,66.9906255 93.8515819,67.2285627 93.390343,67.7044441 C92.929104,68.1803256 92.698488,68.7550353 92.698488,69.4285906 C92.698488,69.8642052 92.8165414,70.2833406 93.0526519,70.6860095 C93.2887623,71.0886785 93.6886797,71.4291116 94.2524162,71.7073193 C95.6654181,72.0221331 96.670245,71.3797028 97.2669271,69.780009 C97.2998728,69.2675213 97.2449642,68.7770047 97.1021998,68.3084445 C96.9997022,68.0961281 96.8587702,67.8947967 96.6793995,67.7044441 C96.2291424,67.2285627 95.6837173,66.9906255 95.0431076,66.9906255 Z M100.369943,64.201242 L101.149653,64.201242 L101.149653,72.5529198 L100.369943,72.5529198 L100.369943,64.201242 Z M105.713252,71.7018283 C105.332547,71.9068234 104.959168,71.923296 104.593106,71.7512466 C104.146509,71.4108083 103.934196,70.9257825 103.95616,70.2961548 L103.95616,67.7483714 L105.383797,67.7483714 L105.383797,67.083971 L103.950669,67.083971 L103.950669,64.1737874 L103.170959,64.1737874 L103.170959,70.4279367 C103.163638,70.8672119 103.264304,71.2698747 103.47296,71.6359374 C103.817059,72.217977 104.285612,72.525465 104.878633,72.5584107 C105.193447,72.5693926 105.552183,72.4980114 105.954852,72.3442651 C105.892621,72.1905188 105.812089,71.9763753 105.713252,71.7018283 Z M107.976159,64.2122238 L108.755868,64.2122238 L108.755868,67.6220804 C109.067021,67.2084296 109.4102,66.8991113 109.785414,66.6941162 C110.160628,66.4891211 110.567867,66.3866251 111.007142,66.3866251 C111.46106,66.3866251 111.861893,66.501018 112.209652,66.7298072 C112.557412,66.9585963 112.813652,67.2651692 112.97838,67.649535 C113.143108,68.0339008 113.225471,68.6397254 113.225471,69.467027 L113.225471,72.5639016 L112.456743,72.5639016 L112.456743,69.6921544 C112.456743,68.9966353 112.427459,68.5317427 112.368889,68.2974626 C112.273712,67.8984544 112.099835,67.5992026 111.847252,67.3996985 C111.594669,67.2001943 111.263387,67.1004437 110.853397,67.1004437 C110.384837,67.1004437 109.964786,67.2551029 109.593232,67.5644258 C109.221679,67.8737488 108.977336,68.2571937 108.860196,68.714772 C108.790644,69.0076221 108.755868,69.5548776 108.755868,70.3565548 L108.755868,72.5639016 L107.976159,72.5639016 L107.976159,64.2122238 Z M121.511908,67.6385532 L120.896926,68.022917 C120.366135,67.3127555 119.641342,66.95768 118.722525,66.95768 C117.986739,66.95768 117.376339,67.1937869 116.891306,67.6660077 C116.406273,68.1382285 116.16376,68.7129383 116.16376,69.3901542 C116.16376,69.8294294 116.275407,70.2439891 116.498705,70.6338459 C116.722004,71.0237026 117.027661,71.3247846 117.415688,71.537101 C117.803714,71.7494173 118.239322,71.8555739 118.722525,71.8555739 C119.612057,71.8555739 120.33685,71.504159 120.896926,70.8013187 L121.511908,71.2021553 C121.222719,71.6341092 120.835614,71.9681364 120.350581,72.2042468 C119.865547,72.4403572 119.311886,72.5584107 118.68958,72.5584107 C117.741477,72.5584107 116.953539,72.2564135 116.325742,71.6524101 C115.697944,71.0484067 115.38405,70.3144621 115.38405,69.4505543 C115.38405,68.864854 115.531388,68.3221743 115.826069,67.8224987 C116.120749,67.3228232 116.523412,66.9329723 117.034069,66.6529344 C117.544727,66.3728964 118.118521,66.2328796 118.75547,66.2328796 C119.150818,66.2328796 119.534263,66.293279 119.905817,66.4140797 C120.27737,66.5348804 120.593095,66.6932001 120.852999,66.8890436 C121.112903,67.0848871 121.332538,67.3347212 121.511908,67.6385532 Z M126.63009,66.2328796 C127.556228,66.2328796 128.324948,66.5678219 128.936273,67.2377166 C129.500009,67.8490412 129.781873,68.5756647 129.781873,69.4176088 C129.789195,71.4968447 129.789195,72.5529196 129.781873,72.5858652 L128.963727,72.5858652 L128.963727,71.2186281 C128.535434,72.0166446 127.757563,72.4632344 126.63009,72.5584107 C125.707612,72.5584107 124.954449,72.2445167 124.370579,71.6167192 C123.786709,70.9889217 123.494779,70.2558923 123.494779,69.4176088 C123.494779,68.5829859 123.771152,67.8581927 124.323906,67.2432075 C124.935231,66.5696522 125.703951,66.2328796 126.63009,66.2328796 Z M126.63009,66.9906255 C125.98948,66.9906255 125.438564,67.2285627 124.977325,67.7044441 C124.516086,68.1803256 124.28547,68.7550353 124.28547,69.4285906 C124.28547,69.8642052 124.403523,70.2833406 124.639634,70.6860095 C124.875744,71.0886785 125.275662,71.4291116 125.839398,71.7073193 C127.2524,72.0221331 128.257227,71.3797028 128.853909,69.780009 C128.886855,69.2675213 128.831946,68.7770047 128.689182,68.3084445 C128.586684,68.0961281 128.445752,67.8947967 128.266382,67.7044441 C127.816124,67.2285627 127.270699,66.9906255 126.63009,66.9906255 Z M131.781216,72.5419379 L131.781216,69.0716813 C131.839786,68.7092793 131.923979,68.4146032 132.033798,68.1876444 C132.290042,67.5580166 132.634136,67.0967846 133.06609,66.8039345 C133.498044,66.5110843 133.85678,66.3646615 134.142309,66.3646615 C134.354625,66.3646615 134.58158,66.4342123 134.823182,66.5733161 L134.422345,67.2212438 C134.081907,67.0967825 133.744219,67.1974482 133.409272,67.523244 C133.074324,67.8490398 132.842793,68.2041152 132.714671,68.588481 C132.619495,68.9289193 132.571908,69.567689 132.571908,70.5048094 L132.571908,72.5419379 L131.781216,72.5419379 Z M141.138382,70.4114639 L141.786309,70.7573914 C141.577654,71.1783635 141.332395,71.5169663 141.050527,71.7732102 C140.768659,72.0294541 140.452019,72.2243795 140.100599,72.3579924 C139.749179,72.4916052 139.352007,72.5584107 138.909071,72.5584107 C137.928023,72.5584107 137.161134,72.2371955 136.608379,71.5947556 C136.055624,70.9523156 135.779251,70.2266073 135.779251,69.4176088 C135.779251,68.6525378 136.013528,67.9716715 136.482088,67.3749894 C137.07511,66.613579 137.871284,66.2328796 138.870635,66.2328796 C139.89195,66.2328796 140.710087,66.6227305 141.325073,67.4024439 C141.760687,67.9515379 141.980322,68.6360648 141.983982,69.4560452 L136.575434,69.4560452 C136.590076,70.1588855 136.813371,70.7345104 137.245325,71.1829371 C137.677279,71.6313639 138.209892,71.8555739 138.84318,71.8555739 C139.150673,71.8555739 139.44901,71.8015805 139.738199,71.693592 C140.027389,71.5856035 140.273562,71.4437563 140.476727,71.2680463 C140.679892,71.0923362 140.900441,70.8068116 141.138382,70.4114639 Z M141.138382,68.7916448 C141.035884,68.377994 140.885801,68.0476274 140.688127,67.8005351 C140.490453,67.5534428 140.228722,67.3539416 139.902926,67.2020256 C139.577131,67.0501096 139.234867,66.9741528 138.876126,66.9741528 C138.286765,66.9741528 137.779776,67.1645025 137.355143,67.5452076 C137.04765,67.8234153 136.815204,68.2388902 136.657797,68.7916448 L141.138382,68.7916448 Z M148.513979,67.4298985 C148.876381,67.0235689 149.272638,66.7261475 149.702761,66.5376252 C150.132885,66.349103 150.593202,66.2548432 151.083726,66.2548432 C151.940312,66.2548432 152.672427,66.5623313 153.280091,67.1773165 C153.887755,67.7923018 154.191582,68.5335675 154.191582,69.401136 C154.191582,70.283347 153.889585,71.0337642 153.285582,71.6524101 C152.681578,72.271056 151.954955,72.5803743 151.105689,72.5803743 C150.626147,72.5803743 150.185048,72.482454 149.782379,72.2866105 C149.37971,72.090767 149.015484,71.7933455 148.689688,71.3943372 L148.689688,74.7547756 L147.92096,74.7547756 L147.92096,69.0497176 C147.986851,68.5189268 148.184522,67.9789925 148.513979,67.4298985 Z M151.017835,66.9961164 C150.351601,66.9961164 149.787873,67.230393 149.326634,67.6989532 C148.865395,68.1675134 148.634779,68.7513746 148.634779,69.4505543 C148.634779,69.9044719 148.737275,70.3153711 148.94227,70.6832641 C149.147265,71.0511571 149.440111,71.3421725 149.820816,71.5563192 C150.201521,71.7704658 150.604184,71.8775375 151.028817,71.8775375 C151.446128,71.8775375 151.838724,71.7704658 152.206617,71.5563192 C152.57451,71.3421725 152.867356,71.0401753 153.085163,70.6503186 C153.302971,70.2604619 153.411873,69.8532233 153.411873,69.4285906 C153.411873,68.9966367 153.303886,68.5903132 153.087909,68.209608 C152.871932,67.8289029 152.581831,67.5314814 152.217599,67.3173348 C151.853367,67.1031881 151.453449,66.9961164 151.017835,66.9961164 Z M156.416052,64.201242 L157.195762,64.201242 L157.195762,72.5529198 L156.416052,72.5529198 L156.416052,64.201242 Z M162.434743,66.2328796 C163.360882,66.2328796 164.129602,66.5678219 164.740926,67.2377166 C165.304663,67.8490412 165.586527,68.5756647 165.586527,69.4176088 C165.593848,71.4968447 165.593848,72.5529196 165.586527,72.5858652 L164.768381,72.5858652 L164.768381,71.2186281 C164.340088,72.0166446 163.562216,72.4632344 162.434743,72.5584107 C161.512265,72.5584107 160.759103,72.2445167 160.175233,71.6167192 C159.591363,70.9889217 159.299432,70.2558923 159.299432,69.4176088 C159.299432,68.5829859 159.575805,67.8581927 160.12856,67.2432075 C160.739885,66.5696522 161.508605,66.2328796 162.434743,66.2328796 Z M162.434743,66.9906255 C161.794133,66.9906255 161.243217,67.2285627 160.781978,67.7044441 C160.32074,68.1803256 160.090124,68.7550353 160.090124,69.4285906 C160.090124,69.8642052 160.208177,70.2833406 160.444287,70.6860095 C160.680398,71.0886785 161.080315,71.4291116 161.644052,71.7073193 C163.057054,72.0221331 164.061881,71.3797028 164.658563,69.780009 C164.691508,69.2675213 164.6366,68.7770047 164.493835,68.3084445 C164.391338,68.0961281 164.250406,67.8947967 164.071035,67.7044441 C163.620778,67.2285627 163.075353,66.9906255 162.434743,66.9906255 Z M170.051289,71.7018283 C169.670584,71.9068234 169.297206,71.923296 168.931143,71.7512466 C168.484547,71.4108083 168.272234,70.9257825 168.294197,70.2961548 L168.294197,67.7483714 L169.721835,67.7483714 L169.721835,67.083971 L168.288707,67.083971 L168.288707,64.1737874 L167.508997,64.1737874 L167.508997,70.4279367 C167.501676,70.8672119 167.602341,71.2698747 167.810997,71.6359374 C168.155096,72.217977 168.623649,72.525465 169.216671,72.5584107 C169.531485,72.5693926 169.890221,72.4980114 170.29289,72.3442651 C170.230659,72.1905188 170.150126,71.9763753 170.051289,71.7018283 Z M174.521543,65.0358607 C174.140838,64.8308656 173.767459,64.814393 173.401397,64.9864425 C173.07194,65.1621525 172.859627,65.6471783 172.764451,66.4415343 L172.764451,67.0455346 L174.192088,67.0455346 L174.192088,67.709935 L172.75896,67.709935 L172.75896,72.5639016 L171.97925,72.5639016 L171.97925,66.3097524 C171.990232,65.8192284 172.090898,65.4165655 172.281251,65.1017516 C172.574101,64.4940876 173.042654,64.1792784 173.686924,64.1573147 C174.016381,64.0804415 174.375117,64.1591438 174.763143,64.3934239 C174.700912,64.5471702 174.62038,64.7613137 174.521543,65.0358607 Z M179.623251,66.2328796 C180.54939,66.2328796 181.31811,66.5678219 181.929434,67.2377166 C182.482189,67.8527018 182.758562,68.5793253 182.758562,69.4176088 C182.758562,70.2558923 182.465717,70.9889217 181.880016,71.6167192 C181.294316,72.2445167 180.542069,72.5584107 179.623251,72.5584107 C178.700773,72.5584107 177.947611,72.2445167 177.363741,71.6167192 C176.779871,70.9889217 176.48794,70.2558923 176.48794,69.4176088 C176.48794,68.5829859 176.764313,67.8581927 177.317068,67.2432075 C177.928393,66.5696522 178.697113,66.2328796 179.623251,66.2328796 Z M179.623251,66.9906255 C178.982642,66.9906255 178.431726,67.2285627 177.970487,67.7044441 C177.509248,68.1803256 177.278632,68.7550353 177.278632,69.4285906 C177.278632,69.8642052 177.383873,70.2714438 177.594359,70.6503186 C177.804845,71.0291935 178.089455,71.3202089 178.448196,71.5233737 C178.806937,71.7265385 179.198619,71.8281193 179.623251,71.8281193 C180.055205,71.8281193 180.449632,71.7265385 180.806543,71.5233737 C181.163454,71.3202089 181.446233,71.0291935 181.654889,70.6503186 C181.863545,70.2714438 181.967871,69.8642052 181.967871,69.4285906 C181.967871,68.7550353 181.737255,68.1803256 181.276016,67.7044441 C180.814777,67.2285627 180.263861,66.9906255 179.623251,66.9906255 Z M184.681032,72.5419379 L184.681032,69.0716813 C184.739602,68.7092793 184.823796,68.4146032 184.933614,68.1876444 C185.189858,67.5580166 185.533952,67.0967846 185.965906,66.8039345 C186.39786,66.5110843 186.756596,66.3646615 187.042125,66.3646615 C187.254441,66.3646615 187.481396,66.4342123 187.722998,66.5733161 L187.322161,67.2212438 C186.981723,67.0967825 186.644035,67.1974482 186.309088,67.523244 C185.974141,67.8490398 185.742609,68.2041152 185.614487,68.588481 C185.519311,68.9289193 185.471724,69.567689 185.471724,70.5048094 L185.471724,72.5419379 L184.681032,72.5419379 Z M189.162268,72.5529198 L189.162268,69.2583723 C189.228159,68.438392 189.400206,67.8380582 189.678413,67.457353 C189.909033,67.1095935 190.21103,66.8332204 190.584414,66.6282253 C190.829676,66.4708183 191.179261,66.3866252 191.633178,66.3756433 C191.926028,66.3756433 192.222535,66.4305519 192.522706,66.5403707 C192.822877,66.6501895 193.055324,66.7966123 193.220052,66.9796437 C193.38478,67.162675 193.551336,67.4372179 193.719725,67.8032805 C193.811241,67.5690004 194.003421,67.2944576 194.296271,66.9796437 C194.439035,66.858843 194.623894,66.7398744 194.850853,66.6227344 C195.004599,66.5238974 195.361505,66.4415346 195.921581,66.3756433 C196.338892,66.3756433 196.739725,66.4799696 197.124091,66.6886253 C197.508456,66.897281 197.778424,67.1910419 197.934,67.5699168 C198.089577,67.9487916 198.167364,68.5134348 198.167364,69.2638632 L198.167364,72.5529198 L197.376673,72.5529198 L197.376673,69.2638632 C197.376673,68.619593 197.330915,68.1766638 197.2394,67.9350624 C197.147884,67.6934611 196.99048,67.4985356 196.767181,67.3502803 C196.543883,67.2020249 196.274831,67.1278983 195.960017,67.1278983 C195.366996,67.1681652 194.860007,67.4555201 194.439034,67.9899716 C194.274306,68.2169304 194.149847,68.720259 194.065652,69.4999725 L194.065652,72.5529198 L193.291434,72.5529198 L193.291434,69.467027 C193.291434,68.7422229 193.210901,68.2489609 193.049834,67.9872261 C192.888766,67.7254913 192.696586,67.5168387 192.473288,67.3612621 C192.24999,67.2056855 191.971786,67.1278983 191.638669,67.1278983 C191.279928,67.1278983 190.971525,67.2194126 190.71345,67.4024439 C190.455376,67.5854753 190.25313,67.859103 190.106705,68.2233353 C189.96028,68.5875677 189.90171,69.1796651 189.930995,69.9996455 L189.930995,72.5529198 L189.162268,72.5529198 Z" id="Online-healthcare-pl"></path>
                        </g>
                    </g>
                </g>
            </g>
        </g>
    </g>
</svg>