<svg width="24" height="24" viewBox="0 0 24 24" fill="none" xmlns="http://www.w3.org/2000/svg">
<g clip-path="url(#clip0)">
<path d="M20.4894 3.51027C15.8086 -1.17051 8.19199 -1.17097 3.51076 3.51027C-1.17048 8.1915 -1.17002 15.8076 3.51076 20.4889C8.19153 25.1701 15.8081 25.1701 20.4894 20.4889C25.1701 15.8076 25.1701 8.19104 20.4894 3.51027ZM16.7344 16.7339C16.3738 17.0945 15.7892 17.0945 15.4286 16.7339L12.0001 13.3054L8.40855 16.8969C8.04792 17.2575 7.46335 17.2575 7.10272 16.8969C6.74209 16.5363 6.74209 15.9517 7.10272 15.5911L10.6942 11.9996L7.26572 8.57106C6.90509 8.21044 6.90509 7.6254 7.26572 7.26523C7.62635 6.9046 8.21092 6.9046 8.57155 7.26523L12.0001 10.6937L15.2651 7.42869C15.6257 7.06806 16.2103 7.06806 16.5709 7.42869C16.9316 7.78932 16.9316 8.3739 16.5709 8.73452L13.3059 11.9996L16.7344 15.4281C17.095 15.7887 17.095 16.3733 16.7344 16.7339Z" fill="white"/>
</g>
<defs>
<clipPath id="clip0">
<rect width="24" height="24" fill="white" transform="matrix(1 0 0 -1 0 24)"/>
</clipPath>
</defs>
</svg>
