<svg width="28" height="28" viewBox="0 0 28 28" fill="none" xmlns="http://www.w3.org/2000/svg">
<path d="M23.0909 0.567871H4.90906C2.20216 0.567871 0 2.77011 0 5.47701V16.6916C0 19.3985 2.20216 21.6007 4.90906 21.6007L16.49 21.6008L22.0337 27.1445C22.2216 27.3324 22.4726 27.4321 22.7282 27.4321C22.8547 27.4321 22.9822 27.4076 23.1037 27.3573C23.4706 27.2053 23.7098 26.8475 23.7098 26.4503V21.5619C26.1258 21.2568 28 19.189 28 16.6916V5.47701C28 2.77011 25.7978 0.567871 23.0909 0.567871ZM26.0364 16.6917C26.0364 18.3159 24.7151 19.6372 23.0909 19.6372H22.728C22.1858 19.6372 21.7462 20.0769 21.7462 20.619V24.08L17.5909 19.9247C17.4068 19.7405 17.1572 19.6372 16.8967 19.6372H4.90906C3.2849 19.6372 1.96362 18.3159 1.96362 16.6917V5.47708C1.96362 3.85293 3.2849 2.53165 4.90906 2.53165H23.0909C24.7151 2.53165 26.0364 3.85293 26.0364 5.47708V16.6917Z" fill="#43C8F1"/>
<path d="M21.2261 7.52002H6.7738C6.23161 7.52002 5.79199 7.95956 5.79199 8.50183C5.79199 9.04403 6.23161 9.48364 6.7738 9.48364H21.2261C21.7683 9.48364 22.2079 9.04403 22.2079 8.50183C22.2079 7.95956 21.7683 7.52002 21.2261 7.52002Z" fill="#43C8F1"/>
<path d="M21.2261 13.0181H6.7738C6.23161 13.0181 5.79199 13.4576 5.79199 13.9999C5.79199 14.5422 6.23161 14.9817 6.7738 14.9817H21.2261C21.7683 14.9817 22.2079 14.5421 22.2079 13.9999C22.2079 13.4577 21.7683 13.0181 21.2261 13.0181Z" fill="#43C8F1"/>
</svg>
