<?xml version="1.0" encoding="UTF-8"?>
<svg width="139px" height="162px" viewBox="0 0 139 162" version="1.1" xmlns="http://www.w3.org/2000/svg" xmlns:xlink="http://www.w3.org/1999/xlink">
    <!-- Generator: sketchtool 47.1 (45422) - http://www.bohemiancoding.com/sketch -->
    <title>E5407944-E01E-4670-B395-5D1A06C896EE</title>
    <desc>Created with sketchtool.</desc>
    <defs>
        <rect id="path-1" x="3.5353873" y="0" width="5.89231217" height="3.66878049" rx="1.46999989"></rect>
        <rect id="path-2" x="12.0792399" y="0" width="5.89231217" height="3.66878049" rx="1.46999989"></rect>
        <rect id="path-3" x="20.328477" y="0" width="5.89231217" height="3.66878049" rx="1.46999989"></rect>
        <rect id="path-4" x="62.1638934" y="0" width="5.89231217" height="3.66878049" rx="1.46999989"></rect>
        <rect id="path-5" x="70.4131304" y="0" width="5.89231217" height="3.66878049" rx="1.46999989"></rect>
        <rect id="path-6" x="85.4385264" y="0" width="5.89231217" height="3.66878049" rx="1.46999989"></rect>
        <rect id="path-7" x="93.6877635" y="0" width="5.89231217" height="3.66878049" rx="1.46999989"></rect>
        <rect id="path-8" x="101.937001" y="0" width="5.89231217" height="3.66878049" rx="1.46999989"></rect>
        <rect id="path-9" x="29.1669452" y="0" width="30.3454077" height="3.66878049" rx="1.46999989"></rect>
        <path d="M2.54703559,2.00540023 L108.849837,2.00540023 L108.849837,2.00540023 C109.622943,2.00540023 110.305962,2.50880918 110.534794,3.24727219 L111.188599,5.35716491 L111.188599,5.35716491 C111.476963,6.28774062 110.956347,7.27588591 110.025771,7.56424919 C109.85668,7.61664634 109.680666,7.64329268 109.503643,7.64329268 L2.00574432,7.64329268 L2.00574432,7.64329268 C1.03151409,7.64329268 0.241744451,6.85352304 0.241744451,5.87929282 C0.241744451,5.73143227 0.260334931,5.58415837 0.297078516,5.44093599 L0.838369786,3.33104327 L0.838369786,3.33104327 C1.0385123,2.55091017 1.74163837,2.00540023 2.54703559,2.00540023 Z" id="path-10"></path>
        <rect id="path-11" x="0" y="0" width="104.019468" height="73.4372175" rx="3.99839969"></rect>
        <rect id="path-12" x="4.2" y="5.04878049" width="94.3487235" height="56.6718077"></rect>
        <rect id="path-13" x="65.2325475" y="2.99906191" width="30.5593916" height="37.0405722" rx="2.35199982"></rect>
        <mask id="mask-14" maskContentUnits="userSpaceOnUse" maskUnits="objectBoundingBox" x="0" y="0" width="30.5593916" height="37.0405722" fill="white">
            <use xlink:href="#path-13"></use>
        </mask>
        <polygon id="path-15" points="6.16626807 0 28.4731083 0 30.1744604 13.2556957 4.67629151 14.1895625"></polygon>
        <rect id="path-16" x="0" y="12.0440355" width="33.7296687" height="2.12519279" rx="1.06259639"></rect>
        <rect id="path-17" x="0" y="29.3972795" width="31.7347529" height="44.0959193" rx="1.58759988"></rect>
        <path d="M5.47335297,6.76220936 C6.87295312,6.76220936 8.13053804,6.76220936 10.4288305,6.76220936 C12.7271229,6.76220936 14.804718,5.50336485 14.804718,3.85677896 C14.804718,1.35245738 11.7106084,0.00134602806 7.62421103,0.00134602806 C3.53781367,0.00134602806 0.0336327027,1.2074969 0.0336327027,3.71181848 C0.0336327027,5.6733425 0.68347634,6.11186751 2.94334736,6.57053892 C3.56870421,6.69746355 4.58764941,6.76220936 5.47335297,6.76220936 Z" id="path-19"></path>
        <path d="M5.47335297,6.76220936 C6.87295312,6.76220936 8.13053804,6.76220936 10.4288305,6.76220936 C12.7271229,6.76220936 14.804718,5.50336485 14.804718,3.85677896 C14.804718,1.35245738 11.7106084,0.00134602806 7.62421103,0.00134602806 C3.53781367,0.00134602806 0.0336327027,1.2074969 0.0336327027,3.71181848 C0.0336327027,5.6733425 0.68347634,6.11186751 2.94334736,6.57053892 C3.56870421,6.69746355 4.58764941,6.76220936 5.47335297,6.76220936 Z" id="path-21"></path>
    </defs>
    <g id="ver-3" stroke="none" stroke-width="1" fill="none" fill-rule="evenodd">
        <g id="neuron_web_landing_under" transform="translate(-211.000000, -1089.000000)">
            <g id="Group" transform="translate(130.000000, 754.000000)">
                <g id="post_preview_medium_dark" transform="translate(0.000000, 300.000000)">
                    <g id="Group" transform="translate(80.000000, 36.000000)">
                        <g id="Construction_icon">
                            <g id="Crane" transform="translate(47.942510, 32.840796) scale(-1, 1) translate(-47.942510, -32.840796) translate(0.742510, 0.000000)" stroke="#43769A" stroke-width="1.17599991">
                                <g id="Base" transform="translate(58.180380, 0.587946)" stroke-linecap="round" stroke-linejoin="round">
                                    <path d="M0.454224091,64.7553578 L7.82276967,64.7553578 C7.82276967,64.7553578 8.99991906,8.54828904 6.64268827,0.507612705 L2.46767148,0.46786618 C2.46767148,0.46786618 -0.848053622,14.9543324 0.454224091,64.7553578 Z" fill-opacity="0.5" fill="#43769A"></path>
                                    <polyline id="Path-2" points="1.52577193 64.7553578 7.828277 58.4500109 0.787936974 52.4016999 8.00648399 46.4532108 0.787936974 39.792933 8.11669086 33.1226949 0.787936974 25.7906365 7.11691193 19.4588078 1.62152061 13.9609387 6.34795068 9.23237748 2.05518543 4.93767663 5.82341923 1.16774374"></polyline>
                                    <polyline id="Path-2" transform="translate(4.452314, 32.961551) scale(-1, 1) translate(-4.452314, -32.961551) " points="1.52577193 64.7553578 7.828277 58.4500109 1.92168383 52.5407545 8.00648399 46.4532108 1.39933347 39.8430811 8.11669086 33.1226949 0.787936974 25.7906365 7.11691193 19.4588078 1.62152061 13.9609387 6.34795068 9.23237748 2.05518543 4.93767663 5.82341923 1.16774374"></polyline>
                                </g>
                                <g id="Front" transform="translate(0.000000, 14.698640)">
                                    <polyline id="Path-3" stroke-linecap="round" stroke-linejoin="round" points="93.4110254 7.66796189 0.25804478 7.66796189 4.72787948 0.394832454 48.6671609 0.545298262 51.775979 6.88712778"></polyline>
                                    <polyline id="Path-4" points="51.4113845 7.39860302 42.6154387 1.17378466 36.2114522 6.8860247 30.3461718 1.49808514 23.4856808 6.63103246 17.1959496 1.64083941 11.1755715 6.50431218 4.622438 1.49808514"></polyline>
                                    <polyline id="Path-4" transform="translate(24.952399, 4.400251) scale(1, -1) translate(-24.952399, -4.400251) " points="48.5267314 7.62671801 42.6154387 1.82292902 36.2114522 7.53516907 30.3461718 2.1472295 23.4856808 7.28017682 17.1959496 2.28998378 11.1755715 7.15345654 1.37806717 1.17378466"></polyline>
                                </g>
                                <polyline id="Top_hodler" points="19.801075 14.8845234 60.4520584 0.573546979 65.1227088 0.573546979 86.738376 15.8557723"></polyline>
                                <g id="Cabin" transform="translate(51.128213, 28.809334)">
                                    <path d="M14.9602903,12.4396866 L3.38283346,12.4396866 C3.38283346,12.4396866 1.03276368,12.6947972 0.427923631,9.4937554 L0.427923631,5.29871985 C0.427923631,5.29871985 0.703890842,0.00221106515 6.183675,0.00221106515 L15.0496666,0.00221106515 L14.9602903,12.4396866 Z" id="Path" fill-opacity="0.5" fill="#43769A"></path>
                                    <path d="M0.747816272,6.96453021 L14.5861216,6.96453021" id="Path-8"></path>
                                    <path d="M7.08151449,0.0731199287 L7.08151449,6.68074201" id="Path-5"></path>
                                </g>
                                <g id="Back" transform="translate(71.697034, 14.698640)">
                                    <rect id="Rectangle" x="0.587999955" y="0.587999955" width="21.1558632" height="6.46729277"></rect>
                                    <polyline id="Path-6" points="0.792012855 0.787356389 7.7872125 7.15767911 14.4972087 1.32477425 21.9445647 7.13009135"></polyline>
                                    <polyline id="Path-6" transform="translate(11.775658, 4.232591) scale(1, -1) translate(-11.775658, -4.232591) " points="1.60675225 1.30750386 7.7872125 7.15767911 14.4972087 1.32477425 21.9445647 7.13009135"></polyline>
                                </g>
                            </g>
                            <g id="Computer" transform="translate(6.990418, 62.322233)">
                                <g id="Keyboard" transform="translate(0.000000, 90.543621)">
                                    <g id="Rectangle-9">
                                        <use fill="#FFFFFF" fill-rule="evenodd" xlink:href="#path-1"></use>
                                        <rect stroke="#43769A" stroke-width="0.734999944" x="3.90288727" y="0.367499972" width="5.15731222" height="2.93378054" rx="1.46689027"></rect>
                                    </g>
                                    <g id="Rectangle-9">
                                        <use fill="#FFFFFF" fill-rule="evenodd" xlink:href="#path-2"></use>
                                        <rect stroke="#43769A" stroke-width="0.734999944" x="12.4467399" y="0.367499972" width="5.15731222" height="2.93378054" rx="1.46689027"></rect>
                                    </g>
                                    <g id="Rectangle-9">
                                        <use fill="#FFFFFF" fill-rule="evenodd" xlink:href="#path-3"></use>
                                        <rect stroke="#43769A" stroke-width="0.734999944" x="20.695977" y="0.367499972" width="5.15731222" height="2.93378054" rx="1.46689027"></rect>
                                    </g>
                                    <g id="Rectangle-9">
                                        <use fill="#FFFFFF" fill-rule="evenodd" xlink:href="#path-4"></use>
                                        <rect stroke="#43769A" stroke-width="0.734999944" x="62.5313933" y="0.367499972" width="5.15731222" height="2.93378054" rx="1.46689027"></rect>
                                    </g>
                                    <g id="Rectangle-9">
                                        <use fill="#FFFFFF" fill-rule="evenodd" xlink:href="#path-5"></use>
                                        <rect stroke="#43769A" stroke-width="0.734999944" x="70.7806304" y="0.367499972" width="5.15731222" height="2.93378054" rx="1.46689027"></rect>
                                    </g>
                                    <g id="Rectangle-9">
                                        <use fill="#FFFFFF" fill-rule="evenodd" xlink:href="#path-6"></use>
                                        <rect stroke="#43769A" stroke-width="0.734999944" x="85.8060264" y="0.367499972" width="5.15731222" height="2.93378054" rx="1.46689027"></rect>
                                    </g>
                                    <g id="Rectangle-9">
                                        <use fill="#FFFFFF" fill-rule="evenodd" xlink:href="#path-7"></use>
                                        <rect stroke="#43769A" stroke-width="0.734999944" x="94.0552634" y="0.367499972" width="5.15731222" height="2.93378054" rx="1.46689027"></rect>
                                    </g>
                                    <g id="Rectangle-9">
                                        <use fill="#FFFFFF" fill-rule="evenodd" xlink:href="#path-8"></use>
                                        <rect stroke="#43769A" stroke-width="0.734999944" x="102.3045" y="0.367499972" width="5.15731222" height="2.93378054" rx="1.46689027"></rect>
                                    </g>
                                    <g id="Rectangle-9">
                                        <use fill="#FFFFFF" fill-rule="evenodd" xlink:href="#path-9"></use>
                                        <rect stroke="#43769A" stroke-width="0.734999944" x="29.5344452" y="0.367499972" width="29.6104077" height="2.93378054" rx="1.46689027"></rect>
                                    </g>
                                    <g id="Rectangle-8">
                                        <use fill="#FFFFFF" fill-rule="evenodd" xlink:href="#path-10"></use>
                                        <path stroke="#43769A" stroke-width="0.734999944" d="M2.54703559,2.3729002 C1.90942946,2.3729002 1.35278798,2.80476224 1.19434183,3.42236761 L0.653050558,5.53226033 C0.623961886,5.64564471 0.609244423,5.76223655 0.609244423,5.87929282 C0.609244423,6.65055841 1.23447872,7.27579271 2.00574432,7.27579271 L109.503643,7.27579271 C109.643786,7.27579271 109.783131,7.25469769 109.916994,7.21321661 C110.6537,6.98492902 111.065854,6.20264733 110.837567,5.46594156 L110.183761,3.35604883 C110.002602,2.77143229 109.461879,2.3729002 108.849837,2.3729002 L2.54703559,2.3729002 Z"></path>
                                    </g>
                                    <path d="M1.03115463,4.73884146 L111.277638,4.73884146" id="Line" stroke="#43769A" stroke-width="0.881999932" stroke-linecap="square"></path>
                                </g>
                                <g id="Monitor" transform="translate(3.526084, 0.000000)">
                                    <g id="Monitor_BG">
                                        <use fill="#FFFFFF" fill-rule="evenodd" xlink:href="#path-11"></use>
                                        <rect stroke="#43769A" stroke-width="0.940799928" x="0.470399964" y="0.470399964" width="103.078668" height="72.4964176" rx="3.99839969"></rect>
                                    </g>
                                    <ellipse id="Oval-2" fill="#43769A" cx="52.3035741" cy="66.4378518" rx="1.76304183" ry="1.76383677"></ellipse>
                                    <ellipse id="Camera" fill="#5F4AB6" cx="51.5379902" cy="2.95165665" rx="1" ry="1"></ellipse>
                                    <g id="Monitor_BG">
                                        <use fill="#D2E4F1" fill-rule="evenodd" xlink:href="#path-12"></use>
                                        <rect stroke="#43769A" stroke-width="0.940799928" x="4.67039996" y="5.51918045" width="93.4079236" height="55.7310078"></rect>
                                    </g>
                                    <use id="Rectangle-3" stroke="#43769A" mask="url(#mask-14)" stroke-width="2.35199982" opacity="0.48658288" stroke-dasharray="2.351999714851388" xlink:href="#path-13"></use>
                                    <g id="Monitor_base" transform="translate(34.673156, 72.963676)">
                                        <g id="Rectangle-7">
                                            <use fill="#FFFFFF" fill-rule="evenodd" xlink:href="#path-15"></use>
                                            <path stroke="#43769A" stroke-width="0.587999955" d="M6.43101294,0.293999977 L5.00406061,13.883361 L29.8418524,12.9736803 L28.2144312,0.293999977 L6.43101294,0.293999977 Z"></path>
                                        </g>
                                        <g id="Rectangle-6">
                                            <use fill="#FFFFFF" fill-rule="evenodd" xlink:href="#path-16"></use>
                                            <rect stroke="#43769A" stroke-width="0.5" x="0.25" y="12.2940355" width="33.2296687" height="1.62519279" rx="0.812596395"></rect>
                                        </g>
                                    </g>
                                    <g id="Monitor_left_group" transform="translate(4.717436, 6.847843)" fill="#43769A">
                                        <g id="Buttons" transform="translate(2.830462, 0.000000)">
                                            <ellipse id="Oval" cx="1.06142314" cy="1.06259639" rx="1.06142314" ry="1.06259639"></ellipse>
                                            <ellipse id="Oval-Copy" cx="3.89188485" cy="1.06259639" rx="1.06142314" ry="1.06259639"></ellipse>
                                            <ellipse id="Oval-Copy-2" cx="6.72234655" cy="1.06259639" rx="1.06142314" ry="1.06259639"></ellipse>
                                        </g>
                                        <rect id="Rectangle" x="-2.55795385e-13" y="3.06972292" width="93.1693645" height="1"></rect>
                                        <g id="Group-2" transform="translate(1.680000, 7.573171)">
                                            <rect id="Rectangle-2" x="0.405587945" y="20.4930242" width="6.11519504" height="1.57079467" rx="0.785397335"></rect>
                                            <rect id="Rectangle-2-Copy-6" x="0.527891846" y="35.9391718" width="9.05048866" height="1.57079467" rx="0.785397335"></rect>
                                            <rect id="Rectangle-2-Copy-4" x="7.743822" y="20.4930242" width="3.66911703" height="1.57079467" rx="0.785397335"></rect>
                                            <rect id="Rectangle-2-Copy-4" x="0.527891846" y="4.26147932" width="9.05048866" height="1.57079467" rx="0.785397335"></rect>
                                            <rect id="Rectangle-2-Copy-4" x="3.58548937" y="8.18846599" width="13.6980369" height="1.57079467" rx="0.785397335"></rect>
                                            <rect id="Rectangle-2-Copy-2" x="0.527891846" y="24.68181" width="5.25906774" height="1.57079467" rx="0.785397335"></rect>
                                            <rect id="Rectangle-2-Copy-2" x="0.650195747" y="0.0726935288" width="6.11519504" height="1.30899556" rx="0.654497779"></rect>
                                            <rect id="Rectangle-2-Copy-2" x="3.70779327" y="39.8661585" width="13.6980369" height="1.30899556" rx="0.654497779"></rect>
                                            <rect id="Rectangle-2-Copy-2" x="19.1180848" y="39.8661585" width="1.95686241" height="1.30899556" rx="0.654497779"></rect>
                                            <rect id="Rectangle-2-Copy-5" x="0.527891846" y="32.0121852" width="6.11519504" height="1.57079467" rx="0.785397335"></rect>
                                            <rect id="Rectangle-2-Copy-3" x="3.58548937" y="16.5660376" width="17.4894578" height="1.57079467" rx="0.785397335"></rect>
                                            <rect id="Rectangle-2-Copy" x="8.5999493" y="12.3772518" width="14.6764681" height="1.57079467" rx="0.785397335"></rect>
                                            <rect id="Rectangle-2-Copy" x="10.9237234" y="35.9391718" width="8.19436136" height="1.57079467" rx="0.785397335"></rect>
                                            <rect id="Rectangle-2-Copy" x="3.58548937" y="12.3772518" width="3.66911703" height="1.57079467" rx="0.785397335"></rect>
                                        </g>
                                    </g>
                                </g>
                            </g>
                            <g id="Floating_window" transform="translate(76.924411, 21.166041)">
                                <mask id="mask-18" fill="white">
                                    <use xlink:href="#path-17"></use>
                                </mask>
                                <g>
                                    <use fill="#E7F1FF" fill-rule="evenodd" xlink:href="#path-17"></use>
                                    <rect stroke="#43769A" stroke-width="1.23479991" x="-0.617399953" y="28.7798796" width="32.9695528" height="45.3307192" rx="1.58759988"></rect>
                                </g>
                                <rect id="Rectangle-4" fill="#D0E6F2" mask="url(#mask-18)" x="-1.4148781" y="28.6843515" width="34.9126728" height="7.31411356"></rect>
                                <g id="Top_bar" mask="url(#mask-18)" fill="#43769A">
                                    <g transform="translate(3.733500, 32.301801)" id="Oval-3">
                                        <ellipse cx="0.800035786" cy="0.792142263" rx="1" ry="1"></ellipse>
                                        <ellipse cx="3.46682174" cy="0.792142263" rx="1" ry="1"></ellipse>
                                        <ellipse cx="6.13360769" cy="0.792142263" rx="1" ry="1"></ellipse>
                                    </g>
                                </g>
                                <g id="Wrtigin_Overlay" mask="url(#mask-18)" fill="#43769A">
                                    <g transform="translate(4.266858, 38.902987)" id="Rectangle-5">
                                        <rect x="0.266678595" y="0" width="11.7338582" height="1" rx="0.5"></rect>
                                        <rect x="0" y="3.6966639" width="19.4675375" height="1" rx="0.5"></rect>
                                        <rect x="0" y="12.1461814" width="13.6006084" height="1" rx="0.5"></rect>
                                        <rect x="14.4006442" y="12.1461814" width="5.33357191" height="1" rx="0.5"></rect>
                                        <rect x="0" y="24.8204576" width="15.2006799" height="1" rx="0.5"></rect>
                                        <rect x="0" y="8.18547005" width="15.2006799" height="1" rx="0.5"></rect>
                                        <rect x="0.266678595" y="21.1237937" width="17.3341087" height="1" rx="0.5"></rect>
                                        <rect x="0.266678595" y="21.1237937" width="17.3341087" height="1" rx="0.5"></rect>
                                        <rect x="5.6002505" y="28.5171215" width="12.8005726" height="1" rx="0.5"></rect>
                                        <rect x="-1.86517468e-14" y="28.5171215" width="5.06689331" height="1" rx="0.5"></rect>
                                    </g>
                                </g>
                                <path d="M15.711641,0.587945591 L15.711641,28.2008249" id="Path-9" stroke="#43769A" stroke-width="1.23479985"></path>
                            </g>
                            <g id="Mouse" transform="translate(124.440304, 152.277908)">
                                <g transform="translate(0.307446, 0.273913)">
                                    <mask id="mask-20" fill="white">
                                        <use xlink:href="#path-19"></use>
                                    </mask>
                                    <use id="Oval-4" stroke="#5F4AB6" stroke-width="0.5" fill="#FFFFFF" xlink:href="#path-19"></use>
                                    <path d="M0.261846364,2.86752721 C0.261846364,2.86752721 7.38524382,6.35958564 14.7662448,2.86752721 C22.1472457,-0.624531211 12.1015401,12.4007161 12.1015401,12.4007161 C12.1015401,12.4007161 -5.29192922,15.1579263 -4.11913645,10.2665977 C-2.94634368,5.37526921 0.261846364,2.86752721 0.261846364,2.86752721 Z" id="Path-2" fill="#E7F7FF" mask="url(#mask-20)"></path>
                                    <mask id="mask-22" fill="white">
                                        <use xlink:href="#path-21"></use>
                                    </mask>
                                    <use id="Oval-4" stroke="#43769A" stroke-width="0.5" xlink:href="#path-21"></use>
                                </g>
                            </g>
                        </g>
                        <g id="Page-1" transform="translate(45.640000, 80.780488)">
                            <polygon id="Fill-2" fill="#43769A" points="0.0767797668 25.2771781 1.37805654 25.2771781 3.4484908 27.9430219 3.4484908 25.2771781 4.82870874 25.2771781 4.82870874 30.3207983 3.60658784 30.3207983 1.45706927 27.5540304 1.45706927 30.3207983 0.0767797668 30.3207983"></polygon>
                            <polygon id="Fill-3" fill="#43769A" points="5.72049342 25.2771781 9.76796373 25.2771781 9.76796373 26.4659586 7.10078292 26.4659586 7.10078292 27.229811 9.51632535 27.229811 9.51632535 28.332157 7.10078292 28.332157 7.10078292 29.1320177 9.80389162 29.1320177 9.80389162 30.3207983 5.72049342 30.3207983"></polygon>
                            <g id="Group-84" transform="translate(0.000000, 0.065992)">
                                <path d="M10.4512092,28.0427696 L10.4512092,25.2111578 L11.8674266,25.2111578 L11.8674266,28.0140059 C11.8674266,28.7417063 12.2341487,29.0875882 12.7948958,29.0875882 C13.3556429,29.0875882 13.7223651,28.7561241 13.7223651,28.0500143 L13.7223651,25.2111578 L15.1385109,25.2111578 L15.1385109,28.0067612 C15.1385109,29.6351747 14.2111132,30.3484574 12.7805103,30.3484574 C11.3499075,30.3484574 10.4512092,29.6206852 10.4512092,28.0427696 Z" id="Fill-4" fill="#43769A"></path>
                                <path d="M18.2804194,27.6321443 C18.7549252,27.6321443 19.028106,27.4015325 19.028106,27.0196422 C19.028106,26.6234059 18.7405397,26.4215578 18.2732624,26.4215578 L17.3602502,26.4215578 L17.3602502,27.6321443 L18.2804194,27.6321443 Z M15.9655753,25.2111865 L18.3451182,25.2111865 C19.1143473,25.2111865 19.646395,25.4130346 19.9842746,25.7515283 C20.2789979,26.0469122 20.429938,26.4360473 20.429938,26.9476253 C20.429938,27.7185789 20.0202741,28.2302287 19.3947566,28.4968489 L20.5953351,30.2548068 L18.9849496,30.2548068 L17.9713107,28.7272456 L17.3602502,28.7272456 L17.3602502,30.2548068 L15.9655753,30.2548068 L15.9655753,25.2111865 Z" id="Fill-6" fill="#43769A"></path>
                                <path d="M24.9594432,27.7330181 C24.9594432,27.0053177 24.4346956,26.3712249 23.6654665,26.3712249 C22.9032513,26.3712249 22.3928891,26.9908283 22.3928891,27.7330181 C22.3928891,28.4607903 22.9176368,29.0948114 23.679852,29.0948114 C24.4490811,29.0948114 24.9594432,28.4751363 24.9594432,27.7330181 M20.9623578,27.7330181 C20.9623578,26.2847186 22.12708,25.1103557 23.679852,25.1103557 C25.2326956,25.1103557 26.3828176,26.2703008 26.3828176,27.7330181 C26.3828176,29.181246 25.2183101,30.3556806 23.6654665,30.3556806 C22.1126945,30.3556806 20.9623578,29.1956637 20.9623578,27.7330181" id="Fill-8" fill="#43769A"></path>
                                <polygon id="Fill-10" fill="#43769A" points="27.1094699 25.2111865 28.4106036 25.2111865 30.4808947 27.8770304 30.4808947 25.2111865 31.8613989 25.2111865 31.8613989 30.2548068 30.6392064 30.2548068 28.4895447 27.4880388 28.4895447 30.2548068 27.1094699 30.2548068"></polygon>
                                <polygon id="Fill-12" fill="#43769A" points="1.04278918 31.5305025 0.0489750135 31.5305025 0.0489750135 31.2425785 2.46795277 31.2425785 2.46795277 31.5305025 1.46934344 31.5305025 1.46934344 33.8653844 1.04278918 33.8653844"></polygon>
                                <polygon id="Fill-14" fill="#43769A" points="4.52345048 32.6357321 3.25330644 32.6357321 3.25330644 33.5812764 4.66880814 33.5812764 4.66880814 33.8653987 2.83154734 33.8653987 2.83154734 31.2425928 4.59616509 31.2425928 4.59616509 31.5267152 3.25330644 31.5267152 3.25330644 32.3554831 4.52345048 32.3554831"></polygon>
                                <path d="M7.49980439,33.7796958 C7.34471327,33.8418857 7.03453103,33.904219 6.63710556,33.904219 C5.71593444,33.904219 5.02278377,33.4373287 5.02278377,32.5773582 C5.02278377,31.7562654 5.71593444,31.1997844 6.72907238,31.1997844 C7.13630287,31.1997844 7.39330897,31.2698646 7.50467112,31.3165608 L7.40289928,31.5929363 C7.24294143,31.5305312 7.0151357,31.483835 6.74367256,31.483835 C5.9777357,31.483835 5.46873336,31.8769869 5.46873336,32.5656662 C5.46873336,33.2076494 5.92928314,33.6201684 6.72427722,33.6201684 C6.98114018,33.6201684 7.24294143,33.5773456 7.4127043,33.5111388 L7.49980439,33.7796958 Z" id="Fill-16" fill="#43769A"></path>
                                <polygon id="Fill-18" fill="#43769A" points="8.44998979 31.2426 8.44998979 32.3399966 10.0303161 32.3399966 10.0303161 31.2426 10.4569419 31.2426 10.4569419 33.8653342 10.0303161 33.8653342 10.0303161 32.6357392 8.44998979 32.6357392 8.44998979 33.8653342 8.02823069 33.8653342 8.02823069 31.2426"></polygon>
                                <path d="M11.189098,33.8653629 L11.189098,31.2426287 L11.6495046,31.2426287 L12.696638,32.5694177 C12.939044,32.8769241 13.1281306,33.1531561 13.2832217,33.4216414 L13.2928836,33.4179114 C13.2540929,33.0675105 13.244431,32.7485274 13.244431,32.3399536 L13.244431,31.2426287 L13.6418565,31.2426287 L13.6418565,33.8653629 L13.2153023,33.8653629 L12.1779023,32.534557 C11.9501681,32.242616 11.7319527,31.9430717 11.5671997,31.6590211 L11.5525995,31.6628228 C11.5768615,31.9935696 11.5865234,32.3088228 11.5865234,32.744654 L11.5865234,33.8653629 L11.189098,33.8653629 Z" id="Fill-20" fill="#43769A"></path>
                                <path d="M14.6357566,32.5693962 C14.6357566,33.1298224 15.0137867,33.6318603 15.6779517,33.6318603 C16.3469835,33.6318603 16.724942,33.1377127 16.724942,32.5422823 C16.724942,32.0208772 16.3857026,31.4760165 15.6828185,31.4760165 C14.9846579,31.4760165 14.6357566,31.9936198 14.6357566,32.5693962 M17.1709632,32.5267169 C17.1709632,33.4293667 16.4874029,33.9080924 15.6536897,33.9080924 C14.7908477,33.9080924 14.1849403,33.3711937 14.1849403,32.5773582 C14.1849403,31.7445017 14.8296384,31.1997844 15.7021422,31.1997844 C16.594113,31.1997844 17.1709632,31.7485186 17.1709632,32.5267169" id="Fill-22" fill="#43769A"></path>
                                <polygon id="Fill-24" fill="#43769A" points="17.7189709 31.2426 18.1406585 31.2426 18.1406585 33.5812835 19.5366933 33.5812835 19.5366933 33.8653342 17.7189709 33.8653342"></polygon>
                                <path d="M20.2638824,32.5693962 C20.2638824,33.1298224 20.6419841,33.6318603 21.3060775,33.6318603 C21.9751093,33.6318603 22.3530679,33.1377127 22.3530679,32.5422823 C22.3530679,32.0208772 22.0137568,31.4760165 21.3108727,31.4760165 C20.6129269,31.4760165 20.2638824,31.9936198 20.2638824,32.5693962 M22.7991606,32.5267169 C22.7991606,33.4293667 22.1155287,33.9080924 21.281887,33.9080924 C20.4190451,33.9080924 19.8129945,33.3711937 19.8129945,32.5773582 C19.8129945,31.7445017 20.4577642,31.1997844 21.3303396,31.1997844 C22.2223104,31.1997844 22.7991606,31.7485186 22.7991606,32.5267169" id="Fill-26" fill="#43769A"></path>
                                <path d="M25.8340083,33.7484574 C25.6447069,33.8030439 25.2715435,33.8926346 24.8305322,33.8926346 C24.3359869,33.8926346 23.928828,33.7914236 23.6089123,33.5462506 C23.3277873,33.3282633 23.1532293,32.9780776 23.1532293,32.5694321 C23.1579528,31.7874321 23.8269846,31.2154574 24.9226422,31.2154574 C25.3006723,31.2154574 25.5963975,31.2814489 25.73696,31.3359637 L25.6351882,31.6122675 C25.460487,31.5500776 25.2425579,31.4994363 24.9128371,31.4994363 C24.1177715,31.4994363 23.5991073,31.8963899 23.5991073,32.5539384 C23.5991073,33.2193772 24.0983762,33.6123857 24.8595894,33.6123857 C25.1359909,33.6123857 25.3249344,33.5812549 25.421911,33.5423055 L25.421911,32.7602338 L24.7576745,32.7602338 L24.7576745,32.4878034 L25.8340083,32.4878034 L25.8340083,33.7484574 Z" id="Fill-28" fill="#43769A"></path>
                                <polygon id="Fill-32" fill="#43769A" points="29.3290336 32.6357321 28.0590327 32.6357321 28.0590327 33.5812764 29.4745344 33.5812764 29.4745344 33.8653987 27.6372736 33.8653987 27.6372736 31.2425928 29.4018913 31.2425928 29.4018913 31.5267152 28.0590327 31.5267152 28.0590327 32.3554831 29.3290336 32.3554831"></polygon>
                                <path d="M29.9642129,33.4527793 C30.1531564,33.5462435 30.4294863,33.6239987 30.7202732,33.6239987 C31.1517658,33.6239987 31.4039767,33.4411591 31.4039767,33.176619 C31.4039767,32.9313025 31.2294902,32.7912857 30.7883358,32.6550705 C30.2549998,32.5033616 29.9254223,32.2815726 29.9254223,31.9119481 C29.9254223,31.5033743 30.3471814,31.1998131 30.9820745,31.1998131 C31.3165903,31.1998131 31.5591394,31.2620747 31.7042823,31.3282097 L31.588125,31.6045135 C31.4814865,31.557889 31.2631995,31.4799903 30.967689,31.4799903 C30.5215963,31.4799903 30.3519765,31.6939608 30.3519765,31.8729987 C30.3519765,32.1181 30.5507966,32.2388215 31.0015414,32.3787667 C31.5542727,32.5501295 31.8352545,32.7640283 31.8352545,33.1492899 C31.8352545,33.5539903 31.4621627,33.9042477 30.6912876,33.9042477 C30.3763102,33.9042477 30.0321324,33.8303658 29.8575744,33.7369017 L29.9642129,33.4527793 Z" id="Fill-33" fill="#43769A"></path>
                                <path d="M14.2493886,9.16056118 C14.2493886,9.48449367 13.9876589,9.74681013 13.6645226,9.74681013 C13.341601,9.74681013 13.0795134,9.48449367 13.0795134,9.16056118 C13.0795134,8.83698734 13.341601,8.57452743 13.6645226,8.57452743 C13.9876589,8.57452743 14.2493886,8.83698734 14.2493886,9.16056118" id="Fill-35" fill="#43769A"></path>
                                <path d="M10.3226059,9.10311983 C10.3226059,9.42705232 10.0608763,9.68944051 9.73773993,9.68944051 C9.41481831,9.68944051 9.15280235,9.42705232 9.15280235,9.10311983 C9.15280235,8.77947426 9.41481831,8.51708608 9.73773993,8.51708608 C10.0608763,8.51708608 10.3226059,8.77947426 10.3226059,9.10311983" id="Fill-36" fill="#43769A"></path>
                                <path d="M8.96904048,4.1039865 C8.96904048,4.42799072 8.7073108,4.69030717 8.38424604,4.69030717 C8.06132443,4.69030717 7.79930847,4.42799072 7.79930847,4.1039865 C7.79930847,3.78041266 8.06132443,3.51795274 8.38424604,3.51795274 C8.7073108,3.51795274 8.96904048,3.78041266 8.96904048,4.1039865" id="Fill-37" fill="#43769A"></path>
                                <path d="M15.0708705,6.85837384 C15.0708705,7.18230633 14.8091409,7.44462278 14.4860045,7.44462278 C14.1630829,7.44462278 13.9009954,7.18230633 13.9009954,6.85837384 C13.9009954,6.5348 14.1630829,6.27234008 14.4860045,6.27234008 C14.8091409,6.27234008 15.0708705,6.5348 15.0708705,6.85837384" id="Fill-38" fill="#43769A"></path>
                                <path d="M14.6902711,0.657304641 C14.6902711,0.981237131 14.4284698,1.24355359 14.1054051,1.24355359 C13.7824834,1.24355359 13.5204675,0.981237131 13.5204675,0.657304641 C13.5204675,0.333730802 13.7824834,0.0711991561 14.1054051,0.0711991561 C14.4284698,0.0711991561 14.6902711,0.333730802 14.6902711,0.657304641" id="Fill-39" fill="#43769A"></path>
                                <path d="M11.0798543,1.94206709 C11.0798543,2.26599958 10.818053,2.52831603 10.4948451,2.52831603 C10.1720666,2.52831603 9.90990753,2.26599958 9.90990753,1.94206709 C9.90990753,1.61849325 10.1720666,1.3559616 10.4948451,1.3559616 C10.818053,1.3559616 11.0798543,1.61849325 11.0798543,1.94206709" id="Fill-40" fill="#43769A"></path>
                                <path d="M13.7581928,3.76301814 C13.7581928,4.08695063 13.4963915,4.34926709 13.1732552,4.34926709 C12.8504051,4.34926709 12.5883176,4.08695063 12.5883176,3.76301814 C12.5883176,3.43937257 12.8504051,3.17691266 13.1732552,3.17691266 C13.4963915,3.17691266 13.7581928,3.43937257 13.7581928,3.76301814" id="Fill-41" fill="#43769A"></path>
                                <path d="M7.86412181,6.29209451 C7.86412181,6.616027 7.60239213,6.87834346 7.27918423,6.87834346 C6.95633419,6.87834346 6.69424665,6.616027 6.69424665,6.29209451 C6.69424665,5.96852068 6.95633419,5.70598903 7.27918423,5.70598903 C7.60239213,5.70598903 7.86412181,5.96852068 7.86412181,6.29209451" id="Fill-42" fill="#43769A"></path>
                                <path d="M10.5641888,11.6427046 C10.5641888,11.9666371 10.3024591,12.2289536 9.97925123,12.2289536 C9.65647275,12.2289536 9.39431365,11.9666371 9.39431365,11.6427046 C9.39431365,11.3190591 9.65647275,11.0566709 9.97925123,11.0566709 C10.3024591,11.0566709 10.5641888,11.3190591 10.5641888,11.6427046" id="Fill-43" fill="#43769A"></path>
                                <path d="M8.09665114,11.4859675 C8.09665114,11.8099 7.83484988,12.0722882 7.51178513,12.0722882 C7.18886352,12.0722882 6.92684755,11.8099 6.92684755,11.4859675 C6.92684755,11.1623937 7.18886352,10.8999338 7.51178513,10.8999338 C7.83484988,10.8999338 8.09665114,11.1623937 8.09665114,11.4859675" id="Fill-44" fill="#43769A"></path>
                                <path d="M6.59274678,9.01870802 C6.59274678,9.34264051 6.33101709,9.60495696 6.00788077,9.60495696 C5.68495916,9.60495696 5.42294319,9.34264051 5.42294319,9.01870802 C5.42294319,8.69506245 5.68495916,8.43260253 6.00788077,8.43260253 C6.33101709,8.43260253 6.59274678,8.69506245 6.59274678,9.01870802" id="Fill-45" fill="#43769A"></path>
                                <path d="M15.0826795,11.9206224 C15.0826795,12.2445549 14.8208783,12.5068713 14.4977419,12.5068713 C14.1748919,12.5068713 13.9128044,12.2445549 13.9128044,11.9206224 C13.9128044,11.5970485 14.1748919,11.3345169 14.4977419,11.3345169 C14.8208783,11.3345169 15.0826795,11.5970485 15.0826795,11.9206224" id="Fill-46" fill="#43769A"></path>
                                <path d="M13.0394202,14.3858878 C13.0394202,14.7098203 12.7776905,14.9721367 12.4546258,14.9721367 C12.1317041,14.9721367 11.8696882,14.7098203 11.8696882,14.3858878 C11.8696882,14.0622422 12.1317041,13.7997823 12.4546258,13.7997823 C12.7776905,13.7997823 13.0394202,14.0622422 13.0394202,14.3858878" id="Fill-47" fill="#43769A"></path>
                                <path d="M15.0826795,16.2439949 C15.0826795,16.5679992 14.8208783,16.8303156 14.4977419,16.8303156 C14.1748919,16.8303156 13.9128044,16.5679992 13.9128044,16.2439949 C13.9128044,15.9204211 14.1748919,15.6579612 14.4977419,15.6579612 C14.8208783,15.6579612 15.0826795,15.9204211 15.0826795,16.2439949" id="Fill-48" fill="#43769A"></path>
                                <path d="M11.6050241,16.1567857 C11.6050241,16.4807181 11.3432945,16.7430346 11.0200866,16.7430346 C10.6972365,16.7430346 10.435149,16.4807181 10.435149,16.1567857 C10.435149,15.8331401 10.6972365,15.5706802 11.0200866,15.5706802 C11.3432945,15.5706802 11.6050241,15.8331401 11.6050241,16.1567857" id="Fill-49" fill="#43769A"></path>
                                <path d="M8.01249971,18.3364224 C8.01249971,18.6604266 7.75077003,18.9228148 7.42756213,18.9228148 C7.10471209,18.9228148 6.84262456,18.6604266 6.84262456,18.3364224 C6.84262456,18.0129203 7.10471209,17.7504603 7.42756213,17.7504603 C7.75077003,17.7504603 8.01249971,18.0129203 8.01249971,18.3364224" id="Fill-50" fill="#43769A"></path>
                                <path d="M10.7652347,13.9737489 C10.7652347,14.2976814 10.503505,14.5600696 10.1802971,14.5600696 C9.85744709,14.5600696 9.59535955,14.2976814 9.59535955,13.9737489 C9.59535955,13.6501034 9.85744709,13.3877152 10.1802971,13.3877152 C10.503505,13.3877152 10.7652347,13.6501034 10.7652347,13.9737489" id="Fill-51" fill="#43769A"></path>
                                <path d="M6.6882205,14.5303949 C6.6882205,14.8543274 6.42641925,15.1166439 6.10342606,15.1166439 C5.78043288,15.1166439 5.51848848,14.8543274 5.51848848,14.5303949 C5.51848848,14.2068211 5.78043288,13.9443612 6.10342606,13.9443612 C6.42641925,13.9443612 6.6882205,14.2068211 6.6882205,14.5303949" id="Fill-52" fill="#43769A"></path>
                                <path d="M11.8669471,18.3342561 C11.8669471,18.6581886 11.6052174,18.9205051 11.2820811,18.9205051 C10.9591594,18.9205051 10.6971435,18.6581886 10.6971435,18.3342561 C10.6971435,18.0106105 10.9591594,17.7482224 11.2820811,17.7482224 C11.6052174,17.7482224 11.8669471,18.0106105 11.8669471,18.3342561" id="Fill-53" fill="#43769A"></path>
                                <path d="M11.0200937,21.2261857 C11.0200937,21.5501181 10.758364,21.8124346 10.4351561,21.8124346 C10.1123061,21.8124346 9.85021857,21.5501181 9.85021857,21.2261857 C9.85021857,20.9026118 10.1123061,20.6401519 10.4351561,20.6401519 C10.758364,20.6401519 11.0200937,20.9026118 11.0200937,21.2261857" id="Fill-54" fill="#43769A"></path>
                                <path d="M15.067335,20.7696388 C15.067335,21.0937148 14.8055338,21.3559595 14.4823974,21.3559595 C14.1595474,21.3559595 13.8974599,21.0937148 13.8974599,20.7696388 C13.8974599,20.446065 14.1595474,20.1836051 14.4823974,20.1836051 C14.8055338,20.1836051 15.067335,20.446065 15.067335,20.7696388" id="Fill-55" fill="#43769A"></path>
                                <polygon id="Fill-56" fill="#43769A" points="7.56155457 18.4981662 7.54230237 18.2532802 8.85875187 18.1485544 11.018147 16.0960017 14.711563 16.0960017 14.711563 16.3416768 11.1159825 16.3416768 8.96460317 18.3864827"></polygon>
                                <polygon id="Fill-57" fill="#43769A" points="11.7288394 7.83324135 11.5137015 7.73138481 9.82129733 6.87019494 8.14971993 6.92607257 7.06393894 6.11839325 7.20994074 5.92120759 8.22708657 6.67767173 9.876048 6.62258312 11.864893 7.63454937"></polygon>
                                <polygon id="Fill-58" fill="#43769A" points="9.87606947 6.6225903 9.49760992 4.71450169 8.45963736 4.16677173 8.5738623 3.94942996 9.71389297 4.55102911 10.2357778 6.85851013"></polygon>
                                <polyline id="Fill-59" fill="#43769A" points="15.0508096 6.80461224 11.6104634 7.88034641 11.542043 7.64442658 14.1924765 6.79916076"></polyline>
                                <polygon id="Fill-60" fill="#43769A" points="18.2933448 2.7890616 16.5980779 1.45007848 16.5934975 0.0661206751 19.0644347 0.0631797468 21.8600828 2.30796878 21.7142241 2.50551308 18.9819151 0.34622616 16.8573743 0.340200844 16.8573743 1.34205316 18.4450722 2.59610802"></polygon>
                                <path d="M16.7206336,7.51717764 L16.7206336,5.92355316 L16.9658307,5.92355316 L16.9658307,7.10530422 C17.2997024,6.92246456 18.0060935,6.52995823 18.2950196,6.3258865 L18.4362262,6.52673038 C18.0412341,6.80568819 16.9475089,7.39509325 16.9012034,7.42005527 L16.7206336,7.51717764 Z" id="Fill-61" fill="#43769A"></path>
                                <polygon id="Fill-62" fill="#43769A" points="19.3900259 19.1185586 16.7206264 17.055103 16.7206264 8.64225485 20.2502913 6.13694262 20.4614214 6.34840253 16.9658235 8.7822 16.9658235 16.9343814 19.5396061 18.9240987"></polygon>
                                <polygon id="Fill-63" fill="#43769A" points="17.668722 20.570703 16.7184221 19.6990405 16.7206407 18.4863738 17.49581 17.7231671 17.6881173 17.8781755 16.9601839 18.593897 16.9694879 19.5963232 17.8342622 20.3893696"></polygon>
                                <polyline id="Fill-64" fill="#43769A" points="22.0065784 19.2711211 22.0065784 21.2712392 21.0657972 21.9703911 19.0294301 21.9703911 19.0294301 21.7247878 20.9849953 21.7247878 21.7614528 21.1475768 21.7614528 19.2711211"></polyline>
                                <polygon id="Fill-65" fill="#43769A" points="22.078563 15.7164283 19.2600843 13.048289 19.271106 11.0950105 19.6716089 10.2506055 22.9047614 10.2506055 22.9047614 11.8724916 22.6596358 11.8724916 22.6596358 10.4963523 19.8264853 10.4963523 19.5162315 11.1505295 19.5162315 12.9214705 22.2576299 15.5168038"></polygon>
                                <polygon id="Fill-66" fill="#43769A" points="22.8444426 20.4975025 22.6906397 20.3061987 24.7224265 18.6647304 24.7224265 14.1350553 23.8111319 12.8079793 23.8092711 8.36495401 22.3448875 8.36495401 21.2723468 9.28065865 21.1134625 9.09373038 22.2545667 8.11935063 24.0543967 8.11935063 24.0564006 12.7317304 24.967552 14.0587346 24.967552 18.7822241"></polygon>
                                <polygon id="Fill-67" fill="#43769A" points="22.1084075 18.207043 19.2632333 15.3390641 18.3674694 15.3390641 18.3674694 16.9014861 18.1224154 16.9014861 18.1224154 15.0933173 19.3602816 15.0933173 22.276238 18.0278616"></polygon>
                                <polygon id="Fill-68" fill="#43769A" points="25.7581732 16.9895274 25.5130477 16.9895274 25.5130477 14.9283671 26.2210848 14.1561941 26.2210848 13.3312996 25.8071983 12.91627 25.8071983 10.9921857 26.0522523 10.9921857 26.0522523 12.814557 26.4662103 13.2295865 26.4662103 14.2807173 25.7581732 15.052962"></polygon>
                                <polygon id="Fill-69" fill="#43769A" points="24.979089 11.2285072 24.8274333 11.035697 25.694641 10.3506042 25.694641 8.63446498 24.8448246 8.55735527 23.1351723 6.68233418 23.1351723 4.76829198 23.3802978 4.76829198 23.3802978 6.58700506 24.9616977 8.32122025 25.9398381 8.41009367 25.9398381 10.4697477"></polygon>
                                <polygon id="Fill-70" fill="#43769A" points="18.3751202 12.9833304 18.129923 12.9833304 18.129923 9.32187468 21.4620561 7.12865949 21.4620561 5.39236414 19.966325 4.22926287 19.966325 2.79287046 17.5218685 0.976954852 17.6753851 0.785364135 20.2114506 2.67494641 20.2114506 4.10904346 21.7071817 5.272073 21.7071817 7.26128819 18.3751202 9.45443165"></polygon>
                                <polygon id="Fill-71" fill="#43769A" points="25.3728573 8.0113038 25.1276602 8.0113038 25.1276602 6.71535865 23.8998853 5.75066245 23.8998853 4.70405063 24.145154 4.70405063 24.145154 5.63101688 25.3728573 6.59571308"></polygon>
                                <polygon id="Fill-72" fill="#43769A" points="23.4214718 4.42291224 21.997668 4.42291224 21.997668 2.77312321 22.2427936 2.77312321 22.2427936 4.17723713 23.4214718 4.17723713"></polygon>
                                <polyline id="Stroke-73" stroke="#43769A" stroke-width="0.5" points="9.97926554 11.6428122 13.6774767 9.16066878 14.5353803 11.9206941 12.4544969 14.385981"></polyline>
                                <polyline id="Stroke-74" stroke="#43769A" stroke-width="0.5" points="10.4351705 21.2262502 11.2820524 18.3072713 14.4823545 20.7698325"></polyline>
                                <polyline id="Stroke-75" stroke="#43769A" stroke-width="0.5" points="11.0200937 16.2441743 10.1802971 13.9908494 6.10341175 14.5600266"></polyline>
                                <path d="M6.00781636,8.96224937 L7.54233815,11.4861397" id="Stroke-76" stroke="#43769A" stroke-width="0.5"></path>
                                <path d="M11.798133,7.69296624 L9.97926554,8.91596203" id="Stroke-77" stroke="#43769A" stroke-width="0.5"></path>
                                <polyline id="Stroke-78" stroke="#43769A" stroke-width="0.5" points="10.4948594 1.94217468 13.1732051 3.76311139 14.1053263 0.657419409"></polyline>
                                <path d="M13.1930799,3.69696203 L14.4859831,6.88435443" id="Stroke-79" stroke="#43769A" stroke-width="0.5"></path>
                                <path d="M18.2072396,4.05021772 C17.8949818,4.05021772 17.6409816,4.30478734 17.6409816,4.61774515 C17.6409816,4.93063122 17.8949818,5.18520084 18.2072396,5.18520084 C18.5193542,5.18520084 18.7733544,4.93063122 18.7733544,4.61774515 C18.7733544,4.30478734 18.5193542,4.05021772 18.2072396,4.05021772 M18.2072396,5.57361857 C17.6812753,5.57361857 17.2533612,5.14481688 17.2533612,4.61774515 C17.2533612,4.09060169 17.6812753,3.66172827 18.2072396,3.66172827 C18.7331323,3.66172827 19.1609748,4.09060169 19.1609748,4.61774515 C19.1609748,5.14481688 18.7331323,5.57361857 18.2072396,5.57361857" id="Fill-80" fill="#43769A"></path>
                                <path d="M21.1280341,11.4027895 C20.8157763,11.4027895 20.5617761,11.6572873 20.5617761,11.9703169 C20.5617761,12.283203 20.8157763,12.5377726 21.1280341,12.5377726 C21.4401487,12.5377726 21.6941489,12.283203 21.6941489,11.9703169 C21.6941489,11.6572873 21.4401487,11.4027895 21.1280341,11.4027895 M21.1280341,12.9261903 C20.6019982,12.9261903 20.1741557,12.4973169 20.1741557,11.9703169 C20.1741557,11.4431017 20.6019982,11.0143 21.1280341,11.0143 C21.6539268,11.0143 22.0817693,11.4431017 22.0817693,11.9703169 C22.0817693,12.4973169 21.6539268,12.9261903 21.1280341,12.9261903" id="Fill-81" fill="#43769A"></path>
                                <path d="M23.4197899,16.7743376 C23.1075321,16.7743376 22.8535319,17.0289072 22.8535319,17.341865 C22.8535319,17.6548228 23.1075321,17.9092489 23.4197899,17.9092489 C23.7319045,17.9092489 23.9859047,17.6548228 23.9859047,17.341865 C23.9859047,17.0289072 23.7319045,16.7743376 23.4197899,16.7743376 M23.4197899,18.2978819 C22.8938256,18.2978819 22.4659115,17.8690084 22.4659115,17.341865 C22.4659115,16.8147215 22.8938256,16.3858481 23.4197899,16.3858481 C23.9456826,16.3858481 24.3735251,16.8147215 24.3735251,17.341865 C24.3735251,17.8690084 23.9456826,18.2978819 23.4197899,18.2978819" id="Fill-82" fill="#43769A"></path>
                                <path d="M20.3191698,19.8694063 C20.0069121,19.8694063 19.7529119,20.1239759 19.7529119,20.4370055 C19.7529119,20.7498198 20.0069121,21.0043895 20.3191698,21.0043895 C20.6312844,21.0043895 20.8852846,20.7498198 20.8852846,20.4370055 C20.8852846,20.1239759 20.6312844,19.8694063 20.3191698,19.8694063 M20.3191698,21.3928072 C19.7932055,21.3928072 19.3652914,20.9640055 19.3652914,20.4370055 C19.3652914,19.9097903 19.7932055,19.4809169 20.3191698,19.4809169 C20.8450626,19.4809169 21.2729766,19.9097903 21.2729766,20.4370055 C21.2729766,20.9640055 20.8450626,21.3928072 20.3191698,21.3928072" id="Fill-83" fill="#43769A"></path>
                            </g>
                        </g>
                    </g>
                </g>
            </g>
        </g>
    </g>
</svg>