<svg width="18" height="18" viewBox="0 0 18 18" fill="none" xmlns="http://www.w3.org/2000/svg">
<path d="M8.99982 0C4.03736 0 0 4.0374 0 9C0 13.9626 4.03736 18 8.99982 18C13.9626 18 18 13.9626 18 9C18 4.0374 13.9626 0 8.99982 0ZM8.99982 16.8197C4.68842 16.8197 1.18035 13.3117 1.18035 9C1.18035 4.68824 4.68842 1.1804 8.99982 1.1804C13.3115 1.1804 16.8196 4.68828 16.8196 9C16.8196 13.3117 13.3115 16.8197 8.99982 16.8197Z" fill="white"/>
<path d="M8.9999 4.1123C7.41698 4.1123 6.12939 5.40002 6.12939 6.98299C6.12939 7.30892 6.39359 7.57316 6.71948 7.57316C7.04555 7.57316 7.30974 7.30888 7.30974 6.98299C7.30974 6.05104 8.0679 5.2927 8.9999 5.2927C9.93225 5.2927 10.6904 6.05104 10.6904 6.98299C10.6904 7.91512 9.93216 8.67346 8.9999 8.67346C8.67401 8.67346 8.40981 8.93774 8.40981 9.26359V11.3194C8.40981 11.6453 8.67401 11.9095 8.9999 11.9095C9.32579 11.9095 9.59016 11.6453 9.59016 11.3194V9.79215C10.8909 9.51928 11.8708 8.36359 11.8708 6.98294C11.8708 5.40002 10.583 4.1123 8.9999 4.1123Z" fill="white"/>
<path d="M9.00008 12.3184C8.59121 12.3184 8.25916 12.6501 8.25916 13.0591C8.25916 13.4682 8.59121 13.8001 9.00008 13.8001C9.40931 13.8001 9.74064 13.4682 9.74064 13.0591C9.74064 12.6501 9.40931 12.3184 9.00008 12.3184Z" fill="white"/>
</svg>
