<?xml version="1.0" encoding="UTF-8"?>
<svg width="20px" height="20px" viewBox="0 0 20 20" version="1.1" xmlns="http://www.w3.org/2000/svg" xmlns:xlink="http://www.w3.org/1999/xlink">
    <!-- Generator: sketchtool 47.1 (45422) - http://www.bohemiancoding.com/sketch -->
    <title>F736DED3-5821-4A8C-81AF-25BC0C51CE66</title>
    <desc>Created with sketchtool.</desc>
    <defs></defs>
    <g id="ver-3" stroke="none" stroke-width="1" fill="none" fill-rule="evenodd">
        <g id="neuron_web_products" transform="translate(-431.000000, -391.000000)" fill="#43C8F1">
            <g id="post_preview_medium_dark" transform="translate(130.000000, 152.000000)">
                <g id="Group-5" transform="translate(300.000000, 46.000000)">
                    <g id="Group-4" transform="translate(0.000000, 192.000000)">
                        <g id="internet">
                            <g id="Group" transform="translate(0.500000, 0.333333)">
                                <path d="M10.5,20.6666667 C4.9771525,20.6666667 0.5,16.1895142 0.5,10.6666667 C0.5,5.14381917 4.9771525,0.666666667 10.5,0.666666667 C16.0228475,0.666666667 20.5,5.14381917 20.5,10.6666667 C20.5,16.1895142 16.0228475,20.6666667 10.5,20.6666667 Z M4.28200131,11.6715201 L3.64671479,9.02472527 L3.00448819,9.02472527 L4.09453631,13.1632326 L4.61874016,13.1632326 L5.34773841,10.6120421 L5.50395232,9.87380952 L5.51434164,9.87380952 L5.67749563,10.6120421 L6.42037402,13.1632326 L6.94112861,13.1632326 L8.03117673,9.02472527 L7.39239939,9.02472527 L6.78487314,11.6715201 L6.66685039,12.2988095 L6.65646107,12.2988095 L6.53494751,11.6715201 L5.77814742,9.02472527 L5.25743438,9.02472527 L4.50067585,11.6715201 L4.38610236,12.2490842 L4.37571304,12.2452381 L4.28200131,11.6715201 Z M9.66284121,11.6715201 L9.02747157,9.02472527 L8.38524497,9.02472527 L9.47529309,13.1632326 L9.99949694,13.1632326 L10.7284952,10.6120421 L10.8847507,9.87380952 L10.89514,9.87380952 L11.058294,10.6120421 L11.8012139,13.1632326 L12.3219685,13.1632326 L13.4119751,9.02472527 L12.7732808,9.02472527 L12.1657546,11.6715201 L12.0477318,12.2988095 L12.0372594,12.2988095 L11.915829,11.6715201 L11.1590289,9.02472527 L10.6382743,9.02472527 L9.88151575,11.6715201 L9.76694226,12.2490842 L9.75655293,12.2452381 L9.66284121,11.6715201 Z M15.0436811,11.6715201 L14.4084361,9.02472527 L13.7662095,9.02472527 L14.8562577,13.1632326 L15.3804199,13.1632326 L16.1094598,10.6120421 L16.2656737,9.87380952 L16.2761045,9.87380952 L16.4392585,10.6120421 L17.1821785,13.1632326 L17.7028915,13.1632326 L18.7928981,9.02472527 L18.1541623,9.02472527 L17.546636,11.6715201 L17.4286133,12.2988095 L17.4181824,12.2988095 L17.2967104,11.6715201 L16.5399103,9.02472527 L16.0191973,9.02472527 L15.2623972,11.6715201 L15.1478237,12.2490842 L15.1373928,12.2452381 L15.0436811,11.6715201 Z" id="Combined-Shape"></path>
                            </g>
                        </g>
                    </g>
                </g>
            </g>
        </g>
    </g>
</svg>