<?xml version="1.0" encoding="UTF-8"?>
<svg width="133px" height="51px" viewBox="0 0 133 51" version="1.1" xmlns="http://www.w3.org/2000/svg" xmlns:xlink="http://www.w3.org/1999/xlink">
    <!-- Generator: sketchtool 47.1 (45422) - http://www.bohemiancoding.com/sketch -->
    <title>F49ED7EA-AFC6-4F7E-AEEF-BE0F20C02028</title>
    <desc>Created with sketchtool.</desc>
    <defs></defs>
    <g id="ver-3" stroke="none" stroke-width="1" fill="none" fill-rule="evenodd">
        <g id="neuron_mobile_landing" transform="translate(-94.000000, -17.000000)">
            <g id="logo" transform="translate(94.000000, 17.000000)">
                <polygon id="Fill-2" fill="#FFFFFF" points="58.8 14.6202698 61.8248978 14.6202698 66.6377493 20.7683332 66.6377493 14.6202698 69.8461507 14.6202698 69.8461507 26.2520451 67.0052556 26.2520451 62.0085677 19.8712271 62.0085677 26.2520451 58.8 26.2520451"></polygon>
                <polygon id="Fill-3" fill="#FFFFFF" points="72.1 14.6202698 81.5085933 14.6202698 81.5085933 17.3618776 75.3085677 17.3618776 75.3085677 19.1235008 80.9236444 19.1235008 80.9236444 21.6657701 75.3085677 21.6657701 75.3085677 23.5104373 81.5921099 23.5104373 81.5921099 26.2520451 72.1 26.2520451"></polygon>
                <path d="M83.3,21.150633 L83.3,14.6202698 L86.5920843,14.6202698 L86.5920843,21.0842971 C86.5920843,22.7625456 87.4445525,23.5602305 88.7480435,23.5602305 C90.0515345,23.5602305 90.9040027,22.7957962 90.9040027,21.1673411 L90.9040027,14.6202698 L94.1959206,14.6202698 L94.1959206,21.0675891 C94.1959206,24.8230939 92.0401278,26.4680916 88.7146036,26.4680916 C85.3890794,26.4680916 83.3,24.7896778 83.3,21.150633 Z" id="Fill-4" fill="#FFFFFF"></path>
                <path d="M101.280997,20.2035682 C102.384015,20.2035682 103.019041,19.6717231 103.019041,18.7909942 C103.019041,17.8771801 102.350575,17.4116709 101.264361,17.4116709 L99.1420076,17.4116709 L99.1420076,20.2035682 L101.280997,20.2035682 Z M95.9,14.6202698 L101.431394,14.6202698 C103.219514,14.6202698 104.456291,15.085779 105.241713,15.8664251 C105.926816,16.54765 106.277685,17.445087 106.277685,18.6249064 C106.277685,20.4029068 105.325396,21.5828916 103.871343,22.1977806 L106.662161,26.2520451 L102.918721,26.2520451 L100.562455,22.7291295 L99.1420076,22.7291295 L99.1420076,26.2520451 L95.9,26.2520451 L95.9,14.6202698 Z" id="Fill-6" fill="#FFFFFF"></path>
                <path d="M117.09147,20.6687466 C117.09147,18.9904982 115.871662,17.5281309 114.083542,17.5281309 C112.311726,17.5281309 111.125358,18.9570821 111.125358,20.6687466 C111.125358,22.3471605 112.345166,23.8093623 114.116982,23.8093623 C115.905102,23.8093623 117.09147,22.3802457 117.09147,20.6687466 M107.8,20.6687466 C107.8,17.328627 110.507468,14.6202698 114.116982,14.6202698 C117.726662,14.6202698 120.400191,17.2953763 120.400191,20.6687466 C120.400191,24.0087009 117.693222,26.7172234 114.083542,26.7172234 C110.474028,26.7172234 107.8,24.0419515 107.8,20.6687466" id="Fill-8" fill="#FFFFFF"></path>
                <polygon id="Fill-10" fill="#FFFFFF" points="121.8 14.6202698 124.824565 14.6202698 129.637084 20.7683332 129.637084 14.6202698 132.846151 14.6202698 132.846151 26.2520451 130.005089 26.2520451 125.008069 19.8712271 125.008069 26.2520451 121.8 26.2520451"></polygon>
                <polygon id="Fill-12" fill="#FFFFFF" points="61.1101821 29.2568932 58.8 29.2568932 58.8 28.5928725 64.4230623 28.5928725 64.4230623 29.2568932 62.1017336 29.2568932 62.1017336 34.6416802 61.1101821 34.6416802"></polygon>
                <polygon id="Fill-14" fill="#FFFFFF" points="69.7329327 31.8057795 66.7804049 31.8057795 66.7804049 33.9864272 70.0708256 33.9864272 70.0708256 34.6416802 65.8 34.6416802 65.8 28.5928725 69.9019623 28.5928725 69.9019623 29.2481256 66.7804049 29.2481256 66.7804049 31.1594595 69.7329327 31.1594595"></polygon>
                <path d="M76.4579865,34.5427554 C76.0974677,34.6861798 75.37643,34.8299352 74.4525901,34.8299352 C72.3112713,34.8299352 70.7,33.7531763 70.7,31.769882 C70.7,29.8762487 72.3112713,28.5928725 74.6663726,28.5928725 C75.6130049,28.5928725 76.2104314,28.7544939 76.4692996,28.8621863 L76.2327247,29.4995733 C75.8608928,29.3556526 75.3313444,29.2479601 74.7003117,29.2479601 C72.9198444,29.2479601 71.7366372,30.154661 71.7366372,31.7429175 C71.7366372,33.2234817 72.8072135,34.1748476 74.655226,34.1748476 C75.2523197,34.1748476 75.8608928,34.0760882 76.255517,33.9233998 L76.4579865,34.5427554 Z" id="Fill-16" fill="#FFFFFF"></path>
                <polygon id="Fill-18" fill="#FFFFFF" points="78.6804049 28.5928725 78.6804049 31.1237274 82.3539704 31.1237274 82.3539704 28.5928725 83.3456883 28.5928725 83.3456883 34.6415148 82.3539704 34.6415148 82.3539704 31.8057795 78.6804049 31.8057795 78.6804049 34.6415148 77.7 34.6415148 77.7 28.5928725"></polygon>
                <path d="M84.7,34.6415148 L84.7,28.5928725 L85.7702435,28.5928725 L88.2043695,31.6527603 C88.767857,32.3619423 89.2074004,32.9989984 89.5679193,33.6181885 L89.5903789,33.6095864 C89.5002076,32.8014796 89.477748,32.0658294 89.477748,31.123562 L89.477748,28.5928725 L90.4015879,28.5928725 L90.4015879,34.6415148 L89.4100363,34.6415148 L86.9985363,31.5723632 C86.4691543,30.8990787 85.9618991,30.208259 85.5789206,29.5531714 L85.5449816,29.561939 C85.6013803,30.324719 85.6238399,31.051767 85.6238399,32.0568964 L85.6238399,34.6415148 L84.7,34.6415148 Z" id="Fill-20" fill="#FFFFFF"></path>
                <path d="M92.7479502,31.7515197 C92.7479502,33.0439943 93.6267045,34.201812 95.1705969,34.201812 C96.7258022,34.201812 97.6043901,33.0621912 97.6043901,31.6889886 C97.6043901,30.4865058 96.8158072,29.2299287 95.1819099,29.2299287 C93.5589928,29.2299287 92.7479502,30.4236439 92.7479502,31.7515197 M98.6411937,31.6530911 C98.6411937,33.734814 97.0522157,34.8388682 95.1141982,34.8388682 C93.1084691,34.8388682 91.7,33.6006534 91.7,31.769882 C91.7,29.8491188 93.1986404,28.5928725 95.2268291,28.5928725 C97.30027,28.5928725 98.6411937,29.8583827 98.6411937,31.6530911" id="Fill-22" fill="#FFFFFF"></path>
                <polygon id="Fill-24" fill="#FFFFFF" points="100.1 28.5928725 101.080239 28.5928725 101.080239 33.9864272 104.325407 33.9864272 104.325407 34.6415148 100.1 34.6415148"></polygon>
                <path d="M106.048117,31.7515197 C106.048117,33.0439943 106.927037,34.201812 108.470763,34.201812 C110.025969,34.201812 110.904557,33.0621912 110.904557,31.6889886 C110.904557,30.4865058 110.115807,29.2299287 108.48191,29.2299287 C106.859492,29.2299287 106.048117,30.4236439 106.048117,31.7515197 M111.941526,31.6530911 C111.941526,33.734814 110.352382,34.8388682 108.414531,34.8388682 C106.408802,34.8388682 105,33.6006534 105,31.769882 C105,29.8491188 106.498807,28.5928725 108.527162,28.5928725 C110.600603,28.5928725 111.941526,29.8583827 111.941526,31.6530911" id="Fill-26" fill="#FFFFFF"></path>
                <path d="M118.931635,34.4345667 C118.491593,34.560456 117.624152,34.7670732 116.598994,34.7670732 C115.449393,34.7670732 114.502927,34.5336569 113.759263,33.9682303 C113.105771,33.4655002 112.7,32.6578897 112.7,31.7154568 C112.71098,29.9119808 114.266186,28.5928725 116.813109,28.5928725 C117.691863,28.5928725 118.379295,28.7450646 118.706041,28.8707885 L118.469466,29.5080101 C118.063362,29.3645856 117.556773,29.2477947 116.790317,29.2477947 C114.942138,29.2477947 113.736471,30.1632631 113.736471,31.6797248 C113.736471,33.2143833 114.897052,34.1207532 116.666539,34.1207532 C117.309051,34.1207532 117.748262,34.0489583 117.97369,33.9591319 L117.97369,32.1554904 L116.429631,32.1554904 L116.429631,31.5272018 L118.931635,31.5272018 L118.931635,34.4345667 Z" id="Fill-28" fill="#FFFFFF"></path>
                <polygon id="Fill-30" fill="#FFFFFF" points="120.4 34.6415148 121.380072 34.6415148 121.380072 28.5928725 120.4 28.5928725"></polygon>
                <polygon id="Fill-32" fill="#FFFFFF" points="127.1326 31.8057795 124.180405 31.8057795 124.180405 33.9864272 127.470826 33.9864272 127.470826 34.6416802 123.2 34.6416802 123.2 28.5928725 127.301962 28.5928725 127.301962 29.2481256 124.180405 29.2481256 124.180405 31.1594595 127.1326 31.1594595"></polygon>
                <path d="M128.347888,33.7887429 C128.787099,34.0042932 129.429444,34.1836152 130.105396,34.1836152 C131.108427,34.1836152 131.694707,33.7619439 131.694707,33.1518522 C131.694707,32.5860947 131.289103,32.2631828 130.263612,31.9490385 C129.02384,31.5991622 128.257717,31.0876645 128.257717,30.2352235 C128.257717,29.2929561 129.238122,28.5928725 130.71397,28.5928725 C131.491572,28.5928725 132.055392,28.7364625 132.392786,28.8889854 L132.122771,29.526207 C131.874883,29.41868 131.367462,29.2390271 130.68053,29.2390271 C129.64356,29.2390271 129.249268,29.7324934 129.249268,30.1453971 C129.249268,30.7106583 129.711438,30.9890705 130.759222,31.311817 C132.044079,31.7070201 132.697239,32.2003209 132.697239,33.0888248 C132.697239,34.0221592 131.829964,34.8299352 130.038017,34.8299352 C129.305833,34.8299352 128.505771,34.6595462 128.1,34.4439959 L128.347888,33.7887429 Z" id="Fill-33" fill="#FFFFFF"></path>
                <polygon id="Fill-34" fill="#FFFFFF" points="23.8 46.7748504 24.6814161 46.7748504 24.6814161 2.09589041 23.8 2.09589041"></polygon>
                <path d="M20.5235787,21.1131758 C20.5235787,21.8602404 19.915172,22.4652039 19.1640218,22.4652039 C18.4133707,22.4652039 17.8041321,21.8602404 17.8041321,21.1131758 C17.8041321,20.3669384 18.4133707,19.7616441 19.1640218,19.7616441 C19.915172,19.7616441 20.5235787,20.3669384 20.5235787,21.1131758" id="Fill-35" fill="#FFFFFF"></path>
                <path d="M11.3955313,20.9807026 C11.3955313,21.7277671 10.7871246,22.332896 10.0359744,22.332896 C9.28532327,22.332896 8.67625108,21.7277671 8.67625108,20.9807026 C8.67625108,20.2342997 9.28532327,19.6291708 10.0359744,19.6291708 C10.7871246,19.6291708 11.3955313,20.2342997 11.3955313,20.9807026" id="Fill-36" fill="#FFFFFF"></path>
                <path d="M8.24908534,9.4515246 C8.24908534,10.1987546 7.64067861,10.8037181 6.88969475,10.8037181 C6.13904363,10.8037181 5.52997143,10.1987546 5.52997143,9.4515246 C5.52997143,8.70528717 6.13904363,8.09999284 6.88969475,8.09999284 C7.64067861,8.09999284 8.24908534,8.70528717 8.24908534,9.4515246" id="Fill-37" fill="#FFFFFF"></path>
                <path d="M22.433164,15.80379 C22.433164,16.5508546 21.8247573,17.1558181 21.073607,17.1558181 C20.3229559,17.1558181 19.7137174,16.5508546 19.7137174,15.80379 C19.7137174,15.0575526 20.3229559,14.4522583 21.073607,14.4522583 C21.8247573,14.4522583 22.433164,15.0575526 22.433164,15.80379" id="Fill-38" fill="#FFFFFF"></path>
                <path d="M21.5484371,1.5026651 C21.5484371,2.24972965 20.939864,2.85469313 20.1888802,2.85469313 C19.4382291,2.85469313 18.8291569,2.24972965 18.8291569,1.5026651 C18.8291569,0.756427675 19.4382291,0.150967917 20.1888802,0.150967917 C20.939864,0.150967917 21.5484371,0.756427675 21.5484371,1.5026651" id="Fill-39" fill="#FFFFFF"></path>
                <path d="M13.1558016,4.46562966 C13.1558016,5.21269421 12.5472285,5.81765769 11.7959119,5.81765769 C11.0455935,5.81765769 10.4361886,5.21269421 10.4361886,4.46562966 C10.4361886,3.71939223 11.0455935,3.11393247 11.7959119,3.11393247 C12.5472285,3.11393247 13.1558016,3.71939223 13.1558016,4.46562966" id="Fill-40" fill="#FFFFFF"></path>
                <path d="M19.3817639,8.66517133 C19.3817639,9.41223588 18.7731908,10.0171994 18.0220405,10.0171994 C17.2715558,10.0171994 16.6623172,9.41223588 16.6623172,8.66517133 C16.6623172,7.91876848 17.2715558,7.31347415 18.0220405,7.31347415 C18.7731908,7.31347415 19.3817639,7.91876848 19.3817639,8.66517133" id="Fill-41" fill="#FFFFFF"></path>
                <path d="M5.68063404,14.4978166 C5.68063404,15.2448812 5.07222731,15.8498447 4.32091072,15.8498447 C3.57042596,15.8498447 2.9611874,15.2448812 2.9611874,14.4978166 C2.9611874,13.7515792 3.57042596,13.1461194 4.32091072,13.1461194 C5.07222731,13.1461194 5.68063404,13.7515792 5.68063404,14.4978166" id="Fill-42" fill="#FFFFFF"></path>
                <path d="M11.9571056,26.8375828 C11.9571056,27.5846473 11.3486988,28.1896108 10.5973822,28.1896108 C9.84706386,28.1896108 9.23765892,27.5846473 9.23765892,26.8375828 C9.23765892,26.0911799 9.84706386,25.486051 10.5973822,25.486051 C11.3486988,25.486051 11.9571056,26.0911799 11.9571056,26.8375828" id="Fill-43" fill="#FFFFFF"></path>
                <path d="M6.22116274,26.4761101 C6.22116274,27.2231746 5.61258964,27.8283035 4.86160578,27.8283035 C4.11095466,27.8283035 3.50188247,27.2231746 3.50188247,26.4761101 C3.50188247,25.7298727 4.11095466,25.1245783 4.86160578,25.1245783 C5.61258964,25.1245783 6.22116274,25.7298727 6.22116274,26.4761101" id="Fill-44" fill="#FFFFFF"></path>
                <path d="M2.72524471,20.786029 C2.72524471,21.5330936 2.11683798,22.1380571 1.36568776,22.1380571 C0.615036637,22.1380571 0.00596443936,21.5330936 0.00596443936,20.786029 C0.00596443936,20.0396262 0.615036637,19.4343319 1.36568776,19.4343319 C2.11683798,19.4343319 2.72524471,20.0396262 2.72524471,20.786029" id="Fill-45" fill="#FFFFFF"></path>
                <path d="M22.4606147,27.4785265 C22.4606147,28.225591 21.8520416,28.8305545 21.1008913,28.8305545 C20.3504066,28.8305545 19.741168,28.225591 19.741168,27.4785265 C19.741168,26.732289 20.3504066,26.1268293 21.1008913,26.1268293 C21.8520416,26.1268293 22.4606147,26.732289 22.4606147,27.4785265" id="Fill-46" fill="#FFFFFF"></path>
                <path d="M17.7109329,33.1640086 C17.7109329,33.9110732 17.1025262,34.5160367 16.3515423,34.5160367 C15.6008912,34.5160367 14.991819,33.9110732 14.991819,33.1640086 C14.991819,32.4176058 15.6008912,31.8123115 16.3515423,31.8123115 C17.1025262,31.8123115 17.7109329,32.4176058 17.7109329,33.1640086" id="Fill-47" fill="#FFFFFF"></path>
                <path d="M22.4606147,37.4492411 C22.4606147,38.196471 21.8520416,38.8014345 21.1008913,38.8014345 C20.3504066,38.8014345 19.741168,38.196471 19.741168,37.4492411 C19.741168,36.7030036 20.3504066,36.0977093 21.1008913,36.0977093 C21.8520416,36.0977093 22.4606147,36.7030036 22.4606147,37.4492411" id="Fill-48" fill="#FFFFFF"></path>
                <path d="M14.3765912,37.2481159 C14.3765912,37.9951805 13.7681845,38.600144 13.0168679,38.600144 C12.2663831,38.600144 11.6571446,37.9951805 11.6571446,37.2481159 C11.6571446,36.5017131 12.2663831,35.8964188 13.0168679,35.8964188 C13.7681845,35.8964188 14.3765912,36.5017131 14.3765912,37.2481159" id="Fill-49" fill="#FFFFFF"></path>
                <path d="M6.02554758,42.2748711 C6.02554758,43.0221011 5.41714085,43.62723 4.66582426,43.62723 C3.91533951,43.62723 3.30610094,43.0221011 3.30610094,42.2748711 C3.30610094,41.5287991 3.91533951,40.9235048 4.66582426,40.9235048 C5.41714085,40.9235048 6.02554758,41.5287991 6.02554758,42.2748711" id="Fill-50" fill="#FFFFFF"></path>
                <path d="M12.4244491,32.2135195 C12.4244491,32.9605841 11.8160424,33.565713 11.0647258,33.565713 C10.314241,33.565713 9.70500247,32.9605841 9.70500247,32.2135195 C9.70500247,31.4671167 10.314241,30.8619878 11.0647258,30.8619878 C11.8160424,30.8619878 12.4244491,31.4671167 12.4244491,32.2135195" id="Fill-51" fill="#FFFFFF"></path>
                <path d="M2.94717924,33.4972762 C2.94717924,34.2443407 2.33860614,34.8493042 1.58778865,34.8493042 C0.836971166,34.8493042 0.228065336,34.2443407 0.228065336,33.4972762 C0.228065336,32.7510388 0.836971166,32.1457444 1.58778865,32.1457444 C2.33860614,32.1457444 2.94717924,32.7510388 2.94717924,33.4972762" id="Fill-52" fill="#FFFFFF"></path>
                <path d="M14.9854471,42.2698753 C14.9854471,43.0169398 14.3770404,43.6219033 13.6258902,43.6219033 C12.8752391,43.6219033 12.2661669,43.0169398 12.2661669,42.2698753 C12.2661669,41.5234724 12.8752391,40.9183435 13.6258902,40.9183435 C14.3770404,40.9183435 14.9854471,41.5234724 14.9854471,42.2698753" id="Fill-53" fill="#FFFFFF"></path>
                <path d="M13.0168845,48.9393454 C13.0168845,49.6864099 12.4084778,50.2913734 11.6571612,50.2913734 C10.9066765,50.2913734 10.2974379,49.6864099 10.2974379,48.9393454 C10.2974379,48.1931079 10.9066765,47.5878136 11.6571612,47.5878136 C12.4084778,47.5878136 13.0168845,48.1931079 13.0168845,48.9393454" id="Fill-54" fill="#FFFFFF"></path>
                <path d="M22.4249454,47.8864409 C22.4249454,48.6338363 21.8163723,49.2386344 21.0652221,49.2386344 C20.3147374,49.2386344 19.7054988,48.6338363 19.7054988,47.8864409 C19.7054988,47.1402035 20.3147374,46.5349092 21.0652221,46.5349092 C21.8163723,46.5349092 22.4249454,47.1402035 22.4249454,47.8864409" id="Fill-55" fill="#FFFFFF"></path>
                <polygon id="Fill-56" fill="#FFFFFF" points="4.97729789 42.6478906 4.93254498 42.0831257 7.99271269 41.8416035 13.0123593 37.1079338 21.5979315 37.1079338 21.5979315 37.6745184 13.239784 37.6745184 8.23877054 42.3903221"></polygon>
                <polygon id="Fill-57" fill="#FFFFFF" points="14.6644074 18.0520639 14.164306 17.8171588 10.2302087 15.8310523 6.34452439 15.9599192 3.82055982 14.0972206 4.15994996 13.6424641 6.52436789 15.3870484 10.35748 15.2600011 14.9806724 17.5938335"></polygon>
                <polygon id="Fill-58" fill="#FFFFFF" points="10.3575299 15.2600177 9.47777744 10.8595163 7.0649465 9.59632212 7.33046937 9.09508084 9.98054067 10.4825101 11.193694 15.8041043"></polygon>
                <polyline id="Fill-59" fill="#FFFFFF" points="22.3865311 15.6798031 14.3892352 18.1606993 14.2301876 17.6166126 20.3912831 15.6672307"></polyline>
                <polygon id="Fill-60" fill="#FFFFFF" points="29.9240034 6.41899834 25.9832513 3.33098814 25.9726038 0.139255744 31.7164491 0.132473272 38.2151047 5.30948506 37.8760473 5.76506871 31.5246271 0.785244913 26.5860016 0.771349115 26.5860016 3.08185634 30.2767029 5.97400196"></polygon>
                <path d="M26.2681394,17.3231466 L26.2681394,13.6478735 L26.8381152,13.6478735 L26.8381152,16.3732696 C27.6142206,15.9515983 29.2562699,15.0463863 29.9278964,14.5757489 L30.2561399,15.0389422 C29.3379565,15.6822845 26.7955251,17.0415913 26.6878852,17.0991596 L26.2681394,17.3231466 Z" id="Fill-61" fill="#FFFFFF"></path>
                <polygon id="Fill-62" fill="#FFFFFF" points="32.4733057 44.0786615 26.2681228 39.319847 26.2681228 19.9178395 34.4730457 14.1399998 34.9638304 14.6276762 26.8380986 20.2405859 26.8380986 39.0414348 32.8210143 43.6301912"></polygon>
                <polygon id="Fill-63" fill="#FFFFFF" points="28.4720291 47.427648 26.2629987 45.4173893 26.2681561 42.6206945 28.0700848 40.8605602 28.5171148 41.2180461 26.8249888 42.8686684 26.8466166 45.180499 28.8568377 47.0094507"></polygon>
                <polyline id="Fill-64" fill="#FFFFFF" points="38.5556428 44.4305064 38.5556428 49.0432495 36.3687392 50.6556584 31.6350787 50.6556584 31.6350787 50.0892392 36.18091 50.0892392 37.9858334 48.7580548 37.9858334 44.4305064"></polyline>
                <polygon id="Fill-65" fill="#FFFFFF" points="38.7229754 36.2325482 32.1712485 30.0791912 32.1968691 25.5744713 33.1278629 23.6270745 40.6435243 23.6270745 40.6435243 27.3675255 40.0737149 27.3675255 40.0737149 24.1938246 33.4878826 24.1938246 32.7666786 25.7025112 32.7666786 29.7867177 39.1392274 35.7721672"></polygon>
                <polygon id="Fill-66" fill="#FFFFFF" points="40.5033096 47.2588306 40.1457854 46.817639 44.8687984 43.0320267 44.8687984 32.5855299 42.7504383 29.5249804 42.7461127 19.2783184 39.342063 19.2783184 36.8488764 21.3901488 36.4795401 20.9590483 39.1321069 18.7118993 43.3159222 18.7118993 43.3205804 29.3491324 45.4386078 32.4095165 45.4386078 43.3029947"></polygon>
                <polygon id="Fill-67" fill="#FFFFFF" points="38.7923508 41.976492 32.1785687 35.3622577 30.0963104 35.3622577 30.0963104 38.9655704 29.5266674 38.9655704 29.5266674 34.7955076 32.4041633 34.7955076 39.182483 41.5632574"></polygon>
                <polygon id="Fill-68" fill="#FFFFFF" points="47.2764553 39.1686144 46.7066459 39.1686144 46.7066459 34.4150936 48.3525217 32.634281 48.3525217 30.7318801 47.3904172 29.7747243 47.3904172 25.3373329 47.9600602 25.3373329 47.9600602 29.54015 48.9223311 30.4973058 48.9223311 32.9214608 47.2764553 34.7024389"></polygon>
                <polygon id="Fill-69" fill="#FFFFFF" points="45.4654263 25.8823459 45.1128931 25.4376804 47.1287707 23.8576951 47.1287707 19.8998742 45.1533204 19.722041 41.1791285 15.3978011 41.1791285 10.9835694 41.7489379 10.9835694 41.7489379 15.1779498 45.4249989 19.1774581 47.6987465 19.3824211 47.6987465 24.132468"></polygon>
                <polygon id="Fill-70" fill="#FFFFFF" points="30.1140951 29.9293812 29.5441193 29.9293812 29.5441193 21.4852027 37.2898673 16.4271323 37.2898673 12.4228266 33.8129485 9.74044139 33.8129485 6.42778247 28.1306592 2.23985371 28.487518 1.79800043 34.3827579 6.15582185 34.3827579 9.46318714 37.8596767 12.145407 37.8596767 16.7330053 30.1140951 21.7909103"></polygon>
                <polygon id="Fill-71" fill="#FFFFFF" points="46.3807648 18.4627178 45.810789 18.4627178 45.810789 15.4739633 42.9567509 13.2491469 42.9567509 10.8354137 43.526893 10.8354137 43.526893 12.973216 46.3807648 15.1980325"></polygon>
                <polygon id="Fill-72" fill="#FFFFFF" points="41.8446493 10.1870424 38.53493 10.1870424 38.53493 6.38224064 39.1047394 6.38224064 39.1047394 9.62045779 41.8446493 9.62045779"></polygon>
                <polyline id="Stroke-73" stroke="#FFFFFF" stroke-width="0.5" points="10.5974155 26.8378309 19.1941343 21.113424 21.1883841 27.4786919 16.3512429 33.1642237"></polyline>
                <polyline id="Stroke-74" stroke="#FFFFFF" stroke-width="0.5" points="11.6571945 48.9394942 13.6258236 42.2076419 21.0651223 47.8868876"></polyline>
                <polyline id="Stroke-75" stroke="#FFFFFF" stroke-width="0.5" points="13.0168845 37.4496546 11.0647258 32.2529571 1.58775538 33.5656137"></polyline>
                <path d="M1.36553803,20.6558221 L4.93262816,26.4765071" id="Stroke-76" stroke="#FFFFFF" stroke-width="0.5"></path>
                <path d="M14.8254846,17.7285565 L10.5974155,20.5490726" id="Stroke-77" stroke="#FFFFFF" stroke-width="0.5"></path>
                <polyline id="Stroke-78" stroke="#FFFFFF" stroke-width="0.5" points="11.7959452 4.4658778 18.0219241 8.66538638 20.1886972 1.50292978"></polyline>
                <path d="M18.0681244,8.51283037 L21.0735571,15.8637074" id="Stroke-79" stroke="#FFFFFF" stroke-width="0.5"></path>
                <path d="M29.7238464,9.32752114 C28.997984,9.32752114 28.407545,9.9146186 28.407545,10.636373 C28.407545,11.3579619 28.997984,11.9450593 29.7238464,11.9450593 C30.449376,11.9450593 31.039815,11.3579619 31.039815,10.636373 C31.039815,9.9146186 30.449376,9.32752114 29.7238464,9.32752114 M29.7238464,12.840842 C28.50121,12.840842 27.5064975,11.8519244 27.5064975,10.636373 C27.5064975,9.42065607 28.50121,8.43157304 29.7238464,8.43157304 C30.9463163,8.43157304 31.9408625,9.42065607 31.9408625,10.636373 C31.9408625,11.8519244 30.9463163,12.840842 29.7238464,12.840842" id="Fill-80" fill="#FFFFFF"></path>
                <path d="M36.5134126,26.2842819 C35.7875502,26.2842819 35.1971112,26.8712139 35.1971112,27.5931337 C35.1971112,28.3147226 35.7875502,28.9018201 36.5134126,28.9018201 C37.2389422,28.9018201 37.8293812,28.3147226 37.8293812,27.5931337 C37.8293812,26.8712139 37.2389422,26.2842819 36.5134126,26.2842819 M36.5134126,29.7976028 C35.2906099,29.7976028 34.2960637,28.8085197 34.2960637,27.5931337 C34.2960637,26.3772514 35.2906099,25.3883338 36.5134126,25.3883338 C37.7358825,25.3883338 38.7304287,26.3772514 38.7304287,27.5931337 C38.7304287,28.8085197 37.7358825,29.7976028 36.5134126,29.7976028" id="Fill-81" fill="#FFFFFF"></path>
                <path d="M41.8407396,38.6723359 C41.1148773,38.6723359 40.5244383,39.2594334 40.5244383,39.9811878 C40.5244383,40.7029421 41.1148773,41.2897087 41.8407396,41.2897087 C42.5662692,41.2897087 43.1567083,40.7029421 43.1567083,39.9811878 C43.1567083,39.2594334 42.5662692,38.6723359 41.8407396,38.6723359 M41.8407396,42.1859877 C40.6181033,42.1859877 39.6233908,41.1969046 39.6233908,39.9811878 C39.6233908,38.7654709 40.6181033,37.7763878 41.8407396,37.7763878 C43.0632096,37.7763878 44.0577558,38.7654709 44.0577558,39.9811878 C44.0577558,41.1969046 43.0632096,42.1859877 41.8407396,42.1859877" id="Fill-82" fill="#FFFFFF"></path>
                <path d="M34.6331579,45.8102929 C33.9072956,45.8102929 33.3168566,46.3973904 33.3168566,47.1193102 C33.3168566,47.8407337 33.9072956,48.4278311 34.6331579,48.4278311 C35.3586875,48.4278311 35.9491265,47.8407337 35.9491265,47.1193102 C35.9491265,46.3973904 35.3586875,45.8102929 34.6331579,45.8102929 M34.6331579,49.3236138 C33.4105216,49.3236138 32.4158091,48.3346962 32.4158091,47.1193102 C32.4158091,45.9034279 33.4105216,44.9143448 34.6331579,44.9143448 C35.8556279,44.9143448 36.8503404,45.9034279 36.8503404,47.1193102 C36.8503404,48.3346962 35.8556279,49.3236138 34.6331579,49.3236138" id="Fill-83" fill="#FFFFFF"></path>
            </g>
        </g>
    </g>
</svg>