<?xml version="1.0" encoding="UTF-8"?>
<svg width="18px" height="15px" viewBox="0 0 18 15" version="1.1" xmlns="http://www.w3.org/2000/svg" xmlns:xlink="http://www.w3.org/1999/xlink">
    <!-- Generator: sketchtool 47.1 (45422) - http://www.bohemiancoding.com/sketch -->
    <title>EA5AC28D-67FD-4283-9135-12113632C458</title>
    <desc>Created with sketchtool.</desc>
    <defs></defs>
    <g id="ver-3" stroke="none" stroke-width="1" fill="none" fill-rule="evenodd">
        <g id="neuron_web_contacts" transform="translate(-1044.000000, -513.000000)" fill="#9FA3A7">
            <g id="Email" transform="translate(1027.000000, 497.000000)">
                <g id="Icon" transform="translate(17.000000, 15.000000)">
                    <path d="M17.528,15.501 C17.213,15.835 16.835,16.002 16.393,16.002 L1.607,16.002 C1.165,16.002 0.787,15.835 0.472,15.501 C0.157,15.167 0,14.765 0,14.297 L0,5.836 C0.295,6.184 0.633,6.493 1.014,6.763 C3.439,8.51 5.103,9.736 6.007,10.439 C6.388,10.738 6.698,10.97 6.936,11.137 C7.173,11.304 7.49,11.475 7.885,11.649 C8.28,11.823 8.648,11.91 8.99,11.91 L9,11.91 L9.01,11.91 C9.352,11.91 9.72,11.823 10.115,11.649 C10.51,11.475 10.826,11.304 11.064,11.137 C11.302,10.97 11.612,10.738 11.993,10.439 C13.131,9.565 14.799,8.34 16.995,6.763 C17.377,6.486 17.712,6.177 18,5.836 L18,14.297 C18,14.765 17.843,15.167 17.528,15.501 L17.528,15.501 Z M16.282,5.622 C13.765,7.477 12.197,8.631 11.582,9.086 C11.515,9.135 11.372,9.244 11.155,9.411 C10.937,9.578 10.756,9.713 10.612,9.816 C10.468,9.919 10.294,10.034 10.09,10.162 C9.886,10.29 9.693,10.386 9.512,10.45 C9.332,10.514 9.164,10.546 9.01,10.546 L9,10.546 L8.99,10.546 C8.836,10.546 8.668,10.514 8.488,10.45 C8.307,10.386 8.114,10.29 7.91,10.162 C7.706,10.034 7.532,9.919 7.388,9.816 C7.244,9.713 7.063,9.578 6.845,9.411 C6.628,9.244 6.485,9.135 6.418,9.086 C5.809,8.631 4.932,7.983 3.787,7.141 C2.642,6.3 1.955,5.794 1.728,5.623 C1.312,5.324 0.921,4.914 0.552,4.392 C0.184,3.87 0,3.385 0,2.938 C0,2.383 0.139,1.922 0.417,1.552 C0.695,1.183 1.091,0.998 1.607,0.998 L16.393,0.998 C16.828,0.998 17.205,1.165 17.523,1.499 C17.841,1.833 18,2.234 18,2.703 C18,3.264 17.836,3.801 17.508,4.312 C17.18,4.823 16.771,5.261 16.282,5.622 L16.282,5.622 Z" id="Shape"></path>
                </g>
            </g>
        </g>
    </g>
</svg>