<?xml version="1.0" encoding="UTF-8"?>
<svg width="12px" height="16px" viewBox="0 0 12 16" version="1.1" xmlns="http://www.w3.org/2000/svg" xmlns:xlink="http://www.w3.org/1999/xlink">
    <!-- Generator: sketchtool 47.1 (45422) - http://www.bohemiancoding.com/sketch -->
    <title>9ED4E73E-E47C-4371-A840-CD3C1ABEA86E</title>
    <desc>Created with sketchtool.</desc>
    <defs></defs>
    <g id="ver-3" stroke="none" stroke-width="1" fill="none" fill-rule="evenodd">
        <g id="neuron_web_contacts" transform="translate(-748.000000, -512.000000)" fill="#9FA3A7">
            <g id="Name" transform="translate(731.000000, 497.000000)">
                <g id="Icon" transform="translate(17.000000, 15.000000)">
                    <path d="M6,15.9936399 C2.686,15.9936399 0,16.2445402 0,13.594594 C0,10.9446477 2.686,7.99681997 6,7.99681997 C9.314,7.99681997 12,10.9446477 12,13.594594 C12,16.2445402 9.314,15.9936399 6,15.9936399 L6,15.9936399 Z M6,7.19713798 C4.012,7.19713798 2.4,5.58577875 2.4,3.59856899 C2.4,1.61135922 4.012,0 6,0 C7.988,0 9.6,1.61135922 9.6,3.59856899 C9.6,5.58577875 7.988,7.19713798 6,7.19713798 L6,7.19713798 Z" id="Shape"></path>
                </g>
            </g>
        </g>
    </g>
</svg>