<?xml version="1.0" encoding="UTF-8"?>
<svg width="34px" height="34px" viewBox="0 0 34 34" version="1.1" xmlns="http://www.w3.org/2000/svg" xmlns:xlink="http://www.w3.org/1999/xlink">
    <!-- Generator: sketchtool 47.1 (45422) - http://www.bohemiancoding.com/sketch -->
    <title>A7EA9B7E-453A-4983-BF16-E7A3F1EBE88F</title>
    <desc>Created with sketchtool.</desc>
    <defs></defs>
    <g id="ver-3" stroke="none" stroke-width="1" fill="none" fill-rule="evenodd">
        <g id="neuron_web_landing" transform="translate(-1276.000000, -59.000000)" fill-rule="nonzero" fill="#FFFFFF">
            <g id="//-HEADER">
                <g id="question" transform="translate(1276.000000, 59.000000)">
                    <path d="M17,0 C7.57272727,0 0,7.57272727 0,17 C0,26.4272727 7.57272727,34 17,34 C26.4272727,34 34,26.4272727 34,17 C34,7.57272727 26.4272727,0 17,0 Z M18.5454545,26.2727273 C18.5454545,26.7363636 18.2363636,27.0454545 17.7727273,27.0454545 L16.2272727,27.0454545 C15.7636364,27.0454545 15.4545455,26.7363636 15.4545455,26.2727273 L15.4545455,24.7272727 C15.4545455,24.2636364 15.7636364,23.9545455 16.2272727,23.9545455 L17.7727273,23.9545455 C18.2363636,23.9545455 18.5454545,24.2636364 18.5454545,24.7272727 L18.5454545,26.2727273 Z M20.6318182,19.3954545 C19.55,20.3227273 18.7772727,20.9409091 18.5454545,21.7909091 C18.4681818,22.1772727 18.1590909,22.4090909 17.7727273,22.4090909 L16.2272727,22.4090909 C15.7636364,22.4090909 15.3772727,22.0227273 15.4545455,21.5590909 C15.7636364,19.3181818 17.3863636,18.0818182 18.7,17 C20.0909091,15.9181818 20.8636364,15.2227273 20.8636364,13.9090909 C20.8636364,11.7454545 19.1636364,10.0454545 17,10.0454545 C14.8363636,10.0454545 13.1363636,11.7454545 13.1363636,13.9090909 C13.1363636,14.0636364 13.1363636,14.2181818 13.1363636,14.3727273 C13.2136364,14.7590909 12.9818182,15.1454545 12.5954545,15.2227273 L11.1272727,15.6863636 C10.6636364,15.8409091 10.2,15.5318182 10.1227273,15.0681818 C10.0454545,14.6818182 10.0454545,14.2954545 10.0454545,13.9090909 C10.0454545,10.0454545 13.1363636,6.95454545 17,6.95454545 C20.8636364,6.95454545 23.9545455,10.0454545 23.9545455,13.9090909 C23.9545455,16.7681818 22.1,18.2363636 20.6318182,19.3954545 Z" id="Shape"></path>
                </g>
            </g>
        </g>
    </g>
</svg>