<svg width="42" height="42" viewBox="0 0 42 42" fill="none" xmlns="http://www.w3.org/2000/svg">
<g clip-path="url(#clip0)">
<path d="M39.8502 16.5921L36.9022 16.092C36.5951 15.1006 36.2003 14.1442 35.7178 13.2318L37.455 10.8014C38.1919 9.76614 38.0779 8.35358 37.1742 7.45866L34.5596 4.84409C34.0683 4.35277 33.419 4.08078 32.7259 4.08078C32.182 4.08078 31.6643 4.24748 31.2256 4.56333L28.7865 6.30053C27.839 5.80043 26.8475 5.38806 25.821 5.08098L25.3297 2.16811C25.1191 0.913473 24.04 0.00100708 22.7678 0.00100708H19.074C17.8019 0.00100708 16.7227 0.913473 16.5121 2.16811L16.0032 5.15117C15.0206 5.45825 14.0643 5.86184 13.1518 6.35317L10.739 4.61598C10.3003 4.30012 9.77391 4.13342 9.22994 4.13342C8.53682 4.13342 7.87879 4.40541 7.39623 4.89674L4.7729 7.5113C3.87798 8.40622 3.75515 9.81878 4.49214 10.8541L6.24688 13.3195C5.76433 14.2407 5.37828 15.1971 5.07998 16.1885L2.16711 16.6798C0.912466 16.8904 0 17.9696 0 19.2417V22.9355C0 24.2077 0.912466 25.2868 2.16711 25.4974L5.15017 26.0063C5.45725 26.9889 5.86084 27.9453 6.35216 28.8577L4.62374 31.2617C3.88675 32.297 4.00081 33.7096 4.9045 34.6045L7.51907 37.2191C8.01039 37.7104 8.65965 37.9824 9.35277 37.9824C9.89674 37.9824 10.4144 37.8157 10.8531 37.4998L13.3185 35.7451C14.2046 36.2101 15.1346 36.5874 16.091 36.8857L16.5823 39.8336C16.7929 41.0883 17.872 42.0007 19.1442 42.0007H22.8467C24.1189 42.0007 25.1981 41.0883 25.4087 39.8336L25.9088 36.8857C26.9002 36.5786 27.8565 36.1838 28.769 35.7012L31.1993 37.4384C31.638 37.7543 32.1644 37.921 32.7084 37.921C33.4015 37.921 34.0508 37.649 34.5421 37.1577L37.1566 34.5431C38.0516 33.6482 38.1744 32.2356 37.4374 31.2003L35.7002 28.7612C36.1828 27.84 36.5864 26.8836 36.8847 25.901L39.8326 25.4097C41.0873 25.1991 41.9997 24.1199 41.9997 22.8477V19.154C42.0173 17.8818 41.1048 16.8027 39.8502 16.5921ZM39.6484 22.8477C39.6484 22.9618 39.5694 23.0583 39.4554 23.0759L35.7704 23.69C35.3054 23.769 34.9369 24.1112 34.8228 24.5586C34.4894 25.8483 33.9806 27.0854 33.2962 28.2348C33.0593 28.6384 33.0769 29.1385 33.3489 29.5245L35.516 32.5778C35.5774 32.6655 35.5686 32.7971 35.4896 32.8761L32.8751 35.4907C32.8137 35.5521 32.7522 35.5608 32.7084 35.5608C32.6557 35.5608 32.6119 35.5433 32.5768 35.517L29.5323 33.3499C29.155 33.0779 28.6462 33.0603 28.2426 33.2972C27.0932 33.9816 25.8561 34.4904 24.5664 34.8238C24.1101 34.9379 23.768 35.3152 23.6978 35.7714L23.0748 39.4564C23.0573 39.5704 22.9608 39.6494 22.8467 39.6494H19.153C19.0389 39.6494 18.9424 39.5704 18.9249 39.4564L18.3107 35.7714C18.2318 35.3064 17.8896 34.9379 17.4421 34.8238C16.1875 34.4992 14.9767 33.9991 13.8449 33.3499C13.6607 33.2446 13.4501 33.1919 13.2483 33.1919C13.0114 33.1919 12.7657 33.2621 12.5639 33.4113L9.49315 35.5959C9.44928 35.6223 9.40541 35.6398 9.36154 35.6398C9.32645 35.6398 9.25626 35.631 9.19485 35.5696L6.58028 32.9551C6.50132 32.8761 6.49254 32.7533 6.55396 32.6567L8.71229 29.6298C8.98428 29.2438 9.00182 28.7349 8.76493 28.3313C8.08058 27.1907 7.55416 25.9536 7.22076 24.6639C7.09793 24.2164 6.72943 23.8743 6.2732 23.7953L2.56192 23.1636C2.44786 23.146 2.3689 23.0495 2.3689 22.9355V19.2417C2.3689 19.1277 2.44786 19.0312 2.56192 19.0136L6.22056 18.3995C6.68556 18.3205 7.06283 17.9783 7.17689 17.5221C7.50152 16.2324 8.00162 14.9865 8.6772 13.8371C8.91409 13.4336 8.88776 12.9334 8.61578 12.5562L6.43113 9.48538C6.36971 9.39765 6.37848 9.26604 6.45745 9.18708L9.07201 6.57251C9.13343 6.5111 9.19485 6.50232 9.23871 6.50232C9.29136 6.50232 9.33522 6.51987 9.37032 6.54619L12.3972 8.70452C12.7833 8.97651 13.2922 8.99406 13.6958 8.75717C14.8363 8.07282 16.0734 7.54639 17.3632 7.21299C17.8106 7.09016 18.1528 6.72167 18.2318 6.26543L18.8635 2.55416C18.881 2.4401 18.9775 2.36113 19.0916 2.36113H22.7853C22.8994 2.36113 22.9959 2.4401 23.0134 2.55416L23.6276 6.21279C23.7066 6.6778 24.0487 7.05507 24.505 7.16913C25.8298 7.50253 27.0932 8.02017 28.2689 8.7133C28.6725 8.95019 29.1726 8.93264 29.5586 8.66066L32.5855 6.48478C32.6294 6.45846 32.6733 6.44091 32.7172 6.44091C32.7522 6.44091 32.8224 6.44968 32.8839 6.5111L35.4984 9.12566C35.5774 9.20463 35.5862 9.32746 35.5247 9.42397L33.3576 12.4684C33.0857 12.8457 33.0681 13.3546 33.305 13.7582C33.9893 14.9075 34.4982 16.1446 34.8316 17.4344C34.9457 17.8906 35.3229 18.2328 35.7792 18.303L39.4641 18.9259C39.5782 18.9434 39.6572 19.0399 39.6572 19.154V22.8477H39.6484Z" fill="white"/>
<path d="M21.0043 11.9323C16.0033 11.9323 11.941 15.9946 11.941 20.9956C11.941 25.9966 16.0033 30.0588 21.0043 30.0588C26.0053 30.0588 30.0675 25.9966 30.0675 20.9956C30.0675 15.9946 26.0053 11.9323 21.0043 11.9323ZM21.0043 27.6899C17.3105 27.6899 14.3099 24.6893 14.3099 20.9956C14.3099 17.3019 17.3105 14.3012 21.0043 14.3012C24.698 14.3012 27.6986 17.3019 27.6986 20.9956C27.6986 24.6893 24.698 27.6899 21.0043 27.6899Z" fill="white"/>
</g>
<defs>
<clipPath id="clip0">
<rect width="42" height="42" fill="white"/>
</clipPath>
</defs>
</svg>
