<svg width="42" height="42" viewBox="0 0 42 42" fill="none" xmlns="http://www.w3.org/2000/svg">
<g clip-path="url(#clip0)">
<path d="M35.8982 6.20122C27.7264 -2.02663 14.4312 -2.07327 6.19938 6.10128C-2.03114 14.2745 -2.07377 27.5696 6.09678 35.8001C14.2713 44.0293 27.5665 44.0746 35.7983 35.9014C44.0275 27.7282 44.0715 14.4331 35.8982 6.20122ZM30.0954 5.2272L25.6411 9.65092C22.699 8.44905 19.3839 8.43706 16.4339 9.61894L12.0102 5.16457C17.6078 1.99202 24.5192 2.01468 30.0954 5.2272ZM9.61976 25.5656L5.1654 29.988C1.99018 24.3904 2.01417 17.479 5.22802 11.9027L9.65307 16.3571C8.44854 19.2978 8.43788 22.6143 9.61976 25.5656ZM11.9022 36.7742L16.3579 32.3504C19.2986 33.551 22.6151 33.5643 25.5638 32.3811L29.9875 36.8368C24.3912 40.0093 17.4772 39.9867 11.9022 36.7742ZM27.6811 27.7309C23.9702 31.4164 17.9529 31.3951 14.266 27.6842C10.5805 23.9734 10.6018 17.956 14.314 14.2705C18.0262 10.585 24.0421 10.6049 27.7277 14.3158C31.4146 18.0267 31.3932 24.044 27.6811 27.7309ZM32.3446 25.6429C33.5465 22.7009 33.5598 19.3858 32.3766 16.4357L36.8309 12.012C40.0048 17.6083 39.9822 24.521 36.7683 30.0973L32.3446 25.6429Z" fill="white"/>
</g>
<defs>
<clipPath id="clip0">
<rect width="42" height="42" fill="white" transform="matrix(-1 0 0 1 42 0)"/>
</clipPath>
</defs>
</svg>
