<svg width="38" height="38" viewBox="0 0 38 38" fill="none" xmlns="http://www.w3.org/2000/svg">
<path d="M24.1643 6.23438H26.3909V8.46094H24.1643V6.23438Z" fill="white"/>
<path d="M27.7332 6.23438H29.9597V8.46094H27.7332V6.23438Z" fill="white"/>
<path d="M31.2646 6.23438H33.4912V8.46094H31.2646V6.23438Z" fill="white"/>
<path d="M12.3476 17.2851L5.65894 22.9176L12.3476 28.5504L13.7818 26.8472L9.11562 22.9176L13.7818 18.9884L12.3476 17.2851Z" fill="white"/>
<path d="M24.2183 18.9884L28.8845 22.9176L24.2183 26.8472L25.6525 28.5504L32.3412 22.9176L25.6525 17.2851L24.2183 18.9884Z" fill="white"/>
<path d="M15.0913 29.4364L20.6107 15.5781L22.6793 16.4021L17.1599 30.2601L15.0913 29.4364Z" fill="white"/>
<path d="M0 2.59766V35.4023H38V2.59766H0ZM35.7734 4.82422V9.85254H2.22656V4.82422H35.7734ZM2.22656 33.1758V12.0791H35.7734V33.1758H2.22656Z" fill="white"/>
</svg>
