<svg width="42" height="42" viewBox="0 0 42 42" fill="none" xmlns="http://www.w3.org/2000/svg">
<g clip-path="url(#clip0)">
<path d="M34.2179 28.9484L34.1984 28.0383C35.0889 27.3827 35.6157 26.3439 35.6179 25.2384V23.8384C35.6179 21.9052 34.0507 20.3383 32.1178 20.3386C32.0041 20.3386 31.8906 20.3441 31.7778 20.355C29.9613 20.5767 28.601 22.1273 28.618 23.9573V25.2384C28.6244 26.3404 29.1416 27.377 30.018 28.0454L30.0382 28.942C29.0058 29.2425 28.1021 29.8764 27.468 30.7444C26.4823 29.5883 25.1782 28.7481 23.7179 28.329V27.1543C25.0295 26.2369 25.8126 24.7388 25.8181 23.1383V20.3383C25.8181 17.6322 23.6241 15.4382 20.918 15.4382C18.2119 15.4382 16.0179 17.6322 16.0179 20.3383V23.1383C16.0233 24.7388 16.8065 26.2369 18.118 27.1543V28.329C16.6578 28.7478 15.3536 29.588 14.368 30.7438C13.7399 29.8799 12.843 29.2486 11.818 28.9484L11.7984 28.0383C12.6889 27.3827 13.2157 26.3439 13.2179 25.2384V23.9573C13.2349 22.1273 11.8747 20.5767 10.0581 20.355C8.13425 20.1672 6.42249 21.5745 6.23439 23.4984C6.2235 23.6112 6.21805 23.7247 6.21805 23.8384V25.2384C6.22446 26.3404 6.74164 27.377 7.61803 28.0454L7.63821 28.942C5.55763 29.5598 4.12721 31.468 4.11792 33.6383V40.6385C4.11792 41.0249 4.4313 41.3383 4.81807 41.3383H37.0179C37.4047 41.3383 37.718 41.0249 37.718 40.6385V33.6383C37.711 31.475 36.2899 29.5707 34.2179 28.9484ZM5.5179 33.6383C5.52463 32.0899 6.54393 30.7287 8.02754 30.2862C8.6181 30.1096 9.02153 29.5646 9.01801 28.9484V28.0454C9.02185 27.6006 8.81773 27.1799 8.46654 26.9072C7.93173 26.5195 7.6161 25.8988 7.61803 25.2384V23.8384C7.61867 23.2462 7.86893 22.6816 8.30696 22.283C8.745 21.8825 9.33331 21.6883 9.92387 21.7495C11.0252 21.8963 11.8404 22.8467 11.818 23.9573V25.2384C11.8189 25.9026 11.4998 26.5265 10.9605 26.9143C10.6141 27.1866 10.4135 27.6045 10.418 28.0454V28.9484C10.4141 29.563 10.8156 30.1071 11.4043 30.2846C12.3015 30.5445 13.0561 31.1546 13.498 31.9771C13.4336 32.0928 13.3852 32.2165 13.3266 32.3347C13.2676 32.4533 13.1984 32.5888 13.1423 32.7205C13.06 32.9131 12.9927 33.1111 12.927 33.3098C12.884 33.4373 12.8366 33.5626 12.8007 33.6915C12.7392 33.9142 12.6972 34.141 12.6565 34.3692C12.6364 34.4804 12.6069 34.5896 12.5921 34.7015C12.5444 35.045 12.5194 35.3914 12.5181 35.7381V39.9383H5.5179V33.6383ZM13.9181 35.7384C13.9181 35.442 13.9386 35.1462 13.9796 34.8527C14.1027 33.9766 14.41 33.1365 14.881 32.3873C15.7994 30.9309 17.2714 29.9113 18.9579 29.5643C19.2838 29.4979 19.518 29.2111 19.518 28.8782V26.7713C19.5177 26.5214 19.3844 26.2907 19.1678 26.1657C18.0885 25.539 17.4227 24.3867 17.4179 23.1383V20.3383C17.4179 18.4054 18.9848 16.8382 20.918 16.8382C22.8508 16.8382 24.4181 18.4054 24.4181 20.3383V23.1383C24.4133 24.3867 23.7471 25.5386 22.6679 26.1657C22.4516 26.2907 22.3183 26.5214 22.318 26.7713V28.8782C22.318 29.2111 22.5519 29.4979 22.8781 29.5643C25.8117 30.1631 27.9185 32.7442 27.9179 35.7384V39.9383H13.9181V35.7384ZM36.3181 39.9383H29.3179V35.7384C29.3179 35.3917 29.2945 35.0453 29.248 34.7018C29.2333 34.5896 29.2038 34.4804 29.1836 34.3692C29.1429 34.141 29.1009 33.9142 29.0394 33.6915C29.0038 33.5626 28.9561 33.4383 28.9141 33.3108C28.8478 33.1121 28.7805 32.9131 28.6978 32.7199C28.6424 32.5898 28.5773 32.4645 28.5145 32.337C28.4514 32.2098 28.4072 32.0934 28.3421 31.9771C28.7827 31.1559 29.5354 30.5464 30.4304 30.2862C31.0197 30.1084 31.4218 29.5639 31.418 28.9484V28.0454C31.4218 27.6006 31.2177 27.1799 30.8665 26.9072C30.3317 26.5195 30.0161 25.8988 30.018 25.2384V23.9573C29.9956 22.8467 30.8111 21.8963 31.9124 21.7495C32.5027 21.6873 33.0916 21.8815 33.5293 22.283C33.9674 22.6813 34.2173 23.2459 34.2179 23.8384V25.2384C34.2192 25.9023 33.8997 26.5265 33.3605 26.9139C33.0141 27.1866 32.8135 27.6045 32.818 28.0454V28.9484C32.8141 29.563 33.2156 30.1071 33.8043 30.2846C35.2898 30.7265 36.3107 32.0886 36.3181 33.6383V39.9383Z" fill="white"/>
<path d="M12.023 15.9333C12.2967 16.2066 12.7398 16.2066 13.0132 15.933C13.1442 15.8019 13.2179 15.6237 13.2179 15.4382V12.9283C17.0099 12.0083 19.518 9.6893 19.518 7.03835C19.518 3.50555 15.2136 0.738281 9.71814 0.738281C4.22237 0.738281 -0.0820312 3.50555 -0.0820312 7.03835C-0.0820312 10.5083 4.07112 13.2397 9.42526 13.3384L12.023 15.9333ZM1.31795 7.03835C1.31795 4.38258 5.16444 2.13826 9.71814 2.13826C14.2715 2.13826 18.118 4.38258 18.118 7.03835C18.118 9.09842 15.759 11.0066 12.3816 11.6786C12.0554 11.7452 11.8212 12.0323 11.8215 12.3652V13.7486L10.2164 12.1435C10.0844 12.0112 9.90495 11.9375 9.71814 11.9384C5.16444 11.9384 1.31795 9.69411 1.31795 7.03835Z" fill="white"/>
<path d="M4.11792 4.93822H15.3181V6.3382H4.11792V4.93822Z" fill="white"/>
<path d="M4.11792 7.73817H15.3181V9.13815H4.11792V7.73817Z" fill="white"/>
<path d="M32.1182 2.83841C26.6224 2.83841 22.318 5.60536 22.318 9.13815C22.318 11.7891 24.826 14.1084 28.6181 15.0281V17.5383C28.6181 17.9248 28.9314 18.2382 29.3182 18.2382C29.5037 18.2382 29.6816 18.1645 29.813 18.0331L32.4107 15.4382C37.7649 15.3395 41.918 12.6081 41.918 9.13815C41.918 5.60536 37.6136 2.83841 32.1182 2.83841ZM32.1182 14.0382C31.9323 14.0382 31.7545 14.1119 31.6231 14.2433L30.018 15.8484V14.4654C30.0184 14.1324 29.7841 13.8453 29.4579 13.7787C26.077 13.1067 23.718 11.1985 23.718 9.13815C23.718 6.48239 27.5645 4.23839 32.1182 4.23839C36.6715 4.23839 40.518 6.48239 40.518 9.13815C40.518 11.7942 36.6715 14.0382 32.1182 14.0382Z" fill="white"/>
<path d="M26.5178 7.03835H37.718V8.43832H26.5178V7.03835Z" fill="white"/>
<path d="M26.5178 9.8383H37.718V11.2383H26.5178V9.8383Z" fill="white"/>
</g>
<defs>
<clipPath id="clip0">
<rect width="42" height="42" fill="white"/>
</clipPath>
</defs>
</svg>
