<?xml version="1.0" encoding="UTF-8"?>
<svg width="187px" height="39px" viewBox="0 0 187 39" version="1.1" xmlns="http://www.w3.org/2000/svg" xmlns:xlink="http://www.w3.org/1999/xlink">
    <!-- Generator: sketchtool 47.1 (45422) - http://www.bohemiancoding.com/sketch -->
    <title>DD278849-63DB-493E-9A82-B5D39D7E0937</title>
    <desc>Created with sketchtool.</desc>
    <defs></defs>
    <g id="ver-3" stroke="none" stroke-width="1" fill="none" fill-rule="evenodd">
        <g id="neuron_web_products" transform="translate(-183.000000, -277.000000)" fill="#FFFFFF">
            <g id="post_preview_medium_dark" transform="translate(130.000000, 152.000000)">
                <g id="image">
                    <g id="Group-3" transform="translate(41.000000, 105.000000)">
                        <g id="open-book" transform="translate(12.880000, 21.280000)" fill-rule="nonzero">
                            <path d="M9.97500097,0 C9.97402352,0 9.97292389,0 9.97194644,0 C9.6287388,0 9.30593546,0.132158847 9.0621835,0.37233794 C8.81574355,0.615172278 8.67999998,0.938508855 8.67999998,1.28272532 L8.67999998,20.5169671 C8.67999998,21.222297 9.26317195,21.7975199 9.98013259,21.7993303 C11.7749939,21.8035589 14.2897214,22.0247171 16.7679662,22.9598842 C18.4630552,23.599527 20.141076,24.5732111 21.56,26.0399999 L21.56,5.91081953 C21.56,5.67172668 21.4981761,5.44711698 21.3814929,5.26124975 C18.5142612,0.700019465 13.0043674,0.00700019465 9.97500097,0 Z" id="Combined-Shape"></path>
                            <path d="M32.3132489,21.981497 C33.3417474,21.8469233 34.2935252,21.8012302 35.0999772,21.7993303 C35.8168224,21.7975199 36.3999999,21.222297 36.3999999,20.5170878 L36.3999999,1.28272532 C36.3999999,0.938508855 36.2642551,0.615172278 36.0178128,0.37233794 C35.7740585,0.132158847 35.4510077,0 35.1081634,0 C35.1070637,0 35.1059641,0 35.1049866,0 C32.0757137,0.00712088766 26.5657676,0.700140158 23.6983865,5.26137044 C23.5817022,5.44723768 23.5199999,5.67184737 23.5199999,5.91094022 L23.5199999,24.5237663 C22.8604469,29.5871273 19.2713333,33.2589599 13.740791,33.2589599 C7.65112224,33.2589599 3.95568225,28.6266478 3.95568225,22.6931245 L3.95568225,0.988920561 C3.95568225,0.468436055 3.53929464,0 2.96676168,0 L0.988920561,0 C0.468436055,0 0,0.468436055 0,0.988920561 L0,23.0054152 C0,30.9167797 5.56918421,36.9543999 13.740791,36.9543999 C21.2538009,36.9543999 26.5947302,31.9151727 27.461697,25.0117277 C27.4810425,24.8576844 27.628455,24.2973305 27.6484278,24.2071163 C27.6684007,24.1169022 27.7358385,23.6237536 28.451215,23.105168 C28.7704011,22.8737859 29.1372338,22.6967493 29.5198369,22.5584325 C30.192266,22.3634545 30.858291,22.2154022 31.5026539,22.1042481 C31.8147379,22.0577806 32.093141,22.0208855 32.3132489,21.981497 Z" id="Combined-Shape"></path>
                        </g>
                        <path d="M113.2768,42.2547999 L113.2768,21.8652 C113.2768,21.5572 113.5232,21.28 113.862,21.28 L120.9152,21.28 C124.5804,21.28 127.414,23.7439999 127.414,26.9779999 C127.414,29.3495999 125.4736,31.1975999 124.026,31.8751999 C125.6584,32.3987999 128.03,34.0619999 128.03,36.8955999 C128.03,40.3451999 125.0732,42.8399999 121.3156,42.8399999 L113.862,42.8399999 C113.5232,42.8399999 113.2768,42.5627999 113.2768,42.2547999 Z M117.25,30.3351999 L120.5456,30.3351999 C122.1164,30.3351999 123.1944,29.1031999 123.1944,27.5631999 C123.1944,26.0231999 122.1164,24.9451999 120.5456,24.9451999 L117.25,24.9451999 L117.25,30.3351999 Z M117.25,39.2055999 L120.9768,39.2055999 C122.5168,39.2055999 123.7488,38.0043999 123.7488,36.4027999 C123.7488,34.8627999 122.2088,33.7231999 120.6072,33.7231999 L117.25,33.7231999 L117.25,39.2055999 Z M130.7404,32.0907999 C130.7404,25.9307999 135.6376,20.972 141.7976,20.972 C147.9576,20.972 152.8856,25.9307999 152.8856,32.0907999 C152.8856,38.2507999 147.9576,43.1479999 141.7976,43.1479999 C135.6376,43.1479999 130.7404,38.2507999 130.7404,32.0907999 Z M134.7444,32.0907999 C134.7444,35.9715999 137.9168,39.1439999 141.7976,39.1439999 C145.6784,39.1439999 148.8816,35.9715999 148.8816,32.0907999 C148.8816,28.2099999 145.6784,24.9759999 141.7976,24.9759999 C137.9168,24.9759999 134.7444,28.2099999 134.7444,32.0907999 Z M155.3804,32.0907999 C155.3804,25.9307999 160.2776,20.972 166.4376,20.972 C172.5976,20.972 177.5256,25.9307999 177.5256,32.0907999 C177.5256,38.2507999 172.5976,43.1479999 166.4376,43.1479999 C160.2776,43.1479999 155.3804,38.2507999 155.3804,32.0907999 Z M159.3844,32.0907999 C159.3844,35.9715999 162.5568,39.1439999 166.4376,39.1439999 C170.3184,39.1439999 173.5216,35.9715999 173.5216,32.0907999 C173.5216,28.2099999 170.3184,24.9759999 166.4376,24.9759999 C162.5568,24.9759999 159.3844,28.2099999 159.3844,32.0907999 Z M181.5604,42.1007999 C181.5604,42.5011999 181.8684,42.8399999 182.2996,42.8399999 L185.01,42.8399999 C185.4104,42.8399999 185.7492,42.5011999 185.7492,42.1007999 L185.7492,32.7067999 L193.788,42.6243999 C193.8496,42.7167999 194.0344,42.8399999 194.3424,42.8399999 L197.6996,42.8399999 C198.3156,42.8399999 198.562,42.1623999 198.254,41.7619999 L189.63,31.4439999 L197.6688,22.3888 C198.0692,21.9268 197.7612,21.28 197.176,21.28 L194.096,21.28 C193.8188,21.28 193.634,21.434 193.5108,21.588 L185.7492,30.3351999 L185.7492,22.0192 C185.7492,21.6188 185.4104,21.28 185.01,21.28 L182.2996,21.28 C181.8684,21.28 181.5604,21.6188 181.5604,22.0192 L181.5604,42.1007999 Z" id="UNIBOOK"></path>
                        <path d="M57.3747999,34.6779999 C57.3747999,39.3595999 61.1015999,43.1479999 65.9371999,43.1479999 C70.8035998,43.1479999 74.5303998,39.3595999 74.5303998,34.6779999 L74.5303998,21.8652 C74.5303998,21.5572 74.2531998,21.28 73.9451998,21.28 L71.0191998,21.28 C70.6803998,21.28 70.4339999,21.5572 70.4339999,21.8652 L70.4339999,34.4931999 C70.4339999,37.0803999 68.6167999,39.1439999 65.9371999,39.1439999 C63.2575999,39.1439999 61.4711999,37.0803999 61.4711999,34.4623999 L61.4711999,21.8652 C61.4711999,21.5572 61.2247999,21.28 60.8859999,21.28 L57.9599999,21.28 C57.6519999,21.28 57.3747999,21.5572 57.3747999,21.8652 L57.3747999,34.6779999 Z M79.8279998,42.2547999 C79.8279998,42.5627999 80.1051998,42.8399999 80.4131998,42.8399999 L83.2159998,42.8399999 C83.5547998,42.8399999 83.8011998,42.5627999 83.8011998,42.2547999 L83.8011998,29.0107999 L83.8319998,29.0107999 L96.7063998,43.1479999 L97.4455998,43.1479999 C97.7535998,43.1479999 98.0307998,42.9015999 98.0307998,42.5935999 L98.0307998,21.8652 C98.0307998,21.5572 97.7535998,21.28 97.4455998,21.28 L94.6119998,21.28 C94.2731998,21.28 94.0267998,21.5572 94.0267998,21.8652 L94.0267998,34.5855999 L93.9959998,34.5855999 L81.1831998,20.972 L80.4131998,20.972 C80.1051998,20.972 79.8279998,21.2184 79.8279998,21.5264 L79.8279998,42.2547999 Z M103.6364,42.2547999 C103.6364,42.5627999 103.9136,42.8399999 104.2216,42.8399999 L107.086,42.8399999 C107.394,42.8399999 107.6712,42.5627999 107.6712,42.2547999 L107.6712,21.8652 C107.6712,21.5572 107.394,21.28 107.086,21.28 L104.2216,21.28 C103.9136,21.28 103.6364,21.5572 103.6364,21.8652 L103.6364,42.2547999 Z" id="UNIBOOK"></path>
                        <path d="M57.2835199,50.8020799 C57.2835199,48.7860799 58.8862399,47.1631999 60.9022399,47.1631999 C62.9182399,47.1631999 64.5310399,48.7860799 64.5310399,50.8020799 C64.5310399,52.8180799 62.9182399,54.4207999 60.9022399,54.4207999 C58.8862399,54.4207999 57.2835199,52.8180799 57.2835199,50.8020799 Z M58.5939199,50.8020799 C58.5939199,52.0721599 59.6321599,53.1103999 60.9022399,53.1103999 C62.1723199,53.1103999 63.2206399,52.0721599 63.2206399,50.8020799 C63.2206399,49.5319999 62.1723199,48.4735999 60.9022399,48.4735999 C59.6321599,48.4735999 58.5939199,49.5319999 58.5939199,50.8020799 Z M65.4160639,54.1284799 C65.4160639,54.2292799 65.5067839,54.3199999 65.6075839,54.3199999 L66.5248639,54.3199999 C66.6357439,54.3199999 66.7163839,54.2292799 66.7163839,54.1284799 L66.7163839,49.7940799 L66.7365439,49.7940799 L70.8693439,54.3502399 C70.9197439,54.4006399 70.9701439,54.4207999 71.0407039,54.4207999 L71.1818239,54.4207999 C71.2826239,54.4207999 71.3733439,54.3401599 71.3733439,54.2393599 L71.3733439,47.4555199 C71.3733439,47.3547199 71.2826239,47.2639999 71.1818239,47.2639999 L70.2544639,47.2639999 C70.1435839,47.2639999 70.0629439,47.3547199 70.0629439,47.4555199 L70.0629439,51.6185599 L70.0427839,51.6185599 L65.9301439,47.2337599 C65.8797439,47.1833599 65.8293439,47.1631999 65.7587839,47.1631999 L65.6075839,47.1631999 C65.5067839,47.1631999 65.4160639,47.2438399 65.4160639,47.3446399 L65.4160639,54.1284799 Z M72.6716479,54.1284799 C72.6716479,54.2292799 72.7522879,54.3199999 72.8631679,54.3199999 L76.5524479,54.3199999 C76.6633279,54.3199999 76.7439679,54.2292799 76.7439679,54.1284799 L76.7439679,53.3019199 C76.7439679,53.2011199 76.6633279,53.1103999 76.5524479,53.1103999 L73.9820479,53.1103999 L73.9820479,47.4555199 C73.9820479,47.3547199 73.8913279,47.2639999 73.7905279,47.2639999 L72.8631679,47.2639999 C72.7522879,47.2639999 72.6716479,47.3547199 72.6716479,47.4555199 L72.6716479,54.1284799 Z M77.346752,54.1284799 C77.346752,54.2292799 77.437472,54.3199999 77.538272,54.3199999 L78.475712,54.3199999 C78.576512,54.3199999 78.667232,54.2292799 78.667232,54.1284799 L78.667232,47.4555199 C78.667232,47.3547199 78.576512,47.2639999 78.475712,47.2639999 L77.538272,47.2639999 C77.437472,47.2639999 77.346752,47.3547199 77.346752,47.4555199 L77.346752,54.1284799 Z M79.965536,54.1284799 C79.965536,54.2292799 80.056256,54.3199999 80.157056,54.3199999 L81.074336,54.3199999 C81.185216,54.3199999 81.265856,54.2292799 81.265856,54.1284799 L81.265856,49.7940799 L81.286016,49.7940799 L85.418816,54.3502399 C85.469216,54.4006399 85.519616,54.4207999 85.590176,54.4207999 L85.731296,54.4207999 C85.832096,54.4207999 85.922816,54.3401599 85.922816,54.2393599 L85.922816,47.4555199 C85.922816,47.3547199 85.832096,47.2639999 85.731296,47.2639999 L84.803936,47.2639999 C84.693056,47.2639999 84.612416,47.3547199 84.612416,47.4555199 L84.612416,51.6185599 L84.592256,51.6185599 L80.479616,47.2337599 C80.429216,47.1833599 80.378816,47.1631999 80.308256,47.1631999 L80.157056,47.1631999 C80.056256,47.1631999 79.965536,47.2438399 79.965536,47.3446399 L79.965536,54.1284799 Z M87.22112,54.1284799 C87.22112,54.2292799 87.30176,54.3199999 87.41264,54.3199999 L91.5152,54.3199999 C91.62608,54.3199999 91.70672,54.2292799 91.70672,54.1284799 L91.70672,53.3019199 C91.70672,53.2011199 91.62608,53.1103999 91.5152,53.1103999 L88.53152,53.1103999 L88.53152,51.3463999 L91.02128,51.3463999 C91.12208,51.3463999 91.2128,51.2657599 91.2128,51.1548799 L91.2128,50.3182399 C91.2128,50.2174399 91.12208,50.1267199 91.02128,50.1267199 L88.53152,50.1267199 L88.53152,48.4735999 L91.5152,48.4735999 C91.62608,48.4735999 91.70672,48.3828799 91.70672,48.2820799 L91.70672,47.4555199 C91.70672,47.3547199 91.62608,47.2639999 91.5152,47.2639999 L87.41264,47.2639999 C87.30176,47.2639999 87.22112,47.3547199 87.22112,47.4555199 L87.22112,54.1284799 Z M94.6158081,54.1284799 C94.6158081,54.2292799 94.6964481,54.3199999 94.8073281,54.3199999 L98.9098881,54.3199999 C99.0207681,54.3199999 99.1014081,54.2292799 99.1014081,54.1284799 L99.1014081,53.3019199 C99.1014081,53.2011199 99.0207681,53.1103999 98.9098881,53.1103999 L95.9262081,53.1103999 L95.9262081,51.3463999 L98.4159681,51.3463999 C98.5167681,51.3463999 98.6074881,51.2657599 98.6074881,51.1548799 L98.6074881,50.3182399 C98.6074881,50.2174399 98.5167681,50.1267199 98.4159681,50.1267199 L95.9262081,50.1267199 L95.9262081,48.4735999 L98.9098881,48.4735999 C99.0207681,48.4735999 99.1014081,48.3828799 99.1014081,48.2820799 L99.1014081,47.4555199 C99.1014081,47.3547199 99.0207681,47.2639999 98.9098881,47.2639999 L94.8073281,47.2639999 C94.6964481,47.2639999 94.6158081,47.3547199 94.6158081,47.4555199 L94.6158081,54.1284799 Z M100.006592,54.1284799 L100.006592,47.4555199 C100.006592,47.3547199 100.087232,47.2639999 100.188032,47.2639999 L102.576992,47.2639999 C104.522432,47.2639999 106.115072,48.8465599 106.115072,50.7819199 C106.115072,52.7374399 104.522432,54.3199999 102.576992,54.3199999 L100.188032,54.3199999 C100.087232,54.3199999 100.006592,54.2292799 100.006592,54.1284799 Z M101.306912,53.0902399 L102.456032,53.0902399 C103.766432,53.0902399 104.724032,52.1628799 104.724032,50.7819199 C104.724032,49.4110399 103.766432,48.4836799 102.456032,48.4836799 L101.306912,48.4836799 L101.306912,53.0902399 Z M106.929536,51.7294399 C106.929536,53.2615999 108.149216,54.4207999 109.731776,54.4207999 C111.324416,54.4207999 112.544096,53.2615999 112.544096,51.7294399 L112.544096,47.4555199 C112.544096,47.3547199 112.453376,47.2639999 112.352576,47.2639999 L111.394976,47.2639999 C111.284096,47.2639999 111.203456,47.3547199 111.203456,47.4555199 L111.203456,51.6689599 C111.203456,52.5156799 110.608736,53.1103999 109.731776,53.1103999 C108.854816,53.1103999 108.270176,52.5156799 108.270176,51.6588799 L108.270176,47.4555199 C108.270176,47.3547199 108.189536,47.2639999 108.078656,47.2639999 L107.121056,47.2639999 C107.020256,47.2639999 106.929536,47.3547199 106.929536,47.4555199 L106.929536,51.7294399 Z M113.35856,50.8020799 C113.35856,48.7860799 114.98144,47.1631999 116.99744,47.1631999 C118.01552,47.1631999 118.75136,47.4857599 119.4368,48.1006399 C119.52752,48.1812799 119.52752,48.3022399 119.44688,48.3828799 L118.832,49.0179199 C118.76144,49.0985599 118.66064,49.0985599 118.58,49.0179199 C118.15664,48.6449599 117.59216,48.4231999 117.02768,48.4231999 C115.73744,48.4231999 114.77984,49.5017599 114.77984,50.7718399 C114.77984,52.0318399 115.74752,53.1003199 117.03776,53.1003199 C117.64256,53.1003199 118.15664,52.8684799 118.58,52.5257599 C118.66064,52.4551999 118.77152,52.4652799 118.832,52.5257599 L119.45696,53.1708799 C119.5376,53.2414399 119.51744,53.3724799 119.44688,53.4430399 C118.76144,54.1083199 117.89456,54.4207999 116.99744,54.4207999 C114.98144,54.4207999 113.35856,52.8180799 113.35856,50.8020799 Z M119.626304,54.3199999 C119.475104,54.3199999 119.394464,54.1889599 119.454944,54.0579199 L122.589824,47.2740799 C122.620064,47.2135999 122.670464,47.1631999 122.761184,47.1631999 L122.861984,47.1631999 C122.962784,47.1631999 123.003104,47.2135999 123.033344,47.2740799 L126.137984,54.0579199 C126.198464,54.1889599 126.117824,54.3199999 125.966624,54.3199999 L125.089664,54.3199999 C124.938464,54.3199999 124.867904,54.2595199 124.797344,54.1183999 L124.303424,53.0297599 L121.289504,53.0297599 L120.795584,54.1183999 C120.755264,54.2191999 120.664544,54.3199999 120.503264,54.3199999 L119.626304,54.3199999 Z M121.783424,51.9108799 L123.809504,51.9108799 L122.801504,49.6932799 L122.771264,49.6932799 L121.783424,51.9108799 Z M127.295168,54.1284799 L127.295168,48.4735999 L125.752928,48.4735999 C125.642048,48.4735999 125.561408,48.3828799 125.561408,48.2820799 L125.561408,47.4555199 C125.561408,47.3547199 125.642048,47.2639999 125.752928,47.2639999 L130.157888,47.2639999 C130.268768,47.2639999 130.349408,47.3547199 130.349408,47.4555199 L130.349408,48.2820799 C130.349408,48.3828799 130.268768,48.4735999 130.157888,48.4735999 L128.615648,48.4735999 L128.615648,54.1284799 C128.615648,54.2292799 128.524928,54.3199999 128.424128,54.3199999 L127.486688,54.3199999 C127.385888,54.3199999 127.295168,54.2292799 127.295168,54.1284799 Z M131.052992,54.1284799 C131.052992,54.2292799 131.143712,54.3199999 131.244512,54.3199999 L132.181952,54.3199999 C132.282752,54.3199999 132.373472,54.2292799 132.373472,54.1284799 L132.373472,47.4555199 C132.373472,47.3547199 132.282752,47.2639999 132.181952,47.2639999 L131.244512,47.2639999 C131.143712,47.2639999 131.052992,47.3547199 131.052992,47.4555199 L131.052992,54.1284799 Z M133.258496,50.8020799 C133.258496,48.7860799 134.861216,47.1631999 136.877216,47.1631999 C138.893216,47.1631999 140.506016,48.7860799 140.506016,50.8020799 C140.506016,52.8180799 138.893216,54.4207999 136.877216,54.4207999 C134.861216,54.4207999 133.258496,52.8180799 133.258496,50.8020799 Z M134.568896,50.8020799 C134.568896,52.0721599 135.607136,53.1103999 136.877216,53.1103999 C138.147296,53.1103999 139.195616,52.0721599 139.195616,50.8020799 C139.195616,49.5319999 138.147296,48.4735999 136.877216,48.4735999 C135.607136,48.4735999 134.568896,49.5319999 134.568896,50.8020799 Z M141.39104,54.1284799 C141.39104,54.2292799 141.48176,54.3199999 141.58256,54.3199999 L142.49984,54.3199999 C142.61072,54.3199999 142.69136,54.2292799 142.69136,54.1284799 L142.69136,49.7940799 L142.71152,49.7940799 L146.84432,54.3502399 C146.89472,54.4006399 146.94512,54.4207999 147.01568,54.4207999 L147.1568,54.4207999 C147.2576,54.4207999 147.34832,54.3401599 147.34832,54.2393599 L147.34832,47.4555199 C147.34832,47.3547199 147.2576,47.2639999 147.1568,47.2639999 L146.22944,47.2639999 C146.11856,47.2639999 146.03792,47.3547199 146.03792,47.4555199 L146.03792,51.6185599 L146.01776,51.6185599 L141.90512,47.2337599 C141.85472,47.1833599 141.80432,47.1631999 141.73376,47.1631999 L141.58256,47.1631999 C141.48176,47.1631999 141.39104,47.2438399 141.39104,47.3446399 L141.39104,54.1284799 Z M150.650528,54.1284799 L150.650528,47.4555199 C150.650528,47.3547199 150.731168,47.2639999 150.842048,47.2639999 L153.210848,47.2639999 C154.450688,47.2639999 155.468768,48.2719999 155.468768,49.4916799 C155.468768,50.7415999 154.450688,51.7596799 153.220928,51.7596799 L151.960928,51.7596799 L151.960928,54.1284799 C151.960928,54.2292799 151.870208,54.3199999 151.769408,54.3199999 L150.842048,54.3199999 C150.731168,54.3199999 150.650528,54.2292799 150.650528,54.1284799 Z M151.960928,50.5299199 L153.170528,50.5299199 C153.735008,50.5299199 154.168448,50.0763199 154.168448,49.4815999 C154.168448,48.9271999 153.735008,48.5038399 153.170528,48.5038399 L151.960928,48.5038399 L151.960928,50.5299199 Z M156.172353,54.1284799 L156.172353,47.4555199 C156.172353,47.3547199 156.252992,47.2639999 156.363872,47.2639999 L157.291232,47.2639999 C157.392032,47.2639999 157.482752,47.3547199 157.482752,47.4555199 L157.482752,53.1103999 L160.053152,53.1103999 C160.164032,53.1103999 160.244672,53.2011199 160.244672,53.3019199 L160.244672,54.1284799 C160.244672,54.2292799 160.164032,54.3199999 160.053152,54.3199999 L156.363872,54.3199999 C156.252992,54.3199999 156.172353,54.2292799 156.172353,54.1284799 Z M160.182177,54.3199999 C160.030977,54.3199999 159.950337,54.1889599 160.010817,54.0579199 L163.145697,47.2740799 C163.175937,47.2135999 163.226337,47.1631999 163.317057,47.1631999 L163.417857,47.1631999 C163.518657,47.1631999 163.558977,47.2135999 163.589217,47.2740799 L166.693857,54.0579199 C166.754337,54.1889599 166.673697,54.3199999 166.522497,54.3199999 L165.645537,54.3199999 C165.494337,54.3199999 165.423777,54.2595199 165.353217,54.1183999 L164.859297,53.0297599 L161.845377,53.0297599 L161.351457,54.1183999 C161.311137,54.2191999 161.220417,54.3199999 161.059137,54.3199999 L160.182177,54.3199999 Z M162.339297,51.9108799 L164.365377,51.9108799 L163.357377,49.6932799 L163.327137,49.6932799 L162.339297,51.9108799 Z M167.851041,54.1284799 L167.851041,48.4735999 L166.308801,48.4735999 C166.197921,48.4735999 166.117281,48.3828799 166.117281,48.2820799 L166.117281,47.4555199 C166.117281,47.3547199 166.197921,47.2639999 166.308801,47.2639999 L170.713761,47.2639999 C170.824641,47.2639999 170.905281,47.3547199 170.905281,47.4555199 L170.905281,48.2820799 C170.905281,48.3828799 170.824641,48.4735999 170.713761,48.4735999 L169.171521,48.4735999 L169.171521,54.1284799 C169.171521,54.2292799 169.080801,54.3199999 168.980001,54.3199999 L168.042561,54.3199999 C167.941761,54.3199999 167.851041,54.2292799 167.851041,54.1284799 Z M171.608865,54.1284799 C171.608865,54.2292799 171.689505,54.3199999 171.800385,54.3199999 L172.727745,54.3199999 C172.828545,54.3199999 172.919265,54.2292799 172.919265,54.1284799 L172.919265,51.5782399 L175.409025,51.5782399 C175.509825,51.5782399 175.600545,51.4875199 175.600545,51.3867199 L175.600545,50.5601599 C175.600545,50.4593599 175.509825,50.3686399 175.409025,50.3686399 L172.919265,50.3686399 L172.919265,48.4735999 L175.902945,48.4735999 C176.013825,48.4735999 176.094465,48.3828799 176.094465,48.2820799 L176.094465,47.4555199 C176.094465,47.3547199 176.013825,47.2639999 175.902945,47.2639999 L171.800385,47.2639999 C171.689505,47.2639999 171.608865,47.3547199 171.608865,47.4555199 L171.608865,54.1284799 Z M176.394849,50.8020799 C176.394849,48.7860799 177.997569,47.1631999 180.013569,47.1631999 C182.029569,47.1631999 183.642369,48.7860799 183.642369,50.8020799 C183.642369,52.8180799 182.029569,54.4207999 180.013569,54.4207999 C177.997569,54.4207999 176.394849,52.8180799 176.394849,50.8020799 Z M177.705249,50.8020799 C177.705249,52.0721599 178.743489,53.1103999 180.013569,53.1103999 C181.283649,53.1103999 182.331969,52.0721599 182.331969,50.8020799 C182.331969,49.5319999 181.283649,48.4735999 180.013569,48.4735999 C178.743489,48.4735999 177.705249,49.5319999 177.705249,50.8020799 Z M184.527393,54.1284799 L184.527393,47.4555199 C184.527393,47.3547199 184.608033,47.2639999 184.718913,47.2639999 L187.601793,47.2639999 C188.811393,47.2639999 189.799233,48.2316799 189.799233,49.4311999 C189.799233,50.3585599 189.184353,51.1145599 188.307393,51.4673599 L189.688353,54.0276799 C189.758913,54.1587199 189.688353,54.3199999 189.516993,54.3199999 L188.458593,54.3199999 C188.367873,54.3199999 188.317473,54.2695999 188.297313,54.2292799 L186.956673,51.5580799 L185.837793,51.5580799 L185.837793,54.1284799 C185.837793,54.2292799 185.747073,54.3199999 185.646273,54.3199999 L184.718913,54.3199999 C184.608033,54.3199999 184.527393,54.2292799 184.527393,54.1284799 Z M185.847873,50.4795199 L187.490913,50.4795199 C188.025153,50.4795199 188.488833,50.0158399 188.488833,49.4513599 C188.488833,48.9171199 188.025153,48.4735999 187.490913,48.4735999 L185.847873,48.4735999 L185.847873,50.4795199 Z M190.381857,54.0881599 C190.361697,54.2292799 190.442337,54.3199999 190.573377,54.3199999 L191.480577,54.3199999 C191.571297,54.3199999 191.651937,54.2393599 191.662017,54.1687999 L192.246657,50.3484799 L192.276897,50.3484799 L194.061057,54.3099199 C194.091297,54.3703999 194.141697,54.4207999 194.232417,54.4207999 L194.413857,54.4207999 C194.504577,54.4207999 194.565057,54.3703999 194.585217,54.3099199 L196.349217,50.3484799 L196.379457,50.3484799 L196.974177,54.1687999 C196.994337,54.2393599 197.074977,54.3199999 197.165697,54.3199999 L198.082977,54.3199999 C198.214017,54.3199999 198.294657,54.2292799 198.264417,54.0881599 L197.074977,47.3143999 C197.064897,47.2337599 197.004417,47.1631999 196.893537,47.1631999 L196.732257,47.1631999 C196.641537,47.1631999 196.591137,47.2035199 196.560897,47.2639999 L194.343297,52.0217599 L194.313057,52.0217599 L192.095457,47.2639999 C192.065217,47.2035199 192.004737,47.1631999 191.924097,47.1631999 L191.762817,47.1631999 C191.651937,47.1631999 191.591457,47.2337599 191.581377,47.3143999 L190.381857,54.0881599 Z" id="online-education-pla"></path>
                    </g>
                </g>
            </g>
        </g>
    </g>
</svg>